<svg xmlns="http://www.w3.org/2000/svg" xmlns:xlink="http://www.w3.org/1999/xlink" viewBox="0 0 500.11 490.93"><defs><style>.cls-1{isolation:isolate;}.cls-2{fill:#ffeee6;opacity:0.57;}.cls-2,.cls-21,.cls-27,.cls-3,.cls-35,.cls-36,.cls-43,.cls-44,.cls-52,.cls-53,.cls-54,.cls-6{mix-blend-mode:multiply;}.cls-3{opacity:0.53;}.cls-11,.cls-16,.cls-17,.cls-19,.cls-23,.cls-24,.cls-25,.cls-28,.cls-29,.cls-37,.cls-4,.cls-40,.cls-45,.cls-46,.cls-48,.cls-49,.cls-51,.cls-55,.cls-56,.cls-57,.cls-58,.cls-7{fill:none;}.cls-4,.cls-7{stroke:#efbbae;}.cls-11,.cls-19,.cls-25,.cls-4,.cls-48,.cls-7{stroke-miterlimit:10;}.cls-4{stroke-width:0.36px;}.cls-5,.cls-6{fill:#f8e2d7;}.cls-6{opacity:0.17;}.cls-7{stroke-width:0.5px;}.cls-8{fill:#f4d9ce;}.cls-9{fill:#382b31;}.cls-10{fill:#ffefe6;}.cls-11{stroke:#1f2835;}.cls-12{fill:#ecb050;}.cls-13{fill:#1f2835;}.cls-14{fill:#ff877e;}.cls-15{fill:#0e151e;}.cls-16,.cls-17{stroke:#0e151e;}.cls-16,.cls-17,.cls-23,.cls-24,.cls-28,.cls-29,.cls-37,.cls-40,.cls-45,.cls-46,.cls-49,.cls-51,.cls-55,.cls-56,.cls-57,.cls-58{stroke-linecap:round;stroke-linejoin:round;}.cls-16,.cls-24{stroke-width:0.27px;}.cls-17,.cls-23,.cls-37,.cls-48{stroke-width:0.26px;}.cls-18{fill:#fff;}.cls-19{stroke:#b6e0d5;stroke-width:2.36px;}.cls-20,.cls-36{fill:#b6e0d5;}.cls-21{opacity:0.39;}.cls-22{fill:#ffd3ca;}.cls-23,.cls-49,.cls-51,.cls-56,.cls-57,.cls-58{stroke:#4e4041;}.cls-24,.cls-48{stroke:#f8e2d7;}.cls-25{stroke:#7771d5;stroke-width:2.36px;}.cls-26{fill:#7771d5;}.cls-27{opacity:0.19;}.cls-28,.cls-29{stroke:#42353b;}.cls-28{stroke-width:0.35px;}.cls-29{stroke-width:0.31px;}.cls-30{fill:#fffcfa;}.cls-31{opacity:0.34;}.cls-32{fill:#f4b0af;}.cls-33{opacity:0.25;}.cls-34,.cls-35{fill:#79a5fc;}.cls-35{opacity:0.16;}.cls-36{opacity:0.43;}.cls-37,.cls-40,.cls-45,.cls-46,.cls-55{stroke:#382b31;}.cls-38{fill:#fffaf8;}.cls-39{fill:#fc817e;}.cls-40{stroke-width:0.32px;}.cls-41{fill:#4e4041;}.cls-42,.cls-52{fill:#ff655d;}.cls-43,.cls-44,.cls-52,.cls-53,.cls-54{opacity:0.32;}.cls-43{fill:url(#linear-gradient);}.cls-44{fill:url(#linear-gradient-2);}.cls-45{stroke-width:0.39px;}.cls-46{stroke-width:0.36px;}.cls-47{fill:#fffefd;}.cls-49{stroke-width:1.03px;}.cls-50{fill:#e07163;}.cls-51{stroke-width:1.05px;}.cls-53{fill:url(#linear-gradient-3);}.cls-54{fill:url(#linear-gradient-4);}.cls-55{stroke-width:0.37px;}.cls-56{stroke-width:1.43px;}.cls-57{stroke-width:2.12px;}.cls-58{stroke-width:0.79px;}</style><linearGradient id="linear-gradient" x1="346.32" y1="213.62" x2="363.4" y2="168.09" gradientTransform="matrix(-1, -0.04, -0.04, 1, 748.1, -5.2)" gradientUnits="userSpaceOnUse"><stop offset="0" stop-color="#d16969" stop-opacity="0"/><stop offset="1" stop-color="#d16969" stop-opacity="0.8"/></linearGradient><linearGradient id="linear-gradient-2" x1="365.87" y1="197.54" x2="378.63" y2="163.51" gradientTransform="matrix(-1, 0, 0, 1, 741.22, 0)" xlink:href="#linear-gradient"/><linearGradient id="linear-gradient-3" x1="82.76" y1="229.73" x2="100.41" y2="182.65" gradientTransform="translate(-6.88 -5.2) rotate(-2.17)" gradientUnits="userSpaceOnUse"><stop offset="0" stop-color="#d16969" stop-opacity="0"/><stop offset="1" stop-color="#d16969" stop-opacity="0.6"/></linearGradient><linearGradient id="linear-gradient-4" x1="103.45" y1="223.7" x2="116.65" y2="188.51" gradientTransform="matrix(1, 0, 0, 1, 0, 0)" xlink:href="#linear-gradient-3"/></defs><title>AboutBg</title><g class="cls-1"><g id="OBJECTS"><ellipse class="cls-2" cx="250.06" cy="466.53" rx="232.47" ry="24.4"/><g class="cls-3"><rect class="cls-4" x="429.59" y="26.82" width="33.17" height="13.43"/><rect class="cls-4" x="445.8" y="10.23" width="33.17" height="13.43"/><rect class="cls-4" x="465.25" y="27.08" width="33.17" height="13.43"/><rect class="cls-4" x="429.59" y="208.61" width="33.17" height="13.43"/><rect class="cls-4" x="445.8" y="192.01" width="33.17" height="13.43"/><rect class="cls-4" x="465.25" y="208.86" width="33.17" height="13.43"/><rect class="cls-4" x="397.08" y="72.69" width="33.17" height="13.43"/><rect class="cls-4" x="397.08" y="163.33" width="33.17" height="13.43"/><rect class="cls-4" x="433.33" y="125.8" width="33.17" height="13.43"/><rect class="cls-4" x="457.74" y="109.33" width="33.17" height="13.43"/><rect class="cls-4" x="292.91" y="26.82" width="33.17" height="13.43"/><rect class="cls-4" x="309.12" y="10.23" width="33.17" height="13.43"/><rect class="cls-4" x="328.58" y="27.08" width="33.17" height="13.43"/><rect class="cls-4" x="292.91" y="208.61" width="33.17" height="13.43"/><rect class="cls-4" x="309.12" y="192.01" width="33.17" height="13.43"/><rect class="cls-4" x="328.58" y="208.86" width="33.17" height="13.43"/><rect class="cls-4" x="260.4" y="72.69" width="33.17" height="13.43"/><rect class="cls-4" x="260.4" y="163.33" width="33.17" height="13.43"/><rect class="cls-4" x="296.65" y="125.8" width="33.17" height="13.43"/><rect class="cls-4" x="321.06" y="109.33" width="33.17" height="13.43"/><rect class="cls-4" x="147.25" y="26.82" width="33.17" height="13.43"/><rect class="cls-4" x="163.47" y="10.23" width="33.17" height="13.43"/><rect class="cls-4" x="182.92" y="27.08" width="33.17" height="13.43"/><rect class="cls-4" x="147.25" y="208.61" width="33.17" height="13.43"/><rect class="cls-4" x="163.47" y="192.01" width="33.17" height="13.43"/><rect class="cls-4" x="182.92" y="208.86" width="33.17" height="13.43"/><rect class="cls-4" x="114.75" y="72.69" width="33.17" height="13.43"/><rect class="cls-4" x="114.75" y="163.33" width="33.17" height="13.43"/><rect class="cls-4" x="150.99" y="125.8" width="33.17" height="13.43"/><rect class="cls-4" x="175.4" y="109.33" width="33.17" height="13.43"/><rect class="cls-4" x="1.6" y="26.82" width="33.17" height="13.43"/><rect class="cls-4" x="17.81" y="10.23" width="33.17" height="13.43"/><rect class="cls-4" x="37.26" y="27.08" width="33.17" height="13.43"/><rect class="cls-4" x="1.6" y="208.61" width="33.17" height="13.43"/><rect class="cls-4" x="17.81" y="192.01" width="33.17" height="13.43"/><rect class="cls-4" x="37.26" y="208.86" width="33.17" height="13.43"/><rect class="cls-4" x="5.34" y="125.8" width="33.17" height="13.43"/><rect class="cls-4" x="29.75" y="109.33" width="33.17" height="13.43"/></g><rect class="cls-5" y="230.37" width="500.06" height="197"/><rect class="cls-6" y="230.37" width="500.06" height="197"/><line class="cls-7" x1="0.45" y1="240.95" x2="500.11" y2="240.95"/><line class="cls-7" x1="12.19" y1="240.44" x2="12.19" y2="426.82"/><line class="cls-7" x1="25.19" y1="240.44" x2="25.19" y2="426.82"/><line class="cls-7" x1="38.2" y1="240.44" x2="38.2" y2="426.82"/><line class="cls-7" x1="51.2" y1="240.44" x2="51.2" y2="426.82"/><line class="cls-7" x1="64.2" y1="240.44" x2="64.2" y2="426.82"/><line class="cls-7" x1="77.2" y1="240.44" x2="77.2" y2="426.82"/><line class="cls-7" x1="90.2" y1="240.44" x2="90.2" y2="426.82"/><line class="cls-7" x1="103.2" y1="240.44" x2="103.2" y2="426.82"/><line class="cls-7" x1="116.21" y1="240.44" x2="116.21" y2="426.82"/><line class="cls-7" x1="129.21" y1="240.44" x2="129.21" y2="426.82"/><line class="cls-7" x1="142.21" y1="240.44" x2="142.21" y2="426.82"/><line class="cls-7" x1="155.21" y1="240.44" x2="155.21" y2="426.82"/><line class="cls-7" x1="168.21" y1="240.44" x2="168.21" y2="426.82"/><line class="cls-7" x1="181.21" y1="240.44" x2="181.21" y2="426.82"/><line class="cls-7" x1="194.22" y1="240.44" x2="194.22" y2="426.82"/><line class="cls-7" x1="207.22" y1="240.44" x2="207.22" y2="426.82"/><line class="cls-7" x1="220.22" y1="240.44" x2="220.22" y2="426.82"/><line class="cls-7" x1="233.22" y1="240.44" x2="233.22" y2="426.82"/><line class="cls-7" x1="246.22" y1="240.44" x2="246.22" y2="426.82"/><line class="cls-7" x1="259.22" y1="240.44" x2="259.22" y2="426.82"/><line class="cls-7" x1="272.23" y1="240.44" x2="272.23" y2="426.82"/><line class="cls-7" x1="285.23" y1="240.44" x2="285.23" y2="426.82"/><line class="cls-7" x1="298.23" y1="240.44" x2="298.23" y2="426.82"/><line class="cls-7" x1="311.23" y1="240.44" x2="311.23" y2="426.82"/><line class="cls-7" x1="324.23" y1="240.44" x2="324.23" y2="426.82"/><line class="cls-7" x1="337.23" y1="240.44" x2="337.23" y2="426.82"/><line class="cls-7" x1="350.24" y1="240.44" x2="350.24" y2="426.82"/><line class="cls-7" x1="363.24" y1="240.44" x2="363.24" y2="426.82"/><line class="cls-7" x1="376.24" y1="240.44" x2="376.24" y2="426.82"/><line class="cls-7" x1="389.24" y1="240.44" x2="389.24" y2="426.82"/><line class="cls-7" x1="402.24" y1="240.44" x2="402.24" y2="426.82"/><line class="cls-7" x1="415.24" y1="240.44" x2="415.24" y2="426.82"/><line class="cls-7" x1="428.25" y1="240.44" x2="428.25" y2="426.82"/><line class="cls-7" x1="441.25" y1="240.44" x2="441.25" y2="426.82"/><line class="cls-7" x1="454.25" y1="240.44" x2="454.25" y2="426.82"/><line class="cls-7" x1="467.25" y1="240.44" x2="467.25" y2="426.82"/><line class="cls-7" x1="480.25" y1="240.44" x2="480.25" y2="426.82"/><line class="cls-7" x1="493.25" y1="240.44" x2="493.25" y2="426.82"/><rect class="cls-8" x="294.81" y="111.74" width="173.28" height="8.17"/><path class="cls-8" d="M438.45,109.59h0a8.11,8.11,0,0,1-6.72-4.32A15.63,15.63,0,0,1,430,97.75a10.08,10.08,0,0,1,1.43-6.14,5.33,5.33,0,0,1,3.44-2.13,3.93,3.93,0,0,1,3,.68l-1.2,1.62a1.9,1.9,0,0,0-1.49-.31,3.3,3.3,0,0,0-2.12,1.31A8.21,8.21,0,0,0,432,97.7a13.62,13.62,0,0,0,1.45,6.58,6,6,0,0,0,5,3.29h0a7.68,7.68,0,0,0,3.51-1l.92,1.79A9.92,9.92,0,0,1,438.45,109.59Z" transform="translate(0.06 -0.02)"/><path class="cls-8" d="M456.42,85,456,88l-.42,2.65-.09.54-.55,3.43-.43,2.66-.37,2.31-.18,1.1h0l-.42,2.65-.65,4v0l-.41,2.63-.26,1.59L439.1,112l0-.33-.4-3-.15-1.07-.14-1-.41-3h0l-.29-2.11-.4-3v-.12l-.27-2-.42-3.08-.28-2.1-.2-1.45-.22-1.61L435.6,86l-.08-.56a4.23,4.23,0,0,0,.84,0c.18,0,.39,0,.63,0l2.54,0h.12l4.77-.1,3.32-.08h.51l4.62-.12h0l2,0,1.3,0Z" transform="translate(0.06 -0.02)"/><path class="cls-9" d="M455,85.2c0,.55-4.12,1.12-9.22,1.27s-9.27-.16-9.28-.72c0-.11.15-.21.45-.31,3.82,0,14-.3,17.9-.41C455,85.08,455,85.14,455,85.2Z" transform="translate(0.06 -0.02)"/><path class="cls-8" d="M412.8,109.59h0a8.08,8.08,0,0,1-6.71-4.32,15.51,15.51,0,0,1-1.71-7.52,10.07,10.07,0,0,1,1.42-6.14,5.33,5.33,0,0,1,3.44-2.13,3.92,3.92,0,0,1,3,.68L411,91.78a1.92,1.92,0,0,0-1.5-.31,3.35,3.35,0,0,0-2.12,1.31,8.36,8.36,0,0,0-1.05,4.92,13.74,13.74,0,0,0,1.45,6.58,6,6,0,0,0,5,3.29h0a7.65,7.65,0,0,0,3.51-1l.93,1.79A10,10,0,0,1,412.8,109.59Z" transform="translate(0.06 -0.02)"/><path class="cls-8" d="M430.77,85l-.48,3-.42,2.65-.09.54-.55,3.43-.42,2.66-.38,2.31-.18,1.1h0l-.43,2.65-.64,4v0l-.42,2.63-.25,1.59-13.08.39,0-.33-.4-3-.14-1.07-.15-1-.41-3h0l-.28-2.11-.41-3v-.12l-.27-2-.42-3.08-.28-2.1-.19-1.45-.22-1.61-.28-2.1-.08-.56a4.3,4.3,0,0,0,.84,0c.18,0,.39,0,.64,0l2.53,0H414l4.78-.1,3.31-.08h.51l4.62-.12h0l2,0,1.3,0Z" transform="translate(0.06 -0.02)"/><path class="cls-9" d="M429.38,85.2c0,.55-4.11,1.12-9.22,1.27s-9.26-.16-9.28-.72c0-.11.16-.21.46-.31,3.81,0,14-.3,17.9-.41C429.33,85.08,429.38,85.14,429.38,85.2Z" transform="translate(0.06 -0.02)"/><path class="cls-8" d="M387.14,109.59h0a8.09,8.09,0,0,1-6.71-4.32,15.63,15.63,0,0,1-1.71-7.52,10.08,10.08,0,0,1,1.43-6.14,5.31,5.31,0,0,1,3.44-2.13,3.93,3.93,0,0,1,3,.68l-1.2,1.62a1.92,1.92,0,0,0-1.5-.31,3.35,3.35,0,0,0-2.12,1.31,8.36,8.36,0,0,0-1.05,4.92,13.61,13.61,0,0,0,1.46,6.58,6,6,0,0,0,5,3.29h0a7.69,7.69,0,0,0,3.52-1l.92,1.79A10,10,0,0,1,387.14,109.59Z" transform="translate(0.06 -0.02)"/><path class="cls-8" d="M405.11,85l-.47,3-.43,2.65-.08.54-.55,3.43-.43,2.66-.37,2.31-.18,1.1h0l-.43,2.65-.64,4v0l-.42,2.63-.25,1.59-13.08.39,0-.33-.4-3-.14-1.07-.14-1-.42-3h0l-.28-2.11-.4-3,0-.12-.27-2-.41-3.08-.29-2.1-.19-1.45-.22-1.61-.28-2.1-.07-.56a4.16,4.16,0,0,0,.83,0c.19,0,.4,0,.64,0l2.54,0h.12l4.77-.1,3.31-.08h.52l4.62-.12h0l2,0,1.3,0Z" transform="translate(0.06 -0.02)"/><path class="cls-9" d="M403.73,85.2c0,.55-4.12,1.12-9.22,1.27s-9.27-.16-9.29-.72c0-.11.16-.21.46-.31,3.82,0,14-.3,17.9-.41A.26.26,0,0,1,403.73,85.2Z" transform="translate(0.06 -0.02)"/><path class="cls-8" d="M361.49,109.59h0a8.11,8.11,0,0,1-6.72-4.32A15.63,15.63,0,0,1,353,97.75a10.08,10.08,0,0,1,1.43-6.14,5.33,5.33,0,0,1,3.44-2.13,3.93,3.93,0,0,1,3,.68l-1.2,1.62a1.9,1.9,0,0,0-1.49-.31,3.3,3.3,0,0,0-2.12,1.31,8.21,8.21,0,0,0-1.05,4.92,13.74,13.74,0,0,0,1.45,6.58,6,6,0,0,0,5,3.29h0a7.68,7.68,0,0,0,3.51-1l.92,1.79A9.91,9.91,0,0,1,361.49,109.59Z" transform="translate(0.06 -0.02)"/><path class="cls-8" d="M379.45,85,379,88l-.42,2.65-.09.54-.55,3.43-.43,2.66-.37,2.31-.18,1.1h0l-.42,2.65-.65,4v0l-.41,2.63-.26,1.59-13.07.39,0-.33-.4-3-.15-1.07-.14-1-.41-3h0l-.29-2.11-.4-3v-.12l-.27-2-.42-3.08-.28-2.1-.2-1.45-.22-1.61-.27-2.1-.08-.56a4.23,4.23,0,0,0,.84,0c.18,0,.39,0,.63,0l2.54,0h.12l4.77-.1,3.32-.08h.51l4.62-.12h0l2,0,1.3,0Z" transform="translate(0.06 -0.02)"/><path class="cls-9" d="M378.07,85.2c0,.55-4.12,1.12-9.22,1.27s-9.27-.16-9.28-.72c0-.11.15-.21.45-.31,3.82,0,14-.3,17.9-.41C378,85.08,378.07,85.14,378.07,85.2Z" transform="translate(0.06 -0.02)"/><path class="cls-8" d="M335.83,109.59h0a8.09,8.09,0,0,1-6.71-4.32,15.51,15.51,0,0,1-1.71-7.52,10.07,10.07,0,0,1,1.42-6.14,5.33,5.33,0,0,1,3.44-2.13,3.92,3.92,0,0,1,3,.68l-1.19,1.62a1.92,1.92,0,0,0-1.5-.31,3.35,3.35,0,0,0-2.12,1.31,8.36,8.36,0,0,0-1.05,4.92,13.74,13.74,0,0,0,1.45,6.58,6,6,0,0,0,5,3.29h0a7.65,7.65,0,0,0,3.51-1l.93,1.79A10,10,0,0,1,335.83,109.59Z" transform="translate(0.06 -0.02)"/><path class="cls-8" d="M353.8,85l-.48,3-.42,2.65-.09.54-.55,3.43-.42,2.66-.38,2.31-.17,1.1h0l-.43,2.65-.64,4v0L349.8,110l-.25,1.59-13.08.39,0-.33-.4-3-.14-1.07-.15-1-.41-3h0l-.28-2.11-.41-3v-.12l-.27-2-.42-3.08-.28-2.1-.19-1.45-.22-1.61L333,86l-.08-.56a4.37,4.37,0,0,0,.84,0c.18,0,.39,0,.64,0l2.53,0H337l4.78-.1,3.31-.08h.51l4.62-.12h0l2,0,1.3,0Z" transform="translate(0.06 -0.02)"/><path class="cls-9" d="M352.41,85.2c0,.55-4.11,1.12-9.22,1.27s-9.26-.16-9.28-.72c0-.11.16-.21.46-.31,3.81,0,14-.3,17.9-.41C352.36,85.08,352.41,85.14,352.41,85.2Z" transform="translate(0.06 -0.02)"/><path class="cls-8" d="M310.17,109.59h0a8.09,8.09,0,0,1-6.71-4.32,15.63,15.63,0,0,1-1.71-7.52,10.08,10.08,0,0,1,1.43-6.14,5.31,5.31,0,0,1,3.44-2.13,3.93,3.93,0,0,1,3,.68l-1.2,1.62a1.92,1.92,0,0,0-1.5-.31,3.35,3.35,0,0,0-2.12,1.31,8.36,8.36,0,0,0-1.05,4.92,13.61,13.61,0,0,0,1.46,6.58,6,6,0,0,0,5,3.29h0a7.69,7.69,0,0,0,3.52-1l.92,1.79A10,10,0,0,1,310.17,109.59Z" transform="translate(0.06 -0.02)"/><path class="cls-8" d="M328.14,85l-.47,3-.43,2.65-.08.54-.55,3.43-.43,2.66-.37,2.31-.18,1.1h0l-.43,2.65-.64,4v0l-.41,2.63-.26,1.59-13.08.39,0-.33-.4-3-.14-1.07-.14-1-.42-3h0l-.28-2.11-.4-3,0-.12-.27-2-.41-3.08-.29-2.1-.19-1.45-.22-1.61-.27-2.1-.08-.56a4.16,4.16,0,0,0,.83,0c.19,0,.4,0,.64,0l2.54,0h.12l4.77-.1,3.31-.08H320l4.62-.12h0l2,0,1.3,0Z" transform="translate(0.06 -0.02)"/><path class="cls-9" d="M326.76,85.2c0,.55-4.12,1.12-9.22,1.27s-9.27-.16-9.28-.72c0-.11.15-.21.45-.31,3.82,0,14-.3,17.9-.41A.26.26,0,0,1,326.76,85.2Z" transform="translate(0.06 -0.02)"/><rect class="cls-8" x="293.79" y="164.51" width="173.28" height="8.17"/><path class="cls-8" d="M438.45,162h0a8.1,8.1,0,0,1-6.72-4.31,15.64,15.64,0,0,1-1.71-7.53,10.11,10.11,0,0,1,1.43-6.14,5.37,5.37,0,0,1,3.44-2.13,4,4,0,0,1,3,.68l-1.2,1.62a2,2,0,0,0-1.49-.31,3.3,3.3,0,0,0-2.12,1.31,8.26,8.26,0,0,0-1.05,4.93,13.62,13.62,0,0,0,1.45,6.58,6.06,6.06,0,0,0,5,3.29h0a7.72,7.72,0,0,0,3.51-1.06l.92,1.79A9.92,9.92,0,0,1,438.45,162Z" transform="translate(0.06 -0.02)"/><path class="cls-8" d="M456.42,137.43l-.47,3-.42,2.66-.09.53-.55,3.43-.43,2.67-.37,2.3-.18,1.11h0l-.42,2.65-.65,4v0l-.41,2.62-.26,1.59-13.07.39,0-.33-.4-3-.15-1.06-.14-1.06L438,156h0l-.29-2.1-.4-3v-.12l-.27-2-.42-3.08-.28-2.11-.2-1.44-.22-1.61-.27-2.11-.08-.56a4.62,4.62,0,0,0,.84,0H437l2.54,0h.12l4.77-.1,3.32-.08.51,0,4.62-.12h0l2,0,1.3,0Z" transform="translate(0.06 -0.02)"/><path class="cls-9" d="M455,137.62c0,.56-4.12,1.13-9.22,1.28s-9.27-.17-9.28-.72c0-.11.15-.22.45-.32,3.82,0,14-.3,17.9-.4C455,137.51,455,137.56,455,137.62Z" transform="translate(0.06 -0.02)"/><path class="cls-8" d="M412.8,162h0a8.07,8.07,0,0,1-6.71-4.31,15.53,15.53,0,0,1-1.71-7.53,10.1,10.1,0,0,1,1.42-6.14,5.37,5.37,0,0,1,3.44-2.13,4,4,0,0,1,3,.68L411,144.2a2,2,0,0,0-1.5-.31,3.35,3.35,0,0,0-2.12,1.31,8.41,8.41,0,0,0-1.05,4.93,13.74,13.74,0,0,0,1.45,6.58,6.09,6.09,0,0,0,5,3.29h0a7.68,7.68,0,0,0,3.51-1.06l.93,1.79A10,10,0,0,1,412.8,162Z" transform="translate(0.06 -0.02)"/><path class="cls-8" d="M430.77,137.43l-.48,3-.42,2.66-.09.53-.55,3.43-.42,2.67-.38,2.3-.18,1.11h0l-.43,2.65-.64,4v0l-.42,2.62-.25,1.59-13.08.39,0-.33-.4-3-.14-1.06-.15-1.06L412.3,156h0l-.28-2.1-.41-3v-.12l-.27-2-.42-3.08-.28-2.11-.19-1.44-.22-1.61-.28-2.11-.08-.56a4.72,4.72,0,0,0,.84,0h.64l2.53,0H414l4.78-.1,3.31-.08.51,0,4.62-.12h0l2,0,1.3,0Z" transform="translate(0.06 -0.02)"/><path class="cls-9" d="M429.38,137.62c0,.56-4.11,1.13-9.22,1.28s-9.26-.17-9.28-.72c0-.11.16-.22.46-.32,3.81,0,14-.3,17.9-.4C429.33,137.51,429.38,137.56,429.38,137.62Z" transform="translate(0.06 -0.02)"/><path class="cls-8" d="M387.14,162h0a8.08,8.08,0,0,1-6.71-4.31,15.64,15.64,0,0,1-1.71-7.53,10.11,10.11,0,0,1,1.43-6.14,5.35,5.35,0,0,1,3.44-2.13,4,4,0,0,1,3,.68l-1.2,1.62a2,2,0,0,0-1.5-.31,3.35,3.35,0,0,0-2.12,1.31,8.41,8.41,0,0,0-1.05,4.93,13.61,13.61,0,0,0,1.46,6.58,6.06,6.06,0,0,0,5,3.29h0a7.72,7.72,0,0,0,3.52-1.06l.92,1.79A10,10,0,0,1,387.14,162Z" transform="translate(0.06 -0.02)"/><path class="cls-8" d="M405.11,137.43l-.47,3-.43,2.66-.08.53-.55,3.43-.43,2.67-.37,2.3-.18,1.11h0l-.43,2.65-.64,4v0l-.42,2.62-.25,1.59-13.08.39,0-.33-.4-3-.14-1.06-.14-1.06-.42-3.05h0l-.28-2.1-.4-3,0-.12-.27-2-.41-3.08-.29-2.11-.19-1.44-.22-1.61-.28-2.11-.07-.56a4.55,4.55,0,0,0,.83,0h.64l2.54,0h.12l4.77-.1,3.31-.08.52,0,4.62-.12h0l2,0,1.3,0Z" transform="translate(0.06 -0.02)"/><path class="cls-9" d="M403.73,137.62c0,.56-4.12,1.13-9.22,1.28s-9.27-.17-9.29-.72c0-.11.16-.22.46-.32,3.82,0,14-.3,17.9-.4C403.67,137.51,403.72,137.56,403.73,137.62Z" transform="translate(0.06 -0.02)"/><path class="cls-8" d="M361.49,162h0a8.1,8.1,0,0,1-6.72-4.31,15.64,15.64,0,0,1-1.71-7.53,10.11,10.11,0,0,1,1.43-6.14,5.37,5.37,0,0,1,3.44-2.13,4,4,0,0,1,3,.68l-1.2,1.62a2,2,0,0,0-1.49-.31,3.3,3.3,0,0,0-2.12,1.31,8.26,8.26,0,0,0-1.05,4.93,13.74,13.74,0,0,0,1.45,6.58,6.08,6.08,0,0,0,5,3.29h0a7.72,7.72,0,0,0,3.51-1.06l.92,1.79A9.91,9.91,0,0,1,361.49,162Z" transform="translate(0.06 -0.02)"/><path class="cls-8" d="M379.45,137.43l-.47,3-.42,2.66-.09.53-.55,3.43-.43,2.67-.37,2.3-.18,1.11h0l-.42,2.65-.65,4v0l-.41,2.62L375.2,164l-13.07.39,0-.33-.4-3-.15-1.06L361.4,159,361,156h0l-.29-2.1-.4-3v-.12l-.27-2-.42-3.08-.28-2.11-.2-1.44-.22-1.61-.27-2.11-.08-.56a4.62,4.62,0,0,0,.84,0H360l2.54,0h.12l4.77-.1,3.32-.08.51,0,4.62-.12h0l2,0,1.3,0Z" transform="translate(0.06 -0.02)"/><path class="cls-9" d="M378.07,137.62c0,.56-4.12,1.13-9.22,1.28s-9.27-.17-9.28-.72c0-.11.15-.22.45-.32,3.82,0,14-.3,17.9-.4C378,137.51,378.07,137.56,378.07,137.62Z" transform="translate(0.06 -0.02)"/><path class="cls-8" d="M335.83,162h0a8.08,8.08,0,0,1-6.71-4.31,15.53,15.53,0,0,1-1.71-7.53,10.1,10.1,0,0,1,1.42-6.14,5.37,5.37,0,0,1,3.44-2.13,4,4,0,0,1,3,.68l-1.19,1.62a2,2,0,0,0-1.5-.31,3.35,3.35,0,0,0-2.12,1.31,8.41,8.41,0,0,0-1.05,4.93,13.74,13.74,0,0,0,1.45,6.58,6.09,6.09,0,0,0,5,3.29h0a7.68,7.68,0,0,0,3.51-1.06l.93,1.79A10,10,0,0,1,335.83,162Z" transform="translate(0.06 -0.02)"/><path class="cls-8" d="M353.8,137.43l-.48,3-.42,2.66-.09.53-.55,3.43-.42,2.67-.38,2.3-.17,1.11h0l-.43,2.65-.64,4v0l-.42,2.62-.25,1.59-13.08.39,0-.33-.4-3-.14-1.06-.15-1.06-.41-3.05h0l-.28-2.1-.41-3v-.12l-.27-2-.42-3.08-.28-2.11-.19-1.44-.22-1.61L333,138.4l-.08-.56a4.81,4.81,0,0,0,.84,0h.64l2.53,0H337l4.78-.1,3.31-.08.51,0,4.62-.12h0l2,0,1.3,0Z" transform="translate(0.06 -0.02)"/><path class="cls-9" d="M352.41,137.62c0,.56-4.11,1.13-9.22,1.28s-9.26-.17-9.28-.72c0-.11.16-.22.46-.32,3.81,0,14-.3,17.9-.4C352.36,137.51,352.41,137.56,352.41,137.62Z" transform="translate(0.06 -0.02)"/><path class="cls-8" d="M310.17,162h0a8.08,8.08,0,0,1-6.71-4.31,15.64,15.64,0,0,1-1.71-7.53,10.11,10.11,0,0,1,1.43-6.14,5.35,5.35,0,0,1,3.44-2.13,4,4,0,0,1,3,.68l-1.2,1.62a2,2,0,0,0-1.5-.31,3.35,3.35,0,0,0-2.12,1.31,8.41,8.41,0,0,0-1.05,4.93,13.61,13.61,0,0,0,1.46,6.58,6.06,6.06,0,0,0,5,3.29h0a7.72,7.72,0,0,0,3.52-1.06l.92,1.79A10,10,0,0,1,310.17,162Z" transform="translate(0.06 -0.02)"/><path class="cls-8" d="M328.14,137.43l-.47,3-.43,2.66-.08.53-.55,3.43-.43,2.67-.37,2.3-.18,1.11h0l-.43,2.65-.64,4v0l-.41,2.62-.26,1.59-13.08.39,0-.33-.4-3-.14-1.06-.14-1.06-.42-3.05h0l-.28-2.1-.4-3,0-.12-.27-2-.41-3.08-.29-2.11-.19-1.44-.22-1.61-.27-2.11-.08-.56a4.55,4.55,0,0,0,.83,0h.64l2.54,0h.12l4.77-.1,3.31-.08.52,0,4.62-.12h0l2,0,1.3,0Z" transform="translate(0.06 -0.02)"/><path class="cls-9" d="M326.76,137.62c0,.56-4.12,1.13-9.22,1.28s-9.27-.17-9.28-.72c0-.11.15-.22.45-.32,3.82,0,14-.3,17.9-.4C326.7,137.51,326.75,137.56,326.76,137.62Z" transform="translate(0.06 -0.02)"/><rect class="cls-8" x="55.66" y="71.21" width="80.34" height="103.15"/><rect class="cls-10" x="62.81" y="78.51" width="66.04" height="89.37"/><path class="cls-8" d="M84.41,90.72c0,.58.17.89.59.89.82,0,1.77-1.64,1.77-3.78,0-1.44-.61-2.62-2-2.62a2.13,2.13,0,0,0-2.25,2.41,2.43,2.43,0,0,0,.57,1.65c.12,0,.16,0,.16.15,0,.28-.27.63-.51.63a.24.24,0,0,1-.16,0,3.18,3.18,0,0,1-.89-2.32,3.05,3.05,0,0,1,3.11-3.3c2,0,2.85,1.65,2.85,3.37,0,3-1.51,4.69-2.68,4.69-1,0-1.37-.64-1.37-1.78V86.57a2.6,2.6,0,0,0,0-.34c0-.11.13-.18.28-.18.35,0,.6.21.6.47Z" transform="translate(0.06 -0.02)"/><path class="cls-8" d="M89.11,91a1,1,0,0,0,1,.67c.84,0,1.18-.7,1.31-1.35.09-.48.69-.27.65.11A2,2,0,0,1,90,92.33a2,2,0,0,1-1.89-2.12c0-1.35.81-2.37,1.63-2.37a1,1,0,0,1,1,1.08A2.19,2.19,0,0,1,89.11,91ZM89,90.38a1.57,1.57,0,0,0,.88-1.45c0-.23-.09-.37-.23-.37-.52,0-.68,1.17-.66,1.62C89,90.25,89,90.31,89,90.38Z" transform="translate(0.06 -0.02)"/><path class="cls-8" d="M91.4,90.35a16.81,16.81,0,0,1,.52-1.64.86.86,0,0,1-.17-.5c0-.37.62-.85.91-.85s.38.2.38.48a2.06,2.06,0,0,1-.26.73c.51.89,1.16,1.27,1.16,2.29a1.26,1.26,0,0,1-.06.38,1.13,1.13,0,0,0,.88-.77c.07-.2.15-.29.25-.29s.38.28.38.43a1.47,1.47,0,0,1-.49.82,2.44,2.44,0,0,1-1.43.52,1.59,1.59,0,0,1-1,.38,2,2,0,0,1-1.17-.45c-.53-.5-.24-1.07,0-1.07s1.18.62,1.71.62a1,1,0,0,0,.24-.65,2.18,2.18,0,0,0-.77-1.51,10.48,10.48,0,0,0-.42,1.3C91.9,91,91.31,90.72,91.4,90.35Z" transform="translate(0.06 -0.02)"/><path class="cls-8" d="M94.8,90.35c.11-.47.33-1.08.52-1.64a.94.94,0,0,1-.17-.5c0-.37.62-.85.91-.85s.38.2.38.48a2.1,2.1,0,0,1-.25.73c.5.89,1.15,1.27,1.15,2.29a1.65,1.65,0,0,1,0,.38,1.12,1.12,0,0,0,.87-.77c.08-.2.15-.29.25-.29s.38.28.38.43a1.41,1.41,0,0,1-.49.82,2.44,2.44,0,0,1-1.43.52,1.57,1.57,0,0,1-1,.38,2,2,0,0,1-1.18-.45c-.52-.5-.24-1.07,0-1.07s1.19.62,1.72.62a1,1,0,0,0,.23-.65,2.17,2.17,0,0,0-.76-1.51,9,9,0,0,0-.42,1.3C95.3,91,94.71,90.72,94.8,90.35Z" transform="translate(0.06 -0.02)"/><path class="cls-8" d="M99.09,91a1,1,0,0,0,1,.67c.84,0,1.18-.7,1.31-1.35.09-.48.69-.27.65.11A2,2,0,0,1,100,92.33a2,2,0,0,1-1.89-2.12c0-1.35.81-2.37,1.63-2.37a1,1,0,0,1,1,1.08A2.19,2.19,0,0,1,99.09,91ZM99,90.38a1.57,1.57,0,0,0,.88-1.45c0-.23-.09-.37-.23-.37-.52,0-.68,1.17-.66,1.62C99,90.25,99,90.31,99,90.38Z" transform="translate(0.06 -0.02)"/><path class="cls-8" d="M102.61,91.11a7,7,0,0,1,.54-2.36h-.93a8.69,8.69,0,0,1-.27,2c-.14.45-.69.06-.6-.3a9.73,9.73,0,0,0,.17-1.86.79.79,0,0,1-.46-.68.52.52,0,0,1,.54-.5.68.68,0,0,1,.67.57,4.24,4.24,0,0,0,.57,0h.55c.13,0,.56.36.52.6a10.78,10.78,0,0,0-.48,2.46c0,.3.13.58.42.58.49,0,.68-.69.77-1.16,0-.22.15-.32.26-.32a.47.47,0,0,1,.37.44s0,0,0,.07c-.19.71-.61,1.67-1.53,1.67A1.07,1.07,0,0,1,102.61,91.11Z" transform="translate(0.06 -0.02)"/><path class="cls-8" d="M104.66,87v-1.8c0-.31-.1-.33-.1-.41s.19-.12.34-.12a.51.51,0,0,1,.57.47v1.87c.66,0,1.4,0,2.13,0,.3-.32.2.71-.08.72-.85,0-1.48,0-2,0v3.38c0,.35.14.5.37.5.42,0,.62-.69.71-1.16,0-.22.15-.32.26-.32a.47.47,0,0,1,.37.44.26.26,0,0,1,0,.07c-.18.71-.61,1.67-1.53,1.67-.57,0-1-.34-1-1.19V87.75c-.47,0-.74,0-.74,0-.34,0-.53-.72-.22-.72Z" transform="translate(0.06 -0.02)"/><path class="cls-8" d="M106.58,90.35a17.05,17.05,0,0,1,.53-1.64.86.86,0,0,1-.17-.5c0-.37.61-.85.9-.85s.39.2.39.48a2.06,2.06,0,0,1-.26.73c.5.89,1.16,1.27,1.16,2.29a1.67,1.67,0,0,1-.06.38,1.15,1.15,0,0,0,.88-.77c.07-.2.15-.29.24-.29s.39.28.39.43a1.47,1.47,0,0,1-.49.82,2.45,2.45,0,0,1-1.44.52,1.55,1.55,0,0,1-1,.38,2,2,0,0,1-1.18-.45c-.52-.5-.23-1.07,0-1.07s1.19.62,1.72.62a1,1,0,0,0,.24-.65,2.18,2.18,0,0,0-.77-1.51,10.48,10.48,0,0,0-.42,1.3C107.09,91,106.5,90.72,106.58,90.35Z" transform="translate(0.06 -0.02)"/><path class="cls-8" d="M102.15,107.82H74.4a.76.76,0,0,1-.76-.76h0a.77.77,0,0,1,.76-.77h27.75a.77.77,0,0,1,.76.77h0A.76.76,0,0,1,102.15,107.82Z" transform="translate(0.06 -0.02)"/><path class="cls-8" d="M102.15,116.16H74.4a.76.76,0,0,1-.76-.76h0a.77.77,0,0,1,.76-.77h27.75a.77.77,0,0,1,.76.77h0A.76.76,0,0,1,102.15,116.16Z" transform="translate(0.06 -0.02)"/><path class="cls-8" d="M102.15,124.5H74.4a.76.76,0,0,1-.76-.76h0a.77.77,0,0,1,.76-.77h27.75a.77.77,0,0,1,.76.77h0A.76.76,0,0,1,102.15,124.5Z" transform="translate(0.06 -0.02)"/><path class="cls-8" d="M102.15,132.85H74.4a.77.77,0,0,1-.76-.77h0a.77.77,0,0,1,.76-.77h27.75a.77.77,0,0,1,.76.77h0A.77.77,0,0,1,102.15,132.85Z" transform="translate(0.06 -0.02)"/><path class="cls-8" d="M102.15,141.19H74.4a.77.77,0,0,1-.76-.77h0a.77.77,0,0,1,.76-.77h27.75a.77.77,0,0,1,.76.77h0A.77.77,0,0,1,102.15,141.19Z" transform="translate(0.06 -0.02)"/><path class="cls-8" d="M102.15,149.53H74.4a.77.77,0,0,1-.76-.77h0a.77.77,0,0,1,.76-.77h27.75a.77.77,0,0,1,.76.77h0A.77.77,0,0,1,102.15,149.53Z" transform="translate(0.06 -0.02)"/><rect class="cls-8" x="111.49" y="106.27" width="6.74" height="1.53" rx="0.37"/><rect class="cls-8" x="111.49" y="114.61" width="6.74" height="1.53" rx="0.37"/><rect class="cls-8" x="111.49" y="122.95" width="6.74" height="1.53" rx="0.37"/><rect class="cls-8" x="111.49" y="131.29" width="6.74" height="1.53" rx="0.37"/><rect class="cls-8" x="111.49" y="139.63" width="6.74" height="1.53" rx="0.37"/><rect class="cls-8" x="111.49" y="147.97" width="6.74" height="1.53" rx="0.37"/><rect class="cls-8" x="158.12" y="71.21" width="80.34" height="103.15"/><rect class="cls-10" x="165.26" y="78.51" width="66.04" height="89.37"/><path class="cls-8" d="M189.67,90.72c0,.58.17.89.6.89.81,0,1.76-1.64,1.76-3.78,0-1.44-.61-2.62-2-2.62a2.13,2.13,0,0,0-2.24,2.41,2.45,2.45,0,0,0,.56,1.65c.12,0,.16,0,.16.15,0,.28-.26.63-.51.63a.27.27,0,0,1-.16,0,3.19,3.19,0,0,1-.88-2.32,3,3,0,0,1,3.1-3.3c2,0,2.86,1.65,2.86,3.37,0,3-1.51,4.69-2.69,4.69-1,0-1.36-.64-1.36-1.78V86.57a2.11,2.11,0,0,0-.05-.34c0-.11.13-.18.28-.18.35,0,.6.21.6.47Z" transform="translate(0.06 -0.02)"/><path class="cls-8" d="M194.84,91.11a7,7,0,0,1,.53-2.36h-.93a8.15,8.15,0,0,1-.27,2c-.14.45-.69.06-.6-.3a10.57,10.57,0,0,0,.18-1.86.78.78,0,0,1-.46-.68.51.51,0,0,1,.53-.5.67.67,0,0,1,.67.57,4.33,4.33,0,0,0,.57,0h.55c.13,0,.56.36.52.6a10.78,10.78,0,0,0-.48,2.46c0,.3.14.58.42.58.5,0,.68-.69.77-1.16,0-.22.15-.32.26-.32a.47.47,0,0,1,.37.44s0,0,0,.07c-.19.71-.61,1.67-1.52,1.67A1.07,1.07,0,0,1,194.84,91.11Z" transform="translate(0.06 -0.02)"/><path class="cls-8" d="M196.81,86.24a.65.65,0,1,1,1.29,0,.65.65,0,1,1-1.29,0Zm.89,4.89c0,.1,0,.5.27.5.43,0,.62-.69.72-1.16.13-.65.7-.15.62.19-.19.71-.61,1.67-1.53,1.67a.92.92,0,0,1-.9-1V88.47a2.6,2.6,0,0,0,0-.34c0-.1.13-.18.28-.18a.52.52,0,0,1,.58.47Z" transform="translate(0.06 -0.02)"/><path class="cls-8" d="M198.73,88.47a2.6,2.6,0,0,0,0-.34c0-.1.13-.18.27-.18.36,0,.58.21.58.47v.48c.29-.6.67-1.06,1.2-1.06.71,0,.88.59.88,1.08v2.21c0,.1,0,.5.28.5.43,0,.62-.69.72-1.16,0-.22.15-.32.25-.32a.48.48,0,0,1,.38.44.26.26,0,0,1,0,.07c-.18.71-.61,1.67-1.53,1.67a.92.92,0,0,1-.9-1V89.16c0-.33,0-.61-.22-.61s-1,.92-1.05,1.76v1.56c0,.2,0,.46-.3.46a.45.45,0,0,1-.51-.47Z" transform="translate(0.06 -0.02)"/><path class="cls-8" d="M202.58,85.45c0-.31-.1-.33-.1-.4s.19-.12.34-.12a.52.52,0,0,1,.58.47v3.33a1.75,1.75,0,0,1,1.25-.89c.66,0,.95.56.95,1.16a2.27,2.27,0,0,1-1,1.74c.11.46.34.89.76.89s.85-.68.95-1.15c.13-.65.7-.15.62.19-.19.58-.72,1.66-1.69,1.66s-1.4-1-1.4-1.67c0-.33,1-.67,1-1.65,0-.27-.14-.45-.35-.45s-.73.34-1.06,1.47v1.84c0,.2,0,.46-.3.46a.45.45,0,0,1-.52-.47Z" transform="translate(0.06 -0.02)"/><path class="cls-8" d="M206.31,90.35a16.81,16.81,0,0,1,.52-1.64.86.86,0,0,1-.17-.5c0-.37.62-.85.91-.85s.38.2.38.48a2.1,2.1,0,0,1-.25.73c.5.89,1.15,1.27,1.15,2.29a1.65,1.65,0,0,1,0,.38,1.12,1.12,0,0,0,.87-.77c.08-.2.15-.29.25-.29s.38.28.38.43a1.41,1.41,0,0,1-.49.82,2.44,2.44,0,0,1-1.43.52,1.59,1.59,0,0,1-1,.38,2,2,0,0,1-1.17-.45c-.52-.5-.24-1.07,0-1.07s1.18.62,1.72.62a1,1,0,0,0,.23-.65,2.14,2.14,0,0,0-.77-1.51,10.54,10.54,0,0,0-.41,1.3C206.81,91,206.22,90.72,206.31,90.35Z" transform="translate(0.06 -0.02)"/><path class="cls-8" d="M204.6,107.82H176.86a.77.77,0,0,1-.77-.76h0a.78.78,0,0,1,.77-.77H204.6a.77.77,0,0,1,.77.77h0A.76.76,0,0,1,204.6,107.82Z" transform="translate(0.06 -0.02)"/><path class="cls-8" d="M204.6,116.16H176.86a.77.77,0,0,1-.77-.76h0a.78.78,0,0,1,.77-.77H204.6a.77.77,0,0,1,.77.77h0A.76.76,0,0,1,204.6,116.16Z" transform="translate(0.06 -0.02)"/><path class="cls-8" d="M204.6,124.5H176.86a.77.77,0,0,1-.77-.76h0a.78.78,0,0,1,.77-.77H204.6a.77.77,0,0,1,.77.77h0A.76.76,0,0,1,204.6,124.5Z" transform="translate(0.06 -0.02)"/><path class="cls-8" d="M204.6,132.85H176.86a.78.78,0,0,1-.77-.77h0a.78.78,0,0,1,.77-.77H204.6a.77.77,0,0,1,.77.77h0A.77.77,0,0,1,204.6,132.85Z" transform="translate(0.06 -0.02)"/><path class="cls-8" d="M204.6,141.19H176.86a.78.78,0,0,1-.77-.77h0a.78.78,0,0,1,.77-.77H204.6a.77.77,0,0,1,.77.77h0A.77.77,0,0,1,204.6,141.19Z" transform="translate(0.06 -0.02)"/><path class="cls-8" d="M204.6,149.53H176.86a.78.78,0,0,1-.77-.77h0a.78.78,0,0,1,.77-.77H204.6a.77.77,0,0,1,.77.77h0A.77.77,0,0,1,204.6,149.53Z" transform="translate(0.06 -0.02)"/><rect class="cls-8" x="213.95" y="106.27" width="6.74" height="1.53" rx="0.37"/><rect class="cls-8" x="213.95" y="114.61" width="6.74" height="1.53" rx="0.37"/><rect class="cls-8" x="213.95" y="122.95" width="6.74" height="1.53" rx="0.37"/><rect class="cls-8" x="213.95" y="131.29" width="6.74" height="1.53" rx="0.37"/><rect class="cls-8" x="213.95" y="139.63" width="6.74" height="1.53" rx="0.37"/><rect class="cls-8" x="213.95" y="147.97" width="6.74" height="1.53" rx="0.37"/><line class="cls-11" x1="144.02" x2="144.02" y2="59.91"/><circle class="cls-12" cx="144.7" cy="78.98" r="10.89"/><path class="cls-13" d="M185.83,81.38h-82a15.32,15.32,0,0,1,15.32-15.32h51.4a15.32,15.32,0,0,1,15.32,15.32Z" transform="translate(0.06 -0.02)"/><path class="cls-13" d="M159.62,68.79h-30.3V45.47a15.15,15.15,0,0,1,15.15-15.15h0a15.15,15.15,0,0,1,15.15,15.15Z" transform="translate(0.06 -0.02)"/><line class="cls-11" x1="354.4" x2="354.4" y2="59.91"/><circle class="cls-12" cx="355.09" cy="78.98" r="10.89"/><path class="cls-13" d="M396.21,81.38h-82a15.32,15.32,0,0,1,15.32-15.32h51.4a15.32,15.32,0,0,1,15.32,15.32Z" transform="translate(0.06 -0.02)"/><path class="cls-13" d="M354.91,30.3h0a15.15,15.15,0,0,1,15.15,15.15V68.77a0,0,0,0,1,0,0h-30.3a0,0,0,0,1,0,0V45.45A15.15,15.15,0,0,1,354.91,30.3Z"/><path class="cls-14" d="M245.24,442.46c-1.4,1.61-3.93,1.53-6,.94a31,31,0,0,1-4.56-1.82,122.89,122.89,0,0,1-17.89-10.42c-2.39-1.68-4.84-3.6-5.84-6.35-.8-2.2-.54-4.63-.27-7q.54-4.83,1.1-9.66a2.37,2.37,0,0,1,.62-1.64,1.61,1.61,0,0,1,.66-.31l.45-.11c3.39-.61,8.87-3.41,12.11-1.89,1,.47.9,3.43.82,4.31a14.16,14.16,0,0,0-.13,1.66,14,14,0,0,0,1.32,5.66,25.12,25.12,0,0,0,2.15,3.54,89.44,89.44,0,0,0,12.21,14,15.27,15.27,0,0,1,3.48,4A4.66,4.66,0,0,1,245.24,442.46Z" transform="translate(0.06 -0.02)"/><path class="cls-15" d="M245.24,442.46c-1.4,1.61-3.93,1.53-6,.94a31,31,0,0,1-4.56-1.82,122.89,122.89,0,0,1-17.89-10.42c-2.39-1.68-4.84-3.6-5.84-6.35-.8-2.2-.54-4.63-.27-7q.54-4.83,1.1-9.66a2.37,2.37,0,0,1,.62-1.64,1.61,1.61,0,0,1,.66-.31,10.47,10.47,0,0,0,1,1,14,14,0,0,0,4.07,2.31,9,9,0,0,0,7.83-.7c.15-.09.3-.2.46-.29a14.16,14.16,0,0,0-.13,1.66,14,14,0,0,0,1.32,5.66c.11.23.22.46.35.68a2.53,2.53,0,0,0,.12.23c.5.9,1.09,1.78,1.68,2.63l0,0c.06.07.1.14.16.22.76,1.08,1.54,2.13,2.34,3.17a1.57,1.57,0,0,1,.17.21q2.29,2.94,4.82,5.67l.18.2c1.45,1.56,2.94,3.06,4.5,4.49a15.27,15.27,0,0,1,3.48,4A4.66,4.66,0,0,1,245.24,442.46Z" transform="translate(0.06 -0.02)"/><path class="cls-5" d="M228.13,416.78c-.59.15-1.18.33-1.76.54a9.3,9.3,0,0,0-4.27,2.87.14.14,0,0,1-.1.05.12.12,0,0,1-.09,0,.14.14,0,0,1,0-.18,9.68,9.68,0,0,1,4.39-3,14.39,14.39,0,0,1,1.73-.52A2.53,2.53,0,0,0,228.13,416.78Z" transform="translate(0.06 -0.02)"/><path class="cls-5" d="M230,419.68c-.32.09-.65.2-1,.31a9.45,9.45,0,0,0-4.27,2.88.14.14,0,0,1-.11.05l-.08,0a.13.13,0,0,1,0-.18,9.65,9.65,0,0,1,4.38-3c.31-.1.6-.21.9-.29C229.91,419.53,230,419.6,230,419.68Z" transform="translate(0.06 -0.02)"/><path class="cls-5" d="M232.52,423.06l-.3.1a9.46,9.46,0,0,0-4.27,2.89.15.15,0,0,1-.11,0l-.07,0a.12.12,0,0,1,0-.19,9.63,9.63,0,0,1,4.37-3l.23-.07A1.57,1.57,0,0,1,232.52,423.06Z" transform="translate(0.06 -0.02)"/><path class="cls-5" d="M237.52,428.93a16,16,0,0,0-5.19,4.17.14.14,0,0,1-.19,0,.15.15,0,0,1,0-.19,16.36,16.36,0,0,1,5.22-4.2Z" transform="translate(0.06 -0.02)"/><path class="cls-14" d="M245.51,445.05a3,3,0,0,1-.49.9l0,0c-1,.94-3,1.85-6.48,2.42-9.38,1.52-34.74-5.36-39.74-7.23a13,13,0,0,1-2.83-1.42,2.21,2.21,0,0,1-.29-.33,5.65,5.65,0,0,1-.77-3.29c0-.1,0-.21,0-.32,0-.33,0-.66.05-1,0-.1,0-.18,0-.27,0-.26,0-.51.07-.77s.08-.7.14-1.06c.24-1.78.61-3.59.88-5.07,0-.32.12-.67.19-1s.14-.74.23-1.14.16-.79.24-1.19c0-.13,0-.27.08-.41l.16-.72c.05-.24.11-.48.16-.71.23-1.07.45-2.09.65-3,.06-.31.12-.59.19-.85.22-1,.38-1.7.38-1.7l12.47.11,2.53,0a16.93,16.93,0,0,0,.78,2.24,8.68,8.68,0,0,0,.55,1.1,8,8,0,0,0,1.25,1.17l.3.25.72.58c.2.14.4.3.62.48.62.47,1.31,1,2.06,1.55.08.05.15.12.22.17,1.11.82,2.32,1.7,3.59,2.6a1.92,1.92,0,0,1,.21.16l3.44,2.41.24.16c1.6,1.1,3.2,2.18,4.65,3.13l.84.54c1.67,1.07,3.11,1.94,4.16,2.49l.48.25a14.47,14.47,0,0,1,2.07,1.24,18.55,18.55,0,0,1,5.15,5.39h0l.27.48c0,.1.09.18.13.27A6.65,6.65,0,0,1,245.51,445.05Z" transform="translate(0.06 -0.02)"/><path class="cls-15" d="M245.51,445.05a3,3,0,0,1-.49.9l0,0c-1,.94-3,1.85-6.48,2.42-9.38,1.52-34.74-5.36-39.74-7.23a13,13,0,0,1-2.83-1.42,2.21,2.21,0,0,1-.29-.33,5.65,5.65,0,0,1-.77-3.29c0-.1,0-.21,0-.32,0-.33,0-.66.05-1,0-.1,0-.18,0-.27,0-.26,0-.51.07-.77s.08-.7.14-1.06c.24-1.78.61-3.59.88-5.07,0-.32.12-.67.19-1s.14-.74.23-1.14.16-.79.24-1.19c0-.13,0-.27.08-.41l.16-.72c.05-.24.11-.48.16-.71.23-1.07.45-2.09.65-3,.06-.31.12-.59.19-.85a2.33,2.33,0,0,1,1.51-.15c2.68.58,5.18,1.65,7.95,2a14.24,14.24,0,0,0,3.06.14,6.33,6.33,0,0,0,3-.88,5.15,5.15,0,0,0,.68-.47,8.68,8.68,0,0,0,.55,1.1,8,8,0,0,0,1.25,1.17l.3.25.72.58c.2.14.4.3.62.48.62.47,1.31,1,2.06,1.55.08.05.15.12.22.17,1.11.82,2.32,1.7,3.59,2.6a1.92,1.92,0,0,1,.21.16l3.44,2.41.24.16c1.6,1.1,3.2,2.18,4.65,3.13l.84.54c1.67,1.07,3.11,1.94,4.16,2.49l.48.25a14.47,14.47,0,0,1,2.07,1.24,23.56,23.56,0,0,1,5.45,5.15l0,0a3.05,3.05,0,0,0,.22.32.41.41,0,0,1,.07.11l.09.13,0,0A2.33,2.33,0,0,1,245.51,445.05Z" transform="translate(0.06 -0.02)"/><path class="cls-5" d="M245.38,443.32l0,0a2.71,2.71,0,0,1-.3.39,4.51,4.51,0,0,1-1.67,1,17,17,0,0,1-5.82.76h-.41a122.33,122.33,0,0,1-29-3.89,51.68,51.68,0,0,1-8.59-2.82h0l-.17-.08a24.15,24.15,0,0,1-4.48-2.61c0-.1,0-.21,0-.32a23.33,23.33,0,0,0,4.5,2.65,1.57,1.57,0,0,0,.26.12h0a52.65,52.65,0,0,0,8.54,2.8,121.82,121.82,0,0,0,29,3.88,17.11,17.11,0,0,0,6.14-.76,4,4,0,0,0,1.63-1.05,1.74,1.74,0,0,0,.29-.38.41.41,0,0,1,.07.11Z" transform="translate(0.06 -0.02)"/><path class="cls-5" d="M199.65,438.58c0,.08,0,.16,0,.25h-.27v-.07a2.66,2.66,0,0,0,0-.28,28.59,28.59,0,0,0-2.68-14.19c0-.13,0-.27.08-.41A28.83,28.83,0,0,1,199.65,438.58Z" transform="translate(0.06 -0.02)"/><path class="cls-5" d="M219.83,424.6a15.13,15.13,0,0,0-5.06,5.9.13.13,0,0,1-.12.07h-.06a.13.13,0,0,1-.06-.18,15.56,15.56,0,0,1,5.08-5.95C219.69,424.48,219.76,424.55,219.83,424.6Z" transform="translate(0.06 -0.02)"/><path class="cls-5" d="M223.63,427.36a23.19,23.19,0,0,0-4.95,4.79.1.1,0,0,1-.1.06s-.06,0-.08,0a.14.14,0,0,1,0-.19,22.76,22.76,0,0,1,4.95-4.8A1.92,1.92,0,0,1,223.63,427.36Z" transform="translate(0.06 -0.02)"/><path class="cls-5" d="M227.31,429.93a22.54,22.54,0,0,0-4.21,4.24.14.14,0,0,1-.11.05.11.11,0,0,1-.07,0,.13.13,0,0,1,0-.18,23,23,0,0,1,4.18-4.24Z" transform="translate(0.06 -0.02)"/><polygon class="cls-12" points="190.62 334.79 196.78 416.77 213.39 417.04 227.05 335.86 190.62 334.79"/><path class="cls-12" d="M250.83,337.23a57.1,57.1,0,0,1-2.68,13.39c-2.41,7.5-20.63,56.52-20.63,56.52l-13.39-1.07,6.16-70.72Z" transform="translate(0.06 -0.02)"/><line class="cls-16" x1="215.09" y1="406.05" x2="229.2" y2="336.04"/><path class="cls-16" d="M198,334.81q0,41,1.39,82" transform="translate(0.06 -0.02)"/><path class="cls-14" d="M274.27,206.23s7.52-.48,11-1.16,5.85-1.39,5.85-1.39,2.27-4.69,4.28-5.09,20.85-1.29,20.85-1.29-4.73,6.34-5.8,7.94-8,7-8.48,7.42-26,4.55-26,4.55Z" transform="translate(0.06 -0.02)"/><path class="cls-17" d="M293.69,205.78s2.08-2,2.68-2.77c1.07-1.34,2.14-3.93,2.95-4.64" transform="translate(0.06 -0.02)"/><path class="cls-17" d="M303.47,207s3.22-3.81,4.15-5.22,2.5-3.91,2.5-3.91" transform="translate(0.06 -0.02)"/><path class="cls-17" d="M299.45,205.89s3.22-3.82,4.15-5.22,1.7-2.61,1.7-2.61" transform="translate(0.06 -0.02)"/><path class="cls-18" d="M237.53,144.08s6.6-4.65,11.6.89,6.25,28.57,6.08,38-.36,17.14-.36,17.14l18.93,3.22,2.32,14.47s-30.31,6.83-35.85,3.79S235,203,235,203Z" transform="translate(0.06 -0.02)"/><line class="cls-17" x1="251.79" y1="199.69" x2="273.84" y2="203.35"/><line class="cls-16" x1="269.38" y1="202.59" x2="271.66" y2="218.8"/><path class="cls-16" d="M240.54,209.33a5,5,0,0,1,2.48,2.33c2.1,3.26,3.86,6.94,3.8,10.82" transform="translate(0.06 -0.02)"/><rect class="cls-13" x="263.09" y="194.68" width="73.69" height="3.77" rx="1.69" transform="translate(-13.31 22.09) rotate(-4.13)"/><path class="cls-19" d="M305.87,165.26c-1.81-1.34-4.58-.4-5.89,1.43s-1.49,4.22-1.45,6.47a17.42,17.42,0,0,0,1.85,8.25,8.28,8.28,0,0,0,6.83,4.45,10.39,10.39,0,0,0,4.67-1.37" transform="translate(0.06 -0.02)"/><path class="cls-20" d="M328.24,158.28l-.55,3.51-.5,3.1-.1.63-.64,4-.5,3.11-.44,2.7-.21,1.29h0l-.49,3.11-.76,4.7v0l-.48,3.07-.3,1.86-15.29.45-.05-.38-.47-3.49-.16-1.24-.17-1.24-.48-3.56h0l-.34-2.47-.47-3.48v-.14l-.32-2.33-.48-3.6-.34-2.46-.23-1.69-.25-1.88-.32-2.47-.09-.65a6.28,6.28,0,0,0,1,0c.21,0,.45,0,.74,0l3,0h.14c1.63,0,3.58-.07,5.58-.12l3.87-.09.6,0,5.4-.14h0c.9,0,1.7,0,2.35-.06s1.23,0,1.52,0Z" transform="translate(0.06 -0.02)"/><path class="cls-18" d="M308.63,158.75c-1.47,1.06-2.94,2.1-4.42,3.14l-.32-2.47c.3-.19.6-.4.89-.62.21,0,.45,0,.74,0l3,0Z" transform="translate(0.06 -0.02)"/><path class="cls-18" d="M318.08,158.54q-6.48,4.72-13.05,9.38l-.34-2.46q4.79-3.39,9.52-6.83Z" transform="translate(0.06 -0.02)"/><path class="cls-18" d="M328,158.29c-6.2,4.57-13.29,9.52-20.15,14.31-.67.46-1.33.92-2,1.39v-.14l-.32-2.33,1.05-.74c5.92-4.12,12-8.37,17.52-12.4h0c.9,0,1.7,0,2.35-.06S327.68,158.3,328,158.29Z" transform="translate(0.06 -0.02)"/><path class="cls-18" d="M327.69,161.79l-.5,3.1c-6.33,4.69-13.83,10.23-20.54,15.05l-.34-2.47C313.42,172.35,321.3,166.51,327.69,161.79Z" transform="translate(0.06 -0.02)"/><path class="cls-18" d="M326.45,169.53l-.5,3.11c-5.72,4.19-12.25,8.91-18.49,13.35l-.16-1.24-.17-1.24C313.74,178.8,320.61,173.83,326.45,169.53Z" transform="translate(0.06 -0.02)"/><path class="cls-18" d="M325.3,176.64l-.49,3.11-1.11.82c-4,3-8.24,6.12-12.44,9.19l-3.28.1-.05-.38c4.82-3.52,9.84-7.25,14.46-10.69Z" transform="translate(0.06 -0.02)"/><path class="cls-18" d="M324.05,184.45v0l-.48,3.07c-.88.64-1.75,1.27-2.63,1.93l-3.91.11C319.38,187.88,321.72,186.18,324.05,184.45Z" transform="translate(0.06 -0.02)"/><path class="cls-9" d="M326.62,158.51c0,.65-4.81,1.31-10.78,1.49s-10.83-.19-10.85-.84c0-.13.18-.25.53-.37,4.46,0,16.39-.35,20.93-.47C326.56,158.37,326.62,158.44,326.62,158.51Z" transform="translate(0.06 -0.02)"/><path class="cls-20" d="M295.7,188.32l43-1.35s-3,7.07-22.1,7.07C298.06,194,295.7,188.32,295.7,188.32Z" transform="translate(0.06 -0.02)"/><g class="cls-21"><path class="cls-20" d="M295.7,188.32l43-1.35s-3,7.07-22.1,7.07C298.06,194,295.7,188.32,295.7,188.32Z" transform="translate(0.06 -0.02)"/></g><polygon class="cls-22" points="287.77 187.9 264.91 190.04 263.99 181.76 263.48 177.19 287.42 175.13 287.5 178.11 287.77 187.9"/><path class="cls-14" d="M287.44,178.13a2.07,2.07,0,0,1-.66.1c-1,0-1.91-.61-2.9-.57-1.51.05-2.6,1.56-4.08,1.89-1.93.42-4-1.25-5.79-.41-.81.38-1.4,1.22-2.27,1.4s-1.71-.39-2.57-.59a3.26,3.26,0,0,0-2.79.71c-.67.59-1.34,1.53-2.19,1.26a.87.87,0,0,1-.27-.14l-.5-4.57,23.93-2.06Z" transform="translate(0.06 -0.02)"/><polygon class="cls-14" points="264.38 184.77 287.51 183.17 287.42 180.84 264.11 182.9 264.38 184.77"/><path class="cls-14" d="M273.17,175.51a1.86,1.86,0,0,0,.63.39,3.15,3.15,0,0,0,2.09.21c2.16-.68,1.54-3.56-.36-4.12S271.74,174,273.17,175.51Z" transform="translate(0.06 -0.02)"/><path class="cls-23" d="M275.2,172.38a6.72,6.72,0,0,1,1.53-2.76" transform="translate(0.06 -0.02)"/><polygon class="cls-18" points="259.2 187.81 267.5 197.1 287.51 195.49 294.38 182.36 258.39 186.56 259.2 187.81"/><path class="cls-18" d="M241.72,211.05l2.14,39.65-64.56,3.48c1.61-12.05,5.63-43.39,5.09-57.86s2.14-25.46,8-33.5c2.68-3.66,7.82-8.15,12.6-12,.92-.73,1.84-1.43,2.71-2.12,4.57-3.49,8.27-6,8.27-6l25,2,8.5,22.88C249,181.85,241.72,211.05,241.72,211.05Z" transform="translate(0.06 -0.02)"/><path class="cls-15" d="M248.55,185.7l-3.12-.38c0-.14,1.74-14.91.18-24.93-1.49-9.62-9-16.12-9.1-16.18l2-2.41c.35.29,8.51,7.29,10.18,18.11C250.35,170.36,248.63,185.07,248.55,185.7Z" transform="translate(0.06 -0.02)"/><path class="cls-15" d="M249,184.26l-32.15,3.84c-6.31,12.61-11.68,25-19.44,36.79l-1.05,1.58a26.93,26.93,0,0,1-3.58,4.57,11.21,11.21,0,0,1-6.55,3c-.56.07-3.54.55-4.31-.16a.18.18,0,0,0-.29.1c-.9,4.89-6.57,36.48-6.57,59.9,0,25.45.8,40.45.8,40.45l78,3s-6.7-64.3-7.77-74.21-4.56-50.1-4.56-50.1Z" transform="translate(0.06 -0.02)"/><line class="cls-24" x1="176.15" y1="328.36" x2="252.5" y2="329.17"/><path class="cls-24" d="M191.63,257.66l22.77.27s-.27,30.27-12.33,29.47S191.63,257.66,191.63,257.66Z" transform="translate(0.06 -0.02)"/><line class="cls-24" x1="191.69" y1="261.66" x2="214.46" y2="261.66"/><path class="cls-24" d="M186.88,233.88a403,403,0,0,0-4,99.88" transform="translate(0.06 -0.02)"/><path class="cls-15" d="M222,188.41l-3.32-.08c.35-14.27-1-29.83-13.6-37.47.92-.73,1.84-1.43,2.71-2.12C221,157.48,222.31,174.43,222,188.41Z" transform="translate(0.06 -0.02)"/><path class="cls-16" d="M213.23,144.61a69.82,69.82,0,0,0,6.78,9c2.26,2.54,4.8,5,8,6.2s7.13.92,9.54-1.49a8,8,0,0,0,2.12-6.39,11.19,11.19,0,0,0-2.89-6.21" transform="translate(0.06 -0.02)"/><path class="cls-14" d="M224.18,274.4s-.94,14.74-1.08,16.61,9,8.44,10.45,8.71,12.86.94,12.46-.94-10-5.22-10.72-5.62a24.56,24.56,0,0,1-2.68-2.68L233.82,280s11,13.13,12.72,12.46-.53-8.84-2.14-11.25-8.57-13.93-8.57-13.93a9.72,9.72,0,0,0-8.17,2.14C224.18,272.66,224.18,274.4,224.18,274.4Z" transform="translate(0.06 -0.02)"/><path class="cls-16" d="M227.17,283.47s-.63,5.89-.18,7.32,6.52,6.16,7.14,7,9.65,1.78,11,2.05" transform="translate(0.06 -0.02)"/><path class="cls-16" d="M224,284.58s-.4,5.16.07,6.63,7.63,7.84,9,8.44" transform="translate(0.06 -0.02)"/><path class="cls-25" d="M249.88,270c-1.81-1.34-4.58-.4-5.89,1.43s-1.49,4.22-1.45,6.47a17.42,17.42,0,0,0,1.85,8.25,8.3,8.3,0,0,0,6.83,4.45,10.36,10.36,0,0,0,4.67-1.37" transform="translate(0.06 -0.02)"/><path class="cls-26" d="M272.26,263l-.56,3.5-.49,3.11-.1.62-.65,4-.49,3.11-.44,2.7-.21,1.29v0l-.5,3.1-.75,4.7v0l-.48,3.07-.3,1.86-15.3.46,0-.39-.47-3.49-.17-1.24-.17-1.23-.48-3.57h0l-.33-2.47-.47-3.48,0-.14-.32-2.33-.48-3.6-.34-2.47-.22-1.69-.26-1.87-.32-2.47-.09-.66a4.18,4.18,0,0,0,1,0c.21,0,.46,0,.74,0,.79,0,1.8,0,3,0h.14l5.58-.12,3.88-.09.6,0,5.4-.14h0l2.36-.06,1.52,0Z" transform="translate(0.06 -0.02)"/><path class="cls-18" d="M252.64,263.49c-1.46,1.06-2.94,2.1-4.42,3.14l-.32-2.47c.3-.2.6-.41.89-.63.21,0,.46,0,.74,0,.79,0,1.8,0,3,0Z" transform="translate(0.06 -0.02)"/><path class="cls-18" d="M262.1,263.28c-4.33,3.14-8.69,6.28-13.06,9.38l-.34-2.47q4.78-3.37,9.52-6.82Z" transform="translate(0.06 -0.02)"/><path class="cls-18" d="M272,263c-6.2,4.57-13.29,9.52-20.16,14.31-.67.46-1.33.92-2,1.39l0-.14-.32-2.33,1-.74c5.93-4.12,12-8.37,17.53-12.4h0l2.36-.06Z" transform="translate(0.06 -0.02)"/><path class="cls-18" d="M271.7,266.52l-.49,3.11c-6.33,4.69-13.84,10.23-20.55,15.05l-.33-2.47C257.43,277.09,265.32,271.25,271.7,266.52Z" transform="translate(0.06 -0.02)"/><path class="cls-18" d="M270.46,274.27l-.49,3.11c-5.72,4.19-12.25,8.91-18.49,13.35l-.17-1.24-.17-1.23C257.75,283.55,264.63,278.57,270.46,274.27Z" transform="translate(0.06 -0.02)"/><path class="cls-18" d="M269.32,281.39l-.5,3.1-1.1.82c-4,3-8.24,6.13-12.44,9.2l-3.29.1,0-.39c4.82-3.51,9.83-7.25,14.45-10.69Z" transform="translate(0.06 -0.02)"/><path class="cls-18" d="M268.07,289.19v0l-.48,3.07c-.88.64-1.76,1.28-2.63,1.93l-3.91.12Q264.57,291.77,268.07,289.19Z" transform="translate(0.06 -0.02)"/><path class="cls-9" d="M270.64,263.25c0,.65-4.82,1.31-10.79,1.49S249,264.55,249,263.9c0-.13.18-.25.53-.37,4.47,0,16.39-.35,20.94-.47C270.58,263.11,270.64,263.18,270.64,263.25Z" transform="translate(0.06 -0.02)"/><path class="cls-26" d="M237.75,292.57l48.08-1.51s-3.36,7.9-24.71,7.9C240.38,299,237.75,292.57,237.75,292.57Z" transform="translate(0.06 -0.02)"/><g class="cls-27"><path class="cls-26" d="M237.75,292.57l48.08-1.51s-3.36,7.9-24.71,7.9C240.38,299,237.75,292.57,237.75,292.57Z" transform="translate(0.06 -0.02)"/></g><path class="cls-18" d="M237,267.49c-6-.34-12.62,6.64-13.48,7.57l-.1.11s-1.2-1.66-3.15-4.32l-.16-.24L219,269.06a1,1,0,0,0-.16-.22c-5.5-7.6-14.67-20.33-20.1-28.3a.83.83,0,0,1-.08-.12l-.26-.39c-.07-.09-.12-.18-.18-.26-1.62-2.4-2.84-4.29-3.45-5.38a29.85,29.85,0,0,1-1.92-5c-1.56-5-3.25-12.21-4.61-18.6v0c-.08-.41-.18-.82-.26-1.23-.72-3.36-1.33-6.42-1.78-8.7a1,1,0,0,0,0-.22c-.46-2.38-.73-3.86-.73-3.86l.09-.07,30-18,.25-.16,0,0,.1,1,.64,6.77a2.15,2.15,0,0,0,0,.23l3.13,33.52,0,.27,0,.17L235,262.08l.09.24Z" transform="translate(0.06 -0.02)"/><path class="cls-15" d="M217.08,190.69a.12.12,0,0,1-.13-.12c0-.08-.82-8-2.28-16.87s-6.25-15.33-6.82-15.43a.12.12,0,0,1-.15-.1.13.13,0,0,1,.1-.16.34.34,0,0,1,.25.07c1,.65,5.47,7,6.88,15.58,1.46,8.87,2.27,16.8,2.28,16.88a.15.15,0,0,1-.12.15Z" transform="translate(0.06 -0.02)"/><path class="cls-15" d="M223.42,275.29a.13.13,0,0,1-.11-.05c-1.15-1.51-28.21-37-30-44s-8-34.19-8-34.47a.13.13,0,0,1,.1-.16.13.13,0,0,1,.15.1c.07.28,6.26,27.65,8,34.47s29.7,43.51,30,43.88a.15.15,0,0,1,0,.19A.13.13,0,0,1,223.42,275.29Z" transform="translate(0.06 -0.02)"/><path class="cls-15" d="M189.08,212.65a.13.13,0,0,1-.12-.08l-3.21-7.5a.13.13,0,0,1,.24-.1l3.21,7.5a.12.12,0,0,1-.07.17Z" transform="translate(0.06 -0.02)"/><path class="cls-15" d="M219.65,220.34c-3.28-.31-7.31-.32-7.94-.32a.12.12,0,0,1-.12-.13.13.13,0,0,1,.12-.13c.63,0,4.63,0,7.91.31Z" transform="translate(0.06 -0.02)"/><path class="cls-15" d="M220.16,270.92h-.06a.13.13,0,0,1-.06-.17c0-.11,1.16-2.5,7.69-5.7,6.3-3.08,7.22-3,7.34-3a.15.15,0,0,1,.08.18.15.15,0,0,1-.17.07s-.9-.11-7.13,2.94c-6.42,3.15-7.56,5.54-7.57,5.56A.14.14,0,0,1,220.16,270.92Z" transform="translate(0.06 -0.02)"/><path class="cls-15" d="M198.13,240.17a.18.18,0,0,1-.1,0,.15.15,0,0,1,0-.18,4.34,4.34,0,0,0,.88-2.13,15,15,0,0,0-3.58-12.54,7.21,7.21,0,0,0-4.11-2.52.12.12,0,0,1-.11-.15.11.11,0,0,1,.14-.11,7.41,7.41,0,0,1,4.27,2.6,15.21,15.21,0,0,1,3.64,12.77,5.83,5.83,0,0,1-.49,1.61.13.13,0,0,1,.17,0,.14.14,0,0,1,0,.19l-.6.44A.13.13,0,0,1,198.13,240.17Z" transform="translate(0.06 -0.02)"/><path class="cls-9" d="M206,127.93a10.12,10.12,0,0,0,3.08,4.82,8.61,8.61,0,0,1,1.7,2,7.94,7.94,0,0,0,.62,1.15c1,1.25,2.93.73,4.52.85,1.17.09,2.5.56,3.41-.18a3.2,3.2,0,0,0,.71-2.81c-.21-2.89-.49-5.79-.85-8.67a28.32,28.32,0,0,0-1.92-8.22,9.16,9.16,0,0,0-2.55-3.49c-2.67-2.09-8.7-1.79-9.44,2.27-.28,1.49.42,3.24.55,4.73C206.11,122.85,205.48,125.48,206,127.93Z" transform="translate(0.06 -0.02)"/><path class="cls-9" d="M252.26,106.12c.23.78.61,1.51.82,2.3a10.83,10.83,0,0,1-.05,4.09c-.2,1.39-.39,2.79-.59,4.18a4.51,4.51,0,0,1-.62,2,1.54,1.54,0,0,1-1.86.59,2.23,2.23,0,0,1-.88-1.62l-1.65-7.7-1.35-6.24c-.48-2.24.17-6,3.35-5.13S251.56,103.75,252.26,106.12Z" transform="translate(0.06 -0.02)"/><path class="cls-14" d="M217.65,132.35a114.44,114.44,0,0,1-1.56,11.37s10.72,15.89,17.15,13.93,1.43-12.86,1.43-12.86Z" transform="translate(0.06 -0.02)"/><path class="cls-14" d="M251.9,120.65a52.49,52.49,0,0,1-2,12.56,26.27,26.27,0,0,1-1.12,3.15c-1.57,3.75-4.06,7.16-7.8,8.41-9.23,3.13-19.68-4.86-23.42-12.83a31.51,31.51,0,0,1-.72-24.76c2.49-6.19,8-12.44,14.81-13.65a13.85,13.85,0,0,1,5.84.26c7.26,1.9,11.82,8.7,13.45,15.74.09.34.16.68.23,1,.13.67.24,1.36.34,2s.16,1.26.22,1.89c0,.34.06.68.08,1C251.93,117.2,252,118.92,251.9,120.65Z" transform="translate(0.06 -0.02)"/><path class="cls-9" d="M234,118.41a1.3,1.3,0,1,1-1.16-1.43A1.3,1.3,0,0,1,234,118.41Z" transform="translate(0.06 -0.02)"/><path class="cls-9" d="M248.16,119.58a1.31,1.31,0,1,1-1.16-1.43A1.32,1.32,0,0,1,248.16,119.58Z" transform="translate(0.06 -0.02)"/><path class="cls-28" d="M244.33,115a13.12,13.12,0,0,0-.57,8c.4,1.6,1.09,3.35.35,4.82-.62,1.26-2.07,1.84-3.39,2.32" transform="translate(0.06 -0.02)"/><path class="cls-9" d="M227.31,110.41a4.36,4.36,0,0,0-1.92,1.93,1.54,1.54,0,0,0,1.18,2,3,3,0,0,0,1.4-.29,31.64,31.64,0,0,1,7.17-1.71,1.7,1.7,0,0,0,1.09-.39,1.1,1.1,0,0,0,.22-.6,3.14,3.14,0,0,0-.75-2.51C233.4,106.43,229.38,109.11,227.31,110.41Z" transform="translate(0.06 -0.02)"/><path class="cls-9" d="M251.74,114.49a31.33,31.33,0,0,0-5-1,1.75,1.75,0,0,1-1.1-.39,1.17,1.17,0,0,1-.21-.6,3.11,3.11,0,0,1,.75-2.5c1.28-1.37,3.09-1.15,4.8-.46.09.34.16.68.23,1,.13.67.24,1.36.34,2S251.68,113.86,251.74,114.49Z" transform="translate(0.06 -0.02)"/><path class="cls-9" d="M221.12,111.87c.08-1.82-.46-3.72.17-5.44.48-1.29,1.59-2.45,1.44-3.81a6.88,6.88,0,0,1-.18-1.18,2.65,2.65,0,0,1,.46-1.18c.76-1.35,1.48-2.91,1-4.38a4.07,4.07,0,0,0-2.8-2.45,9.48,9.48,0,0,0-3.9-.13,24,24,0,0,0-4.29,1,5.65,5.65,0,0,0-3.53,2.42c-1,1.91.25,4.33-.64,6.28a10,10,0,0,1-2.17,2.48,6.37,6.37,0,0,0-2,3.93,29.69,29.69,0,0,0,.27,3.24,15.51,15.51,0,0,0,.11,3.67c.52,1.82,2.43,3,4.36,3.32C214.84,120.48,220.86,117.7,221.12,111.87Z" transform="translate(0.06 -0.02)"/><path class="cls-14" d="M218.4,122.66s-3.59-9-8.48-5.13S208.33,133,214,132.91,219.3,130,219.3,130Z" transform="translate(0.06 -0.02)"/><path class="cls-29" d="M216.26,123.11a13.49,13.49,0,0,0-1.82-2.36,4.81,4.81,0,0,0-1.41-1.09,2,2,0,0,0-1.71,0,2.59,2.59,0,0,0-1,1,6.36,6.36,0,0,0,1.15,8.08,3.21,3.21,0,0,0,2.34.94,4.5,4.5,0,0,0,2.39-1.34" transform="translate(0.06 -0.02)"/><path class="cls-29" d="M215.24,121.76a10.66,10.66,0,0,1-.66,3.81,8.9,8.9,0,0,1-.86,2.12,3.37,3.37,0,0,1-1.66,1.48" transform="translate(0.06 -0.02)"/><path class="cls-9" d="M217.09,121.79a4.52,4.52,0,0,0,1,1.58,1.07,1.07,0,0,0,1.43.15,2.54,2.54,0,0,0,.64-1.3,30.49,30.49,0,0,0,.76-6.72l.27-7.26a11.66,11.66,0,0,0-.22-3.55c-.3-1.13-1-2.13-1.94-2.17a2.17,2.17,0,0,0-1.78,1.28,9.13,9.13,0,0,0-.86,2.55C215.16,111.6,215.05,116.93,217.09,121.79Z" transform="translate(0.06 -0.02)"/><path class="cls-9" d="M227,99.38c1.65-.42,3-1.71,4.68-2,1.89-.37,3.8.55,5.38,1.67s3,2.49,4.82,3.19,4.14.53,5.29-1c.35-.47.56-1,.91-1.48,1-1.24,2.77-1.55,3.8-2.73a4.51,4.51,0,0,0,.94-2,9,9,0,0,0-.74-6.25A5.48,5.48,0,0,0,250.71,87c-1.34-1.09-3.21-1.15-4.94-1.21a31.5,31.5,0,0,1-8.43-1.14c-2.83-.88-5.47-2.45-8.4-2.91a12,12,0,0,0-9.43,2.68c-1.88,1.58-3.26,3.71-5.22,5.18a15.66,15.66,0,0,0-2.45,1.89,2.65,2.65,0,0,0-.62,2.85c.57,1.11,2,1.33,3.28,1.41,1.92.13,5.09-.29,6.72.92C223.13,98.1,224.12,100.1,227,99.38Z" transform="translate(0.06 -0.02)"/><path class="cls-18" d="M213.47,116.77a4.85,4.85,0,0,1,1.39.68,2.57,2.57,0,0,1,1.17.32c2.78,1.5,3.43,7.89,3.43,8l.94-.1c0-.28-.71-6.95-3.93-8.7A3.58,3.58,0,0,0,213.47,116.77Z" transform="translate(0.06 -0.02)"/><path class="cls-18" d="M212.32,132.6c1.66,1.87,4.37,2.06,5.94,2a8.51,8.51,0,0,0,1.23-.08l-.13-.92a13.09,13.09,0,0,1-4.74-.74,4.33,4.33,0,0,1-1.55-.12A2.23,2.23,0,0,1,212.32,132.6Z" transform="translate(0.06 -0.02)"/><path class="cls-30" d="M252.3,125.45s-5.07-4.33-14.68-4a76.16,76.16,0,0,0-18.45,3.2l-1.52,7.71s6,13.08,19.06,13.25S251.5,130.8,252.3,125.45Z" transform="translate(0.06 -0.02)"/><g class="cls-31"><path class="cls-32" d="M250,130.79a13.51,13.51,0,0,0-2.82-2,17.32,17.32,0,0,0-3.17-1.34,20,20,0,0,0-6.81-.75c-2.3,0-4.6.25-6.89.52s-4.58.6-6.86,1c2.26-.48,4.54-.88,6.84-1.17a69.27,69.27,0,0,1,6.91-.62,20.27,20.27,0,0,1,6.88.86A14.7,14.7,0,0,1,250,130.79Z" transform="translate(0.06 -0.02)"/></g><g class="cls-33"><path class="cls-32" d="M248.63,134.25a23.12,23.12,0,0,0-3-.95c-1-.27-2.06-.5-3.1-.71-2.08-.41-4.18-.69-6.29-.9s-4.22-.39-6.33-.51-4.24-.14-6.36-.18l3.18-.08,3.19.05c2.12.08,4.24.18,6.36.41s4.21.56,6.29,1A30,30,0,0,1,248.63,134.25Z" transform="translate(0.06 -0.02)"/></g><g class="cls-33"><path class="cls-32" d="M247.16,138.59a55.64,55.64,0,0,1-11.68-.35,46.71,46.71,0,0,1-5.73-1.22,28.06,28.06,0,0,1-5.39-2.26,32.24,32.24,0,0,0,5.46,2,52.77,52.77,0,0,0,5.7,1.15c1.93.27,3.86.44,5.8.55S245.21,138.64,247.16,138.59Z" transform="translate(0.06 -0.02)"/></g><path class="cls-32" d="M446,250.47A9.62,9.62,0,0,1,457,244.72c4.51,1,9.58,3.72,11.11,10.53,2.38,10.62-9.43,69.78-18.85,100.51a22.48,22.48,0,0,1-21.68,15.92c-21.8-.17-59.06-.64-62.08-1.77-4.28-1.61-6.16-11.25-.8-13.13,4.13-1.44,36.75-5.12,51.48-6.73a9.63,9.63,0,0,0,8.44-7.86C428.07,323.07,437.9,270.58,446,250.47Z" transform="translate(0.06 -0.02)"/><path class="cls-23" d="M462.33,246c.49,7.81-3.9,27.54-5.42,35.22q-6.54,33-14,65.74c-1.3,5.7-3,11.92-7.78,15.25-2.89,2-6.48,2.63-9.95,3.12-20.34,2.88-43.13,1.09-63.62-.25" transform="translate(0.06 -0.02)"/><path class="cls-14" d="M387,418.57c-1.42,2.75-22.8,19.93-28.7,23.57s-13.54,5.17-14.93,2.44,16.92-26.19,18.14-29.57a16.19,16.19,0,0,0,.74-4.94,18.1,18.1,0,0,0-.46-4.15l11.29-7.29s.81.89,2,2.32C379.25,405.74,388.11,416.46,387,418.57Z" transform="translate(0.06 -0.02)"/><path class="cls-34" d="M387,418.57c-1.42,2.75-22.8,19.93-28.7,23.57a26.66,26.66,0,0,1-9.69,3.68,8.49,8.49,0,0,1-1.08.12h0c-2,.14-3.59-.26-4.15-1.36-.83-1.63,5.32-10.59,10.69-18.3.05-.06.09-.13.14-.2,1.49-2.14,2.91-4.16,4.1-5.91.05-.07.1-.13.15-.21.68-1,1.28-1.9,1.77-2.67.05-.06.1-.14.15-.21a13.71,13.71,0,0,0,1.14-2.07c.11-.31.2-.63.28-.95a1,1,0,0,0,.06-.25,19,19,0,0,0,.4-3.74c1-.42,2.14-.67,3.14-1.13a24.56,24.56,0,0,0,9.36-7.54,3.28,3.28,0,0,1,.37-.45c1.08,1.26,2.48,2.93,4,4.74,0,.08.12.16.19.25a90.79,90.79,0,0,1,6.16,8.38h0c.05.08.1.14.14.22C386.73,416.43,387.36,417.91,387,418.57Z" transform="translate(0.06 -0.02)"/><path class="cls-35" d="M387,418.57c-1.42,2.75-22.8,19.93-28.7,23.57a26.66,26.66,0,0,1-9.69,3.68,8.49,8.49,0,0,1-1.08.12h0c-2,.14-3.59-.26-4.15-1.36-.83-1.63,5.32-10.59,10.69-18.3.05-.06.09-.13.14-.2,1.49-2.14,2.91-4.16,4.1-5.91.05-.07.1-.13.15-.21.68-1,1.28-1.9,1.77-2.67.05-.06.1-.14.15-.21a13.71,13.71,0,0,0,1.14-2.07c.11-.31.2-.63.28-.95a1,1,0,0,0,.06-.25,19,19,0,0,0,.4-3.74c1-.42,2.14-.67,3.14-1.13a24.56,24.56,0,0,0,9.36-7.54,3.28,3.28,0,0,1,.37-.45c1.08,1.26,2.48,2.93,4,4.74,0,.08.12.16.19.25a90.79,90.79,0,0,1,6.16,8.38h0c.05.08.1.14.14.22C386.73,416.43,387.36,417.91,387,418.57Z" transform="translate(0.06 -0.02)"/><path class="cls-5" d="M385.59,414.55c-.22.33-.45.64-.68.94-4.94,6.45-10.9,11.84-17.6,17.7-6.19,5.43-12,10.16-18.68,12.63q-.66.24-1.32.45c-.54.17-1.08.33-1.63.48l-.06-.24c.66-.17,1.29-.36,1.92-.57h0c6.21-2.05,11.56-6,17.12-10.78l.19-.17c.76-.64,1.52-1.3,2.29-2,4.15-3.64,8-7.1,11.54-10.73l.12-.13a82.83,82.83,0,0,0,5.91-6.81c.25-.32.5-.67.73-1C385.5,414.41,385.55,414.47,385.59,414.55Z" transform="translate(0.06 -0.02)"/><path class="cls-5" d="M379.29,405.94a40.12,40.12,0,0,0-.48,16.22.16.16,0,0,0,0,.1l-.14,0h-.11a40.27,40.27,0,0,1,.52-16.61C379.15,405.77,379.22,405.85,379.29,405.94Z" transform="translate(0.06 -0.02)"/><path class="cls-5" d="M364.91,435.05l-.2.16,0,0a39.2,39.2,0,0,0-7.61-7.17,14.4,14.4,0,0,0-3-1.71c.05-.06.09-.13.14-.2a13.46,13.46,0,0,1,3,1.72,39.34,39.34,0,0,1,7.67,7.19Z" transform="translate(0.06 -0.02)"/><path class="cls-5" d="M365.19,424.72a.1.1,0,0,1-.05,0,.13.13,0,0,1-.12,0c-1.94-1.71-4.12-3.64-6.7-4.56.05-.07.1-.13.15-.21a22.16,22.16,0,0,1,6.71,4.59A.11.11,0,0,1,365.19,424.72Z" transform="translate(0.06 -0.02)"/><path class="cls-5" d="M366.76,421.71l-.06,0a.14.14,0,0,1-.12,0,22.79,22.79,0,0,0-6.34-4.43c.05-.06.1-.14.15-.21a23.39,23.39,0,0,1,6.35,4.45A.13.13,0,0,1,366.76,421.71Z" transform="translate(0.06 -0.02)"/><path class="cls-5" d="M368.42,418.5s0,0-.05,0a.15.15,0,0,1-.13,0,22.2,22.2,0,0,0-6.43-4.45,1,1,0,0,0,.06-.25,22.29,22.29,0,0,1,6.53,4.52A.12.12,0,0,1,368.42,418.5Z" transform="translate(0.06 -0.02)"/><polygon class="cls-20" points="341 364.71 374.57 397.39 361.35 411.32 333.49 391.5 341 364.71"/><polygon class="cls-36" points="341 364.71 374.57 397.39 361.35 411.32 333.49 391.5 341 364.71"/><line class="cls-37" x1="339.21" y1="368.73" x2="371.98" y2="400.25"/><path class="cls-20" d="M373,317.94s-54.65,14.2-60.81,20.89-5.9,16.08-5.9,16.08-4.82,9.91-1.6,17.41,36.7,46.61,36.7,46.61l16.07-4.28-16.88-49.3s69.79,4,83.32-8c11.78-10.45,10.18-33.22,10.18-33.22Z" transform="translate(0.06 -0.02)"/><path class="cls-37" d="M375.94,321.42s-57.87,17.68-64,24.38-8.67,17.19-8.31,22.77c.54,8.17,37.78,50.36,37.78,50.36" transform="translate(0.06 -0.02)"/><path class="cls-37" d="M417.43,326.8c-1.15,5.62-2.49,11.6-6.63,15.57-3.22,3.09-7.68,4.48-12,5.53-18.75,4.55-38.45,4.64-56.93,10.19-3.87,1.17-8.21,3.12-9.18,7.05a10.2,10.2,0,0,0,.47,5.46c2,6.41,6.19,11.86,9.5,17.69,4.83,8.5,7.8,17.9,10.73,27.22" transform="translate(0.06 -0.02)"/><path class="cls-37" d="M397.9,325.79a49.61,49.61,0,0,0-5.54,23.4" transform="translate(0.06 -0.02)"/><path class="cls-14" d="M364,439.56c-2.32,2.32-29.46,12.86-36.61,14.64s-15.36.89-15.9-2.32S337,430.8,339.32,427.77a17.43,17.43,0,0,0,2.33-4.76,19.14,19.14,0,0,0,.87-4.35l13.77-3.75s.52,1.16,1.31,3C360.22,424.08,365.75,437.77,364,439.56Z" transform="translate(0.06 -0.02)"/><path class="cls-34" d="M364,439.56c-2.32,2.32-29.46,12.86-36.61,14.64a28.28,28.28,0,0,1-11,.62,8.07,8.07,0,0,1-1.13-.23h0c-2.11-.51-3.55-1.42-3.77-2.71-.31-1.92,8.79-9,16.7-15.08a1.66,1.66,0,0,1,.21-.16c2.19-1.69,4.28-3.29,6-4.67l.22-.17c1-.79,1.91-1.51,2.65-2.13l.22-.17a13.91,13.91,0,0,0,1.82-1.73,9.45,9.45,0,0,0,.59-.87c0-.07.09-.15.14-.23a20.11,20.11,0,0,0,1.6-3.66c1.16-.1,2.38,0,3.54-.14a26,26,0,0,0,11.9-4.62,3.48,3.48,0,0,1,.51-.34c.69,1.63,1.57,3.77,2.49,6.07,0,.1.07.2.11.31a97.46,97.46,0,0,1,3.55,10.46h0a2.61,2.61,0,0,1,.06.27C364.37,437.3,364.52,439,364,439.56Z" transform="translate(0.06 -0.02)"/><path class="cls-5" d="M363.81,435c-.32.27-.66.51-1,.74-7.07,4.94-14.82,8.48-23.49,12.26-8,3.51-15.36,6.45-23,6.79l-1.47,0c-.6,0-1.2,0-1.81,0l0-.26c.72,0,1.42.05,2.12,0h0c6.95-.07,13.64-2.4,20.79-5.41l.25-.11,3-1.27c5.37-2.35,10.4-4.6,15.12-7.15l.16-.1a86.92,86.92,0,0,0,8.17-5c.35-.24.72-.52,1.07-.8A2.61,2.61,0,0,1,363.81,435Z" transform="translate(0.06 -0.02)"/><path class="cls-5" d="M360.2,424.29a42.71,42.71,0,0,0-5.69,16.26.5.5,0,0,0,0,.12l-.14,0-.12,0A42.88,42.88,0,0,1,360.09,424C360.12,424.08,360.16,424.18,360.2,424.29Z" transform="translate(0.06 -0.02)"/><path class="cls-5" d="M336.31,449.15l-.25.09,0-.06a41.17,41.17,0,0,0-5.41-9.7,14.86,14.86,0,0,0-2.46-2.68,1.66,1.66,0,0,1,.21-.16,14.45,14.45,0,0,1,2.45,2.68,42.28,42.28,0,0,1,5.46,9.75Z" transform="translate(0.06 -0.02)"/><path class="cls-5" d="M339.91,438.78l-.06,0a.14.14,0,0,1-.12-.06c-1.42-2.36-3-5-5.32-6.77l.22-.17c2.33,1.81,3.9,4.43,5.32,6.8A.13.13,0,0,1,339.91,438.78Z" transform="translate(0.06 -0.02)"/><path class="cls-5" d="M342.46,436.23l-.07,0a.14.14,0,0,1-.12-.06,23.9,23.9,0,0,0-5-6.52l.22-.17a25.07,25.07,0,0,1,5,6.55A.14.14,0,0,1,342.46,436.23Z" transform="translate(0.06 -0.02)"/><path class="cls-5" d="M345.17,433.52l-.07,0a.14.14,0,0,1-.11-.07,24,24,0,0,0-5.08-6.57c0-.07.09-.15.14-.23a24.26,24.26,0,0,1,5.16,6.67A.13.13,0,0,1,345.17,433.52Z" transform="translate(0.06 -0.02)"/><polygon class="cls-38" points="326.32 207.38 328.72 265.01 308.91 273.35 303.29 210.66 326.32 207.38"/><path class="cls-39" d="M324.27,227.83c1.36-.6,7.74,6.65,8.88,8.18s3.38,8.46,3.83,10.23a10.55,10.55,0,0,0,1.47,3.15l22.23,13.78,10.94-29.86,13.3,5.42,0,21.72s-5.75,14.62-13.81,20.83-15.8-3.39-15.8-3.39l-22.37-21.51c-2.55,0-4.89-3.64-4.89-3.64l-.21-15.29s.42.62-1.2-2.14S322.9,228.44,324.27,227.83Z" transform="translate(0.06 -0.02)"/><path class="cls-40" d="M360.68,263.17s4.42,5,5.48,8.24" transform="translate(0.06 -0.02)"/><path class="cls-38" d="M386.7,204s-5.38,1.23-10,11-12.89,28.56-12.89,28.56l16.43,6.61Z" transform="translate(0.06 -0.02)"/><path class="cls-41" d="M366.06,155.46a44.49,44.49,0,0,1,0,4.62,28.58,28.58,0,0,0-.38,2.89,3.23,3.23,0,0,0,1.06,2.6,7,7,0,0,0,1.1-2.11c1.07-2.76,2.13-5.52,2.94-8.37a7.15,7.15,0,0,0,.37-2.82A2.74,2.74,0,0,0,369.6,150C366.92,148.94,366.09,153.81,366.06,155.46Z" transform="translate(0.06 -0.02)"/><path class="cls-41" d="M402,144.93a4.49,4.49,0,0,1,3.28-.88c1.42.41,2,2,2.41,3.47a50.21,50.21,0,0,1,2.34,12.21,17.16,17.16,0,0,0,.2,3.13c.23,1.1.74,2.12,1,3.21a9.53,9.53,0,0,1-.45,5.25,27.88,27.88,0,0,1-2.37,4.77q-1.24,2.16-2.5,4.31a16.49,16.49,0,0,1-1.48,2.28,8.51,8.51,0,0,1-2.74,2.21,2.07,2.07,0,0,1-2,.16,2.22,2.22,0,0,1-.74-1.23,26.57,26.57,0,0,1-1.32-9.24,25.41,25.41,0,0,0,0-3.49,22.47,22.47,0,0,0-.57-2.92,36.81,36.81,0,0,1-.62-12.73,37.41,37.41,0,0,1,1.36-6.35,4.62,4.62,0,0,1,1.18-2.4A21.83,21.83,0,0,1,402,144.93Z" transform="translate(0.06 -0.02)"/><path class="cls-14" d="M403.53,198.46a41.26,41.26,0,0,0-5.89,4.35c-3.73,3.16-15.67,17.84-17,16.95s.84-15.26,1.69-18.92a10.15,10.15,0,0,0,.21-2.1,40.61,40.61,0,0,0-1.2-8.46l-.16-.63,18.44-12.44Z" transform="translate(0.06 -0.02)"/><path class="cls-42" d="M397.73,180.59c-.32.58-10.66,19.15-15,19.26h-.25a40.4,40.4,0,0,0-1.2-8.46C383.61,190.72,390.59,188.19,397.73,180.59Z" transform="translate(0.06 -0.02)"/><path class="cls-41" d="M394.41,169a7.81,7.81,0,0,1,1,1.71c.24.73.19,1.67.85,2.08a.65.65,0,0,0,.43.11c.29,0,.47-.34.59-.62,1.08-2.53.5-5.65,2-8,.63-1,1.65-1.91,1.43-3A2.09,2.09,0,0,0,398,160a4.69,4.69,0,0,0-2.4,2.29C394.63,164,393.18,167.07,394.41,169Z" transform="translate(0.06 -0.02)"/><path class="cls-14" d="M397.7,181.06a31.61,31.61,0,0,1-6.63,7.05,22.94,22.94,0,0,1-7.95,4.1c-6.54,1.77-12.59-.75-15.24-8-.16-.46-.32-.92-.46-1.39a37.68,37.68,0,0,1-1.56-8c-.05-.63-.1-1.26-.13-1.89,0-.05,0-.12,0-.17a49.39,49.39,0,0,1,.26-7.41c.16-1.37.37-2.72.63-4,0-.12.06-.25.08-.36,1.69-7.85,5.57-16.25,14.06-18.39,6.37-1.62,13.32,1.11,17.44,6.11a25,25,0,0,1,5.21,13.75C403.94,168.62,401.64,175.45,397.7,181.06Z" transform="translate(0.06 -0.02)"/><path class="cls-43" d="M379.37,174.71a10.24,10.24,0,0,0,5.43,13.1,9.55,9.55,0,0,0,12.56-5.66,10.24,10.24,0,0,0-5.42-13.1A9.55,9.55,0,0,0,379.37,174.71Z" transform="translate(0.06 -0.02)"/><path class="cls-44" d="M365.79,174.31a35,35,0,0,0,1.55,8.6,8.56,8.56,0,0,0,1.6-2.68,9,9,0,0,0-3.21-10.62C365.68,171.19,365.7,172.76,365.79,174.31Z" transform="translate(0.06 -0.02)"/><path class="cls-45" d="M381.83,180.51s-5.21,4.09-11.09,1.43" transform="translate(0.06 -0.02)"/><path class="cls-45" d="M378.87,184.62a9.63,9.63,0,0,1-5,.34" transform="translate(0.06 -0.02)"/><path class="cls-9" d="M380.2,169.19a1.23,1.23,0,1,0,2.46.1,1.27,1.27,0,0,0-1.18-1.33A1.25,1.25,0,0,0,380.2,169.19Z" transform="translate(0.06 -0.02)"/><path class="cls-9" d="M367.6,168.71a1.26,1.26,0,0,0,1.18,1.33,1.24,1.24,0,0,0,1.27-1.23,1.25,1.25,0,0,0-1.18-1.33A1.24,1.24,0,0,0,367.6,168.71Z" transform="translate(0.06 -0.02)"/><path class="cls-46" d="M377.84,142.72" transform="translate(0.06 -0.02)"/><path class="cls-46" d="M371.19,162.22c1.34,2.3,1.16,5.18.65,7.81s-1.33,5.24-1.09,7.9a1.21,1.21,0,0,0,.19.65,1.23,1.23,0,0,0,.6.33,5.37,5.37,0,0,0,3.15-.08" transform="translate(0.06 -0.02)"/><path class="cls-41" d="M378.14,163.9a1.08,1.08,0,0,0,.06.64c.26.57,1.08.65,1.76.65a13.49,13.49,0,0,1,4.87.67,3.32,3.32,0,0,0,2.27.42,1.47,1.47,0,0,0,.65-2.06,4.15,4.15,0,0,0-2-1.53c-1.26-.58-3.08-1.49-4.55-1.31A3.46,3.46,0,0,0,378.14,163.9Z" transform="translate(0.06 -0.02)"/><path class="cls-41" d="M370.9,164.22c-.24.58-1,.7-1.74.74a18.77,18.77,0,0,0-3.18.36c.16-1.37.37-2.72.63-4a3.68,3.68,0,0,1,4.32,2.26A1.19,1.19,0,0,1,370.9,164.22Z" transform="translate(0.06 -0.02)"/><path class="cls-41" d="M396.14,148.74c-1,.6-2.14,1-3.18,1.55a19.72,19.72,0,0,0-2.89,2.1,5.42,5.42,0,0,0-1.55,1.69,4.13,4.13,0,0,0-.33,2.06,12.6,12.6,0,0,0,2.57,6.26,7.54,7.54,0,0,1,1.49,2.91,6.22,6.22,0,0,0,.37,2.17c.57,1,2,1.15,2.63,2.11.52.81.38,2.1,1.26,2.51a1.79,1.79,0,0,0,1.88-.63c1.92-1.87,2.55-4.7,4.2-6.81a16.42,16.42,0,0,0,1.9-2.45,6.84,6.84,0,0,0,.48-3.75,19.48,19.48,0,0,0-2.68-8.18c-.62-1-1.58-2.86-2.66-3.48S397.15,148.14,396.14,148.74Z" transform="translate(0.06 -0.02)"/><path class="cls-41" d="M401.64,139.84a15.26,15.26,0,0,0-8.73-2.77c-2.75,0-5.46.75-8.22.71a62.85,62.85,0,0,1-7.2-1,27.32,27.32,0,0,0-6.64,0,9.08,9.08,0,0,0-4.85,1.74,7.67,7.67,0,0,0-2.32,5.39c-.18,2.59.46,5.41,2.44,7.15a7,7,0,0,0,6.53,1.28c.74-.23,1.44-.57,2.19-.75a2.89,2.89,0,0,1,2.24.24c.56.38.89,1,1.45,1.39,1.06.7,2.52.21,3.76.5a27.88,27.88,0,0,1,2.92,1.4c1.59.57,3.35,0,4.93-.56a60.18,60.18,0,0,0,8.3-3.87,17.87,17.87,0,0,0,3.83-2.7c1-1,2.31-2.69,2.24-4.21S402.87,140.71,401.64,139.84Z" transform="translate(0.06 -0.02)"/><path class="cls-14" d="M396.5,171.13s1.94-10.18,7.43-8.7,3.53,14.42-1.56,15.49-5.07-3-5.07-3Z" transform="translate(0.06 -0.02)"/><path class="cls-37" d="M399.49,167.63a7.11,7.11,0,0,1,1.7-2,2.3,2.3,0,0,1,3.81,1.17,7.53,7.53,0,0,1,.26,2.07,15,15,0,0,1-.35,4.28A4.65,4.65,0,0,1,404,175a3.23,3.23,0,0,1-3.23.93c-.5-.15-1-.49-1.08-1" transform="translate(0.06 -0.02)"/><path class="cls-37" d="M402,165.15a5.84,5.84,0,0,0-1.49,3,12.24,12.24,0,0,0,.21,7.62" transform="translate(0.06 -0.02)"/><path class="cls-47" d="M380,217.75s-1.34,17.68-2.68,34S373,317.94,373,317.94s7.77,2.14,12.59,5.35,48.49,3.49,48.49,3.49S433.8,244,425,226.32a98.66,98.66,0,0,0-21.43-28.4Z" transform="translate(0.06 -0.02)"/><path class="cls-47" d="M380.86,209.24s.83,4.22,6.06,1.67,16.61-13,16.61-13,8,7,12.72,14.6-31.74,24.65-31.74,24.65l-5.9-8Z" transform="translate(0.06 -0.02)"/><path class="cls-14" d="M311.56,276.38h0v.16Z" transform="translate(0.06 -0.02)"/><line class="cls-37" x1="379.93" y1="217.55" x2="375.53" y2="278.8"/><line class="cls-37" x1="377.87" y1="221.48" x2="378.81" y2="233.53"/><polyline class="cls-12" points="319.45 214.29 302.41 211.06 309.01 273.43 325.11 280.69 319.47 214.31"/><polyline class="cls-48" points="319.06 216.46 303.19 213.44 309.34 271.54 324.33 278.31 319.08 216.48"/><path class="cls-5" d="M310.34,235.7c-.22-.06-.42-.38-.34-1l.48-3.47c.08-.57-.16-.6-.26-.62s-.33,0-.42.61l-.55,4s0,0,0,0-.26.13-.44.09-.17,0-.15-.17l.57-4.09c.08-.56-.15-.58-.25-.6s-.34,0-.42.52l-.45,3.2c-.09.63-.35.92-.75.84a.34.34,0,0,1-.28-.4c0-.06.1,0,.2,0s.23-.16.29-.63l.43-3c.12-.85.62-1.11,1-1.07a.83.83,0,0,1,.6.38.69.69,0,0,1,.61-.25c.44.05.86.43.74,1.32l-.46,3.37a.65.65,0,0,0,.24.64C310.9,235.53,310.58,235.76,310.34,235.7Z" transform="translate(0.06 -0.02)"/><path class="cls-5" d="M311.82,235a.74.74,0,0,0,.59.62c.55.12.84-.34,1-.8s.48-.11.42.17a1.3,1.3,0,0,1-1.55,1.12,1.52,1.52,0,0,1-1-1.78c.13-1,.76-1.61,1.31-1.52.39.07.59.43.53.91A1.47,1.47,0,0,1,311.82,235Zm0-.44a1.09,1.09,0,0,0,.72-.94c0-.17,0-.28-.12-.3-.34-.06-.56.77-.59,1.1A.71.71,0,0,1,311.79,234.58Z" transform="translate(0.06 -0.02)"/><path class="cls-5" d="M313.57,233.49a2.1,2.1,0,0,0,0-.26c0-.08.1-.12.2-.1a.39.39,0,0,1,.34.42l-.05.36c.25-.41.54-.71.89-.65s.53.56.48.94l-.21,1.7c0,.07-.05.38.14.42s.47-.43.58-.78c.05-.17.13-.23.2-.21a.41.41,0,0,1,.2.4.13.13,0,0,1,0,.05c-.19.53-.56,1.2-1.17,1.05a.78.78,0,0,1-.49-.91l.2-1.65c0-.25.05-.46-.09-.49s-.72.57-.85,1.19l-.15,1.17c0,.15,0,.34-.24.29a.37.37,0,0,1-.3-.43Z" transform="translate(0.06 -0.02)"/><path class="cls-5" d="M317.17,236.72c-.22.31-.47.51-.78.43-.47-.12-.69-.66-.6-1.38a8.62,8.62,0,0,1,.48-1.81c.07-.14,0-.32.41-.24s.1.36.06.48a7.38,7.38,0,0,0-.41,1.65c-.06.45,0,.73.24.78s.56-.43.71-1l.17-1.37c0-.25,0-.28,0-.34s.13-.07.23,0a.42.42,0,0,1,.34.46l-.26,2.18c0,.07-.05.39.13.43s.48-.44.59-.81c.05-.17.12-.23.2-.22s.22.26.2.42a.18.18,0,0,1,0,.06c-.2.54-.57,1.25-1.17,1.08A.73.73,0,0,1,317.17,236.72Z" transform="translate(0.06 -0.02)"/><path class="cls-14" d="M390.4,250l-9,29-43.58-.21-2.53,9.31c2.25.64,4.51,1.23,6.77,1.81Q350,292,358,293.75c6.12,1.34,12.29,2.55,18.51,3.38a84.32,84.32,0,0,0,8.83.87c2.61.07,5.3.39,7.6-1.15a13.43,13.43,0,0,0,3.33-3.56c1.4-1.94,2.65-3.72,3.68-5.49,2.95-5.07,5-10.16,7.76-15.35,1.82-3.43,3.63-6.87,5.23-10.41C412.9,262,416.39,253.2,390.4,250Z" transform="translate(0.06 -0.02)"/><path class="cls-40" d="M381.39,279a48.3,48.3,0,0,1,10.22,3.28" transform="translate(0.06 -0.02)"/><path class="cls-14" d="M336.31,278.57l-9.74,3.71-6.92-3.54c1,.36,3.56.35,3.74-.08.72-1.68,0-3-1.35-4.1a10.52,10.52,0,0,1-3.3-3.75,2.56,2.56,0,0,1-.24-.92,1,1,0,0,1,.7-1.08,2.23,2.23,0,0,1,1.56.16,13.18,13.18,0,0,1,2,1.1c1.91,1.18,3.81,2.39,5.76,3.51s4.1,1.89,6,3.09a5.87,5.87,0,0,1,1.14.9C335.73,277.63,336.4,278.53,336.31,278.57Z" transform="translate(0.06 -0.02)"/><path class="cls-14" d="M356.71,281.65l-10.52,9.23-14.29-2.22s-16.56-1.16-18-2.67c-.28-.31-.72-.89-1.26-1.64-.1-.16-.22-.32-.34-.5-.61-.88-1.31-1.94-2-3-.09-.16-.19-.31-.28-.46-.77-1.24-1.49-2.47-2.05-3.48l-.16-.33a6.59,6.59,0,0,1-.77-1.81c-.11-1.26,1.47-2.8,1.66-3.09l.19,1.57,7.82,3.78c.51.24,1.94.75,2.43,1.05a6.94,6.94,0,0,0,3.67.83l13.43-.39,0,.05,0,.06Z" transform="translate(0.06 -0.02)"/><path class="cls-9" d="M316.11,281.37l-.07,0c-1-.66-8.14-4.51-8.21-4.55a.13.13,0,0,1-.05-.18.11.11,0,0,1,.17-.05c.3.15,7.21,3.89,8.23,4.56a.13.13,0,0,1,0,.18A.14.14,0,0,1,316.11,281.37Z" transform="translate(0.06 -0.02)"/><path class="cls-9" d="M315.66,283.67a.11.11,0,0,1-.1.06.1.1,0,0,1-.08,0c-.56-.37-3-1.73-5.13-2.86-.09-.16-.19-.31-.28-.46,2.15,1.17,4.94,2.7,5.56,3.11A.14.14,0,0,1,315.66,283.67Z" transform="translate(0.06 -0.02)"/><path class="cls-9" d="M314.42,285.21a.12.12,0,0,1-.1.05.08.08,0,0,1-.07,0c-.25-.15-.82-.48-1.57-.89-.1-.16-.22-.32-.34-.5,1,.54,1.75,1,2,1.17A.13.13,0,0,1,314.42,285.21Z" transform="translate(0.06 -0.02)"/><path class="cls-47" d="M383.17,255.52s9.64-44.47,29.2-41.52,11.79,44.47,11.79,44.47l-4.56,13.39Z" transform="translate(0.06 -0.02)"/><path class="cls-37" d="M423.08,237.57s-3.39,21.07-9.46,31.79l-30.45-13.84s9.91-37.6,20.09-42.42" transform="translate(0.06 -0.02)"/><path class="cls-37" d="M418.62,257.22s3.39-6.43,4.82-9.83" transform="translate(0.06 -0.02)"/><path class="cls-37" d="M420,254.44c4.06,23.56-.23,47.7.6,71.59" transform="translate(0.06 -0.02)"/><line class="cls-49" x1="435.07" y1="370.56" x2="460.52" y2="475.44"/><line class="cls-49" x1="377.47" y1="370.82" x2="352.29" y2="475.44"/><line class="cls-49" x1="436.81" y1="379.1" x2="375.42" y2="378.97"/><path class="cls-50" d="M212.12,459.16c-1.24-.31-2.7-.58-4.33-.84l-.32-.05c-5.54-.87-12.91-1.61-20.13-2.73a53.84,53.84,0,0,1-6.26-1.29l-.26-.06c-4.71-1.35-6.68-3.07-6.88-5.21-.26-3,2.15-6.83,3.09-8.84.1-.23.22-.55.35-.95.42-1.26,1-3.22,1.41-5.1.65-2.63,1.18-5.07,1.18-5.07l11.66-.27s2.81,4.69,4.82,7.24a2.84,2.84,0,0,0,.35.36,20.71,20.71,0,0,0,2.4,1.69,1.28,1.28,0,0,0,.23.14c.71.47,1.53,1,2.42,1.49a1.09,1.09,0,0,0,.23.14c.87.53,1.83,1.09,2.81,1.67a1.2,1.2,0,0,1,.24.15c2.45,1.41,5.16,3,7.76,4.51h0l.06,0h0c5.94,3.51,11.36,6.93,12.13,8.54C226.85,458.35,217.61,460.5,212.12,459.16Z" transform="translate(0.06 -0.02)"/><path class="cls-26" d="M212.12,459.16c-1.24-.31-2.7-.58-4.33-.84l-.32-.05c-5.54-.87-12.91-1.61-20.13-2.73a53.84,53.84,0,0,1-6.26-1.29l-.26-.06c-4.71-1.35-6.68-3.07-6.88-5.21-.26-3,2.15-6.83,3.09-8.84.1-.23.22-.55.35-.95.42-1.26,1-3.22,1.41-5.1a16.78,16.78,0,0,1,5.38.93c2.66.81,5.3,1.92,8.09,1.92a26.88,26.88,0,0,0,4.54-.59,20.71,20.71,0,0,0,2.4,1.69,1.28,1.28,0,0,0,.23.14c.71.47,1.53,1,2.42,1.49a1.09,1.09,0,0,0,.23.14c.87.53,1.83,1.09,2.81,1.67a1.2,1.2,0,0,1,.24.15c2.45,1.41,5.16,3,7.76,4.51h0l.06,0h0c5.94,3.51,11.36,6.93,12.13,8.54C226.85,458.35,217.61,460.5,212.12,459.16Z" transform="translate(0.06 -0.02)"/><path class="cls-5" d="M180.93,454.49h0a.13.13,0,0,1-.11-.15,22.28,22.28,0,0,0,0-7.94,14.57,14.57,0,0,0-3.42-7.08.13.13,0,0,1,0-.18.13.13,0,0,1,.19,0,14.79,14.79,0,0,1,3.48,7.2,22.55,22.55,0,0,1,0,8A.14.14,0,0,1,180.93,454.49Z" transform="translate(0.06 -0.02)"/><path class="cls-5" d="M207.68,458.52a.12.12,0,0,1-.09,0,.79.79,0,0,1-.1-.72,31,31,0,0,1,5.27-11.56.14.14,0,0,1,.19,0,.13.13,0,0,1,0,.18,30.45,30.45,0,0,0-5.23,11.47c0,.18-.07.38,0,.49a.12.12,0,0,1,0,.18A.13.13,0,0,1,207.68,458.52Z" transform="translate(0.06 -0.02)"/><path class="cls-5" d="M199.43,438.18a21.84,21.84,0,0,0-3,5,.14.14,0,0,1-.13.08h-.05a.14.14,0,0,1-.06-.18,22.38,22.38,0,0,1,3-5A1.28,1.28,0,0,0,199.43,438.18Z" transform="translate(0.06 -0.02)"/><path class="cls-5" d="M202.08,439.81a22.56,22.56,0,0,0-3,4.54.14.14,0,0,1-.12.08h-.06a.14.14,0,0,1-.06-.18,23.26,23.26,0,0,1,3-4.57A1.09,1.09,0,0,0,202.08,439.81Z" transform="translate(0.06 -0.02)"/><path class="cls-5" d="M205.13,441.63a23.92,23.92,0,0,0-3.08,4.07.13.13,0,0,1-.12.06l-.06,0a.13.13,0,0,1,0-.18,25.41,25.41,0,0,1,3.06-4.08A1.2,1.2,0,0,1,205.13,441.63Z" transform="translate(0.06 -0.02)"/><line class="cls-51" x1="76.41" y1="367.12" x2="51.23" y2="477.49"/><line class="cls-51" x1="134.27" y1="367.12" x2="159.45" y2="477.49"/><line class="cls-51" x1="74.27" y1="377.74" x2="136.33" y2="377.66"/><path class="cls-32" d="M62.5,242.66s-16.07-2.14-19,11c-2.59,11.56,11.63,80.6,21.28,107.94A12.82,12.82,0,0,0,77,370.13c19.48-.13,65.76-.56,69.14-1.83,4.28-1.61,6.16-11.25.8-13.13s-58.67-7.5-58.67-7.5S72.68,256.59,62.5,242.66Z" transform="translate(0.06 -0.02)"/><path class="cls-23" d="M52.19,256.34c-.5,7.81,1,15.6,2.52,23.28q6.54,33,14,65.74c1.3,5.7,3,11.92,7.78,15.25,2.89,2,6.48,2.63,10,3.12,20.34,2.88,43.12,1.1,63.62-.25" transform="translate(0.06 -0.02)"/><path class="cls-34" d="M144.57,353.66l20.54,13s3.48,43.4,14.46,63.76H193L191.89,349,171.8,324.63Z" transform="translate(0.06 -0.02)"/><path class="cls-50" d="M252.08,380.44c-2.51,3.53-9.28,6.42-15.43,8.27l-.2.06c-2.52.75-4.92,1.31-6.87,1.68-4.44.82-9.34,2.36-12.9,3.36l-.26.06a21.52,21.52,0,0,1-4,.86c-1.64.07-4.1-2.85-4.47-6.79a12.78,12.78,0,0,0-.51-2.45,1.14,1.14,0,0,0-.09-.26,33.42,33.42,0,0,0-1.25-3.46h0c-1.14-2.69-2.34-5-2.34-5l10.45-7a15.86,15.86,0,0,0,2.86,2.5,6.67,6.67,0,0,0,1.85.44c1.22.19,3,.36,5,.53l.27,0,2.07.17.27,0,2.27.16.27,0c3.52.24,7.26.46,10.49.65h.23c3.5.21,6.32.37,7.46.47C251.19,375.09,255.65,375.45,252.08,380.44Z" transform="translate(0.06 -0.02)"/><path class="cls-26" d="M252.08,380.44c-2.51,3.53-9.28,6.42-15.43,8.27l-.2.06c-2.52.75-4.92,1.31-6.87,1.68-4.44.82-9.34,2.36-12.9,3.36l-.26.06a21.52,21.52,0,0,1-4,.86c-1.64.07-4.1-2.85-4.47-6.79a12.78,12.78,0,0,0-.51-2.45,1.14,1.14,0,0,0-.09-.26,33.42,33.42,0,0,0-1.25-3.46h0a10.56,10.56,0,0,1,2.38-1.09,16.92,16.92,0,0,0,7.3-4.31c1.09-1.18,2-2.56,3.14-3.69,1.22.19,3,.36,5,.53l.27,0,2.07.17.27,0,2.27.16.27,0c3.52.24,7.26.46,10.49.65h.23c3.5.21,6.32.37,7.46.47C251.19,375.09,255.65,375.45,252.08,380.44Z" transform="translate(0.06 -0.02)"/><path class="cls-5" d="M216.63,394.16a.13.13,0,0,1-.12-.08,14.11,14.11,0,0,0-9.12-8.61.14.14,0,0,1-.09-.17.14.14,0,0,1,.16-.09,14.38,14.38,0,0,1,9.29,8.78.13.13,0,0,1-.07.17Z" transform="translate(0.06 -0.02)"/><path class="cls-5" d="M236.53,388.8a.13.13,0,0,1-.13-.13,29.31,29.31,0,0,1,3.16-14.42.14.14,0,0,1,.18-.06.15.15,0,0,1,.06.18,29,29,0,0,0-3.14,14.29.14.14,0,0,1-.13.14Z" transform="translate(0.06 -0.02)"/><path class="cls-5" d="M224.2,373.23a33.24,33.24,0,0,0-1.53,5.82.13.13,0,0,1-.12.1h0a.13.13,0,0,1-.11-.16,34.66,34.66,0,0,1,1.52-5.79Z" transform="translate(0.06 -0.02)"/><path class="cls-5" d="M226.54,373.42a40.09,40.09,0,0,0-1.28,5.62.12.12,0,0,1-.12.11h0A.12.12,0,0,1,225,379a41.21,41.21,0,0,1,1.26-5.6Z" transform="translate(0.06 -0.02)"/><path class="cls-5" d="M229.08,373.6a37.51,37.51,0,0,0-1.22,5.44.13.13,0,0,1-.13.11h0a.14.14,0,0,1-.12-.15,40.07,40.07,0,0,1,1.22-5.42Z" transform="translate(0.06 -0.02)"/><path class="cls-34" d="M84.92,348.66s14.13,14.43,37.5,10.35c19.47-3.39,22.15-5.35,22.15-5.35l25.71-21.79,32.87,45.36,12.5-8.22s-23.58-54.64-32.86-62.5-49.56-5.18-49.56-5.18S109.38,313.38,97.6,328C87.14,340.94,85.1,343.12,84.92,348.66Z" transform="translate(0.06 -0.02)"/><path class="cls-37" d="M144.57,353.66s21.07-18.4,24.82-22.15" transform="translate(0.06 -0.02)"/><path class="cls-37" d="M168.14,332.76l14.65,2.32a30.26,30.26,0,0,1,8.39,17.33c1.25,10.71,1.43,40.54,1.43,40.54l.36,37.5" transform="translate(0.06 -0.02)"/><path class="cls-37" d="M149,350.05a44.59,44.59,0,0,1,17.09,9.07,11.28,11.28,0,0,1,4.67,9.23c.28,3,.26,6.09.33,9.14a150.23,150.23,0,0,0,10,50.23,3.73,3.73,0,0,0,1.32,2" transform="translate(0.06 -0.02)"/><path class="cls-37" d="M104.71,320.34a52.83,52.83,0,0,0,25.12,3.93c10.2-.9,19.92-4.76,30.06-6.21a29.42,29.42,0,0,1,10.79.08c7.65,1.76,13.51,8.08,17.19,15s5.61,14.64,8.5,21.93a106.34,106.34,0,0,0,10.44,19.58" transform="translate(0.06 -0.02)"/><path class="cls-37" d="M121.83,307.73a24.24,24.24,0,0,1,8.86,6.07,15.79,15.79,0,0,1,4.11,9.79" transform="translate(0.06 -0.02)"/><path class="cls-9" d="M99.9,164.72a13.32,13.32,0,0,1,12.78,9.13c1.88,6.48-1.81,13.71.71,20,.89,2.23,2.52,4.14,3.37,6.38,2,5.32-.58,11.08-2.14,16.53-.63,2.24-1,4.87.48,6.69.86,1,2.17,1.6,3.22,2.46a6.72,6.72,0,0,1,2.49,5.08c0,1.84-.72,3.7-.22,5.47.58,2,2.58,3.31,3.86,5,2.59,3.47,2,8.35,1.23,12.55h-33c-7.33-11.67-14.45-24.34-14.57-38C78,204.28,83.05,193.14,88,182.41a73.29,73.29,0,0,1,5.19-9.89C95,169.76,97.71,167.22,99.9,164.72Z" transform="translate(0.06 -0.02)"/><path class="cls-50" d="M102.57,243.7c-.71,7.45-9.4,3.57-13.21-.07a52.36,52.36,0,0,1-7.91-10.18c-.59-.94-1.16-1.91-1.69-2.88-.33-.61-1.31-1.65-1.18-2.39,1.19-6.36.19-22.31.19-22.31l1.73,1,.2.12,15.69,9.18,2.27,1.32-.12,1c-.12,1.06-.26,2.14-.38,3.21a24.63,24.63,0,0,0-.08,5.15,17.62,17.62,0,0,0,.86,4.05,1.57,1.57,0,0,0,.09.23c1,2.66,2.58,5,3.26,7.83A14.34,14.34,0,0,1,102.57,243.7Z" transform="translate(0.06 -0.02)"/><path class="cls-52" d="M98.16,221.73a24.63,24.63,0,0,0-.08,5.15c-10.21-1.46-18.73-20.28-18.73-20.28l1.15.27.2.12,15.69,9.18c.76.77,1.48,1.57,2.15,2.35C98.42,219.58,98.28,220.66,98.16,221.73Z" transform="translate(0.06 -0.02)"/><path class="cls-50" d="M113.33,199.68a36.45,36.45,0,0,1-1.59,8.89,18.71,18.71,0,0,1-5.6,8.92,12.94,12.94,0,0,1-7.73,2.86,11.89,11.89,0,0,1-3-.25c-4-.81-7.26-3.24-10.15-6a39.41,39.41,0,0,1-5.63-6.74c-.31-.46-.6-.91-.88-1.39h0A29.66,29.66,0,0,1,76.46,201a32.64,32.64,0,0,1-1.81-13.75c.55-6.74,3.38-13.48,9-17.49a18.13,18.13,0,0,1,13.93-3.07c5.4,1.09,9.42,4.72,11.87,9.54a27.55,27.55,0,0,1,2.13,5.81c.15.55.28,1.11.4,1.67,0,.21.1.42.14.64.22,1,.4,2,.55,3a56.09,56.09,0,0,1,.7,7.43C113.45,196.46,113.43,198.08,113.33,199.68Z" transform="translate(0.06 -0.02)"/><path class="cls-53" d="M99.57,200.09A10.58,10.58,0,0,1,94,213.64a9.87,9.87,0,0,1-13-5.85,10.58,10.58,0,0,1,5.61-13.55A9.87,9.87,0,0,1,99.57,200.09Z" transform="translate(0.06 -0.02)"/><path class="cls-54" d="M113.33,199.68a36.45,36.45,0,0,1-1.59,8.89,9.11,9.11,0,0,1-1.66-2.76,9.33,9.33,0,0,1,3.32-11C113.45,196.46,113.43,198.08,113.33,199.68Z" transform="translate(0.06 -0.02)"/><path class="cls-55" d="M98,205.85s4.93,3.88,10.49,1.35" transform="translate(0.06 -0.02)"/><path class="cls-55" d="M100.8,209.74a9.07,9.07,0,0,0,4.7.33" transform="translate(0.06 -0.02)"/><path class="cls-9" d="M98.72,194.39a1.32,1.32,0,0,1-1.23,1.38,1.33,1.33,0,0,1-.09-2.65A1.29,1.29,0,0,1,98.72,194.39Z" transform="translate(0.06 -0.02)"/><path class="cls-9" d="M111.75,193.89a1.32,1.32,0,0,1-1.23,1.38,1.33,1.33,0,1,1,1.23-1.38Z" transform="translate(0.06 -0.02)"/><path class="cls-55" d="M108.38,187.6a16.73,16.73,0,0,0-.08,13.93,1.85,1.85,0,0,1,.17.5,1.43,1.43,0,0,1-.07.58,5.52,5.52,0,0,1-1.55,2.5" transform="translate(0.06 -0.02)"/><path class="cls-9" d="M89.34,189.86c-.44.14-1.09.18-1.17-.29a.77.77,0,0,1,0-.37,5.64,5.64,0,0,1,2.85-3,13.55,13.55,0,0,1,6.46-1.65,4.91,4.91,0,0,1,2,.35,2.36,2.36,0,0,1,1.35,1.54c.54,2.35-3.22,1.64-4.52,1.8A35.63,35.63,0,0,0,89.34,189.86Z" transform="translate(0.06 -0.02)"/><path class="cls-9" d="M112.7,187.39c-1.6,0-4.27.24-3.79-1.76a2.4,2.4,0,0,1,1.37-1.55,4.6,4.6,0,0,1,1.73-.34c0,.21.1.42.14.64C112.37,185.36,112.55,186.37,112.7,187.39Z" transform="translate(0.06 -0.02)"/><path class="cls-55" d="M101.16,167" transform="translate(0.06 -0.02)"/><path class="cls-26" d="M75.09,231.68s-13.93,7-13.66,21.43,15.81,53,15.81,53,1.74,37,9.24,44.47c0,0,3.88-17.41,19.42-28.66s27.33-20.63,27.33-20.63l-10.45-15.54s1.61-13.39-5.09-24.65-16.07-23.57-16.07-23.57Z" transform="translate(0.06 -0.02)"/><path class="cls-9" d="M99.16,165.13A18,18,0,0,1,96.92,184a32.63,32.63,0,0,0-3.52,4.29c-2.85,4.95-.31,11.7-3.2,16.62-1.83,3.13-5.47,4.79-7.52,7.78a9.89,9.89,0,0,0,3.19,13.64,39.33,39.33,0,0,0,5.83,2.11c2,.71,3.9,1.9,4.68,3.82.63,1.58.4,3.47,1.32,4.91,1.41,2.19,4.68,2.17,6.69,3.81,1.72,1.41,2.27,3.79,2.37,6a22.21,22.21,0,0,1-1.73,9.62c-.33.78-.92,1.58-1.77,1.58H39.91a2.33,2.33,0,0,1,.27-1.65c-.92-3,1-6.39,3.19-8.58s4.8-4.2,5.77-7.14c1.3-3.93-.79-8.19-.4-12.31S51.81,221,52.56,217c1.14-6.05-2.35-12.38-.76-18.33.89-3.3,3.24-6,4.66-9.12a56.39,56.39,0,0,0,2.24-6.88c2.07-6.7,5.92-13.12,11.88-16.8,6.8-4.21,15.31-4.33,23.28-3.7C95.57,162.3,98.41,163.6,99.16,165.13Z" transform="translate(0.06 -0.02)"/><line class="cls-37" x1="73.15" y1="276.12" x2="79.85" y2="282.69"/><path class="cls-50" d="M179,292.76s10.26.44,14.1-.45,5.27-2,8-1.43,16,7.05,18.93,7.68,3.57,3.66,2.77,3.93-20.09.09-20.54.09-7.94,2.14-12.05,1.25a89.25,89.25,0,0,0-11.7-1.16Z" transform="translate(0.06 -0.02)"/><path class="cls-37" d="M209.91,300.06s12.26,1.27,13.06,1.74" transform="translate(0.06 -0.02)"/><path class="cls-37" d="M209.66,297.62s11,2.15,12.91,2.77" transform="translate(0.06 -0.02)"/><path class="cls-37" d="M209.8,295.34s10,3.09,11.29,3.53" transform="translate(0.06 -0.02)"/><path class="cls-50" d="M85.68,280.7c.8-.27,35.76,21.43,46.47,23s46.35-1.07,46.35-1.07l.54-9.91-47.42-8.31L103,263Z" transform="translate(0.06 -0.02)"/><path class="cls-26" d="M83,232.91a12.42,12.42,0,0,0-13.44,3.47c-3.76,4.21-9.72,11.56-7.75,19.94,3.22,13.66,22.64,30.81,22.64,30.81L108,256.32S96.13,237.65,83,232.91Z" transform="translate(0.06 -0.02)"/><path class="cls-37" d="M68,265.43s12.86,19.65,15.72,22.5L108,256.32s-10.09-15-17.23-19.46" transform="translate(0.06 -0.02)"/><path class="cls-37" d="M83.8,346.47s1.34-8,10-18.53c10.65-12.84,33.21-25.54,33.21-25.54" transform="translate(0.06 -0.02)"/><path class="cls-37" d="M78.83,281.86c4,6.71,3.68,15,5.41,22.61a84.1,84.1,0,0,0,5.52,15A53.72,53.72,0,0,0,94,327.86" transform="translate(0.06 -0.02)"/><path class="cls-37" d="M201.35,375.25a135.16,135.16,0,0,0,12.8-8.82" transform="translate(0.06 -0.02)"/><line class="cls-56" x1="197.02" y1="323.57" x2="344.85" y2="323.57"/><rect class="cls-41" x="181.15" y="302.56" width="176.45" height="8.01" rx="3.97"/><line class="cls-57" x1="198.66" y1="310.57" x2="175.08" y2="479.19"/><line class="cls-57" x1="342.96" y1="310.57" x2="366.53" y2="479.19"/><line class="cls-57" x1="179.01" y1="449.32" x2="361.53" y2="449.32"/><path class="cls-58" d="M197.91,322.18c5.4.48,10.69-4.28,10.9-9.8a3.09,3.09,0,0,0-.66-2.34c-1.46-1.47-3.87.64-4.22,2.7-.9,5.25,4.82,10.38,9.81,8.81s6.88-9.1,3.24-12.91a20.58,20.58,0,0,0-1,4.84c-.2,5.33,4.78,10.4,10,9.74s8.78-7.4,6.12-12a2.45,2.45,0,0,0-2-1.46c-1.06,0-1.71,1.22-1.95,2.28-1.28,5.62,4.29,11.62,9.87,10.63s8.83-8.55,5.78-13.4c-3.68,3.94-2,11.53,3,13.46s11.19-2.58,11-8c-.07-2.17-2.43-4.68-4-3.17a3.14,3.14,0,0,0-.69,2.27,11.59,11.59,0,0,0,2.55,7.72A7.37,7.37,0,0,0,263.1,324c3.87-1.1,5.74-5.61,6.26-9.67.23-1.8-.08-4.17-1.81-4.57-1.42-.32-2.69,1.06-3.2,2.45a8,8,0,0,0,3.27,9.33,7.66,7.66,0,0,0,9.57-1.74,8.06,8.06,0,0,0-.1-9.92,8.29,8.29,0,0,0,1.56,10.81,7.91,7.91,0,0,0,10.65-1.14,8.29,8.29,0,0,0-.68-10.9,9.15,9.15,0,0,0,2.3,12.08,8.76,8.76,0,0,0,11.85-2.36c1.53-2.33,1.76-5.75-.11-7.81a7,7,0,0,0,0,9.6,6.65,6.65,0,0,0,9.4-.55,7,7,0,0,0-1-9.55,9.72,9.72,0,0,0,1.68,11.47c3,2.79,8.29,2.76,11.08-.3s2.23-8.7-1.26-10.88a7.77,7.77,0,0,0,1.5,9.46,6.85,6.85,0,0,0,9.25-.53,6.67,6.67,0,0,0-.68-9.25c-.64,3.39-.59,7.21,1.49,9.94s6.72,3.49,8.78.74" transform="translate(0.06 -0.02)"/></g></g></svg>