<svg xmlns="http://www.w3.org/2000/svg" xmlns:xlink="http://www.w3.org/1999/xlink" viewBox="0 0 536 457.65"><defs><style>.cls-1,.cls-11,.cls-36,.cls-37,.cls-4,.cls-41,.cls-43,.cls-50,.cls-51,.cls-54,.cls-61,.cls-62,.cls-67,.cls-70,.cls-77,.cls-78,.cls-79,.cls-85,.cls-90,.cls-91,.cls-93,.cls-94{fill:none;}.cls-2{isolation:isolate;}.cls-3{fill:#f4ddc6;}.cls-4{stroke:#f4ddc6;}.cls-11,.cls-36,.cls-4,.cls-41,.cls-43,.cls-50,.cls-51,.cls-61,.cls-62,.cls-70,.cls-77,.cls-78,.cls-85,.cls-90,.cls-91,.cls-93,.cls-94{stroke-miterlimit:10;}.cls-5{font-size:11.68px;}.cls-10,.cls-5,.cls-7,.cls-9{fill:#fff;}.cls-10,.cls-5,.cls-7{font-family:CabinSketch;}.cls-6{letter-spacing:-0.02em;}.cls-7{font-size:4.32px;letter-spacing:-0.04em;}.cls-8{letter-spacing:0em;}.cls-10{font-size:7.73px;}.cls-11{stroke:#f7eadf;}.cls-12{fill:#eaccb0;}.cls-13{fill:#fff6ee;}.cls-14{clip-path:url(#clip-path);}.cls-15{fill:url(#linear-gradient);}.cls-16{fill:#996452;}.cls-17{fill:url(#linear-gradient-2);}.cls-18{fill:url(#linear-gradient-3);}.cls-19{fill:#f4d8be;opacity:0.55;}.cls-19,.cls-50{mix-blend-mode:multiply;}.cls-20{fill:#fda55c;}.cls-21{fill:#db8849;}.cls-22{fill:#684033;}.cls-23{fill:#89584e;}.cls-24{fill:#f7ecd0;}.cls-25{fill:#d8c295;}.cls-26{fill:#af6b64;}.cls-27{clip-path:url(#clip-path-2);}.cls-28{opacity:0.25;}.cls-29{fill:#edbc94;}.cls-30{fill:#af8a6e;}.cls-31{fill:#212942;}.cls-32,.cls-95{fill:#ffccb0;}.cls-33{fill:#d6b399;}.cls-34{fill:#f7e7e2;}.cls-35{fill:#8c6054;}.cls-36{stroke:#d6b399;}.cls-36,.cls-70,.cls-77,.cls-79,.cls-85,.cls-91{stroke-width:0.75px;}.cls-37{stroke:#212942;}.cls-37,.cls-79{stroke-linecap:round;}.cls-37,.cls-54,.cls-67,.cls-79,.cls-95{stroke-linejoin:round;}.cls-38{fill:#8b92a0;}.cls-39{fill:#acb1bf;}.cls-40{fill:#6b4040;}.cls-41{stroke:#231e3c;}.cls-41,.cls-43,.cls-61,.cls-62,.cls-67,.cls-78,.cls-94,.cls-95{stroke-width:0.5px;}.cls-42{fill:#231e3c;}.cls-43{stroke:#f4a98c;}.cls-44{fill:#936f69;}.cls-45{fill:#9b817e;}.cls-46{fill:#ddd3d3;}.cls-47{fill:#c1b2b2;}.cls-48{fill:#bc9896;}.cls-49{clip-path:url(#clip-path-3);}.cls-50{stroke:#edbc94;stroke-width:9px;opacity:0.45;}.cls-51{stroke:#996452;}.cls-52{fill:#f7d3b5;}.cls-53{fill:#d8937d;}.cls-54{stroke:#592e27;stroke-width:1.7px;}.cls-55{fill:#775352;}.cls-56{fill:#2a3449;}.cls-57{fill:#8c6664;}.cls-58{fill:#333d59;}.cls-59{fill:#030334;}.cls-60{fill:#9e3543;}.cls-61{stroke:#f2af91;}.cls-62{stroke:#2c2c59;}.cls-63{fill:#f7bb9a;}.cls-64{fill:#8c3441;}.cls-65{fill:#ce5b69;}.cls-66{fill:#561b08;}.cls-67,.cls-95{stroke:#d68e78;}.cls-68{fill:#563238;}.cls-69{fill:#bf7764;}.cls-70{stroke:#14253a;}.cls-71{fill:#d68e78;}.cls-72{fill:#e2c9c3;}.cls-73{fill:#8e7c59;}.cls-74{fill:#f9dbcf;}.cls-75{fill:#5578a2;}.cls-76{fill:#f2af91;}.cls-77{stroke:#384a72;}.cls-78{stroke:#563238;}.cls-79{stroke:#5578a2;}.cls-80{fill:#e2a971;}.cls-81{fill:#efc59e;}.cls-82{fill:#c1844c;}.cls-83{fill:#f4e6ce;}.cls-84{fill:#7b4b4b;}.cls-85{stroke:#563030;}.cls-86{fill:#563030;}.cls-87{fill:#9c8c86;}.cls-88{fill:#f9f5f2;}.cls-89{clip-path:url(#clip-path-4);}.cls-90{stroke:#ede7e4;stroke-width:5px;}.cls-91{stroke:#7c6760;}.cls-92{clip-path:url(#clip-path-5);}.cls-93{stroke:#e8ddd4;}.cls-94{stroke:#563c35;}.cls-96{fill:#563c35;}</style><clipPath id="clip-path" transform="translate(4 0)"><rect class="cls-1" width="500" height="317.64"/></clipPath><linearGradient id="linear-gradient" x1="65.21" y1="251.09" x2="65.21" y2="57.12" gradientUnits="userSpaceOnUse"><stop offset="0.23" stop-color="#fff" stop-opacity="0"/><stop offset="0.46" stop-color="#fff" stop-opacity="0.19"/><stop offset="0.7" stop-color="#fff" stop-opacity="0.36"/><stop offset="0.89" stop-color="#fff" stop-opacity="0.46"/><stop offset="1" stop-color="#fff" stop-opacity="0.5"/></linearGradient><linearGradient id="linear-gradient-2" x1="401.05" y1="251.09" x2="401.05" y2="57.12" xlink:href="#linear-gradient"/><linearGradient id="linear-gradient-3" x1="470.79" y1="251.09" x2="470.79" y2="57.12" xlink:href="#linear-gradient"/><clipPath id="clip-path-2" transform="translate(4 0)"><path class="cls-1" d="M195.21,110.38c-19.79.15-35.78,9.62-35.78,30.1V178h35.78Z"/></clipPath><clipPath id="clip-path-3" transform="translate(4 0)"><path class="cls-1" d="M370.09,147.73v-3.61l2.85-1.29a7.3,7.3,0,0,0,4.26-6L379.86,109H349.49l2.66,27.92a7.28,7.28,0,0,0,4.26,6l2.85,1.29v3.61"/></clipPath><clipPath id="clip-path-4" transform="translate(4 0)"><path class="cls-1" d="M382.39,322.69s-2.16-5.93-11.28-6.83l9.12,27.27a17.7,17.7,0,0,1,8.47,8.55Z"/></clipPath><clipPath id="clip-path-5" transform="translate(4 0)"><path class="cls-1" d="M388.09,320.73l6.65,34.14c10.47-.36,14.75,0,14.75,0l-2-34.11S400.27,318.79,388.09,320.73Z"/></clipPath></defs><title>homeBg</title><g class="cls-2"><g id="OBJECTS"><rect class="cls-3" x="4" y="262.84" width="500" height="7.82"/><rect class="cls-4" x="172.03" y="27.6" width="166.08" height="96.77" rx="2.84"/><path class="cls-3" d="M331.26,27.6H170.87A2.84,2.84,0,0,0,168,30.44V43.08H334.11V30.44A2.85,2.85,0,0,0,331.26,27.6Z" transform="translate(4 0)"/><path class="cls-3" d="M170.87,124.37H331.26a2.85,2.85,0,0,0,2.85-2.84v-6H168v6A2.84,2.84,0,0,0,170.87,124.37Z" transform="translate(4 0)"/><text class="cls-5" transform="translate(219.9 39.46)">MENU <tspan class="cls-6" x="32.87" y="0">C</tspan><tspan x="39.4" y="0">OFFEE</tspan></text><text class="cls-7" transform="translate(264.06 55.74)">L<tspan class="cls-8" x="1.87" y="0">OREM IPSUM</tspan></text><path class="cls-9" d="M253.48,61.15c13.07.1,32.16.32,45.22,0,.13,0,.13-.2,0-.21-13.06-.3-32.15-.07-45.22,0a.08.08,0,0,0,0,.16Z" transform="translate(4 0)"/><path class="cls-9" d="M253.48,69.09c13.07.1,32.16.33,45.22,0a.11.11,0,0,0,0-.21c-13.06-.3-32.15-.08-45.22,0-.1,0-.1.16,0,.16Z" transform="translate(4 0)"/><path class="cls-9" d="M253.48,77c13.07.1,32.16.32,45.22,0,.13,0,.13-.2,0-.21-13.06-.3-32.15-.07-45.22,0-.1,0-.1.15,0,.16Z" transform="translate(4 0)"/><path class="cls-9" d="M253.48,85c13.07.1,32.16.33,45.22,0,.13,0,.13-.21,0-.21-13.06-.3-32.15-.08-45.22,0a.08.08,0,0,0,0,.16Z" transform="translate(4 0)"/><path class="cls-9" d="M253.48,92.92c13.07.11,32.16.33,45.22,0a.11.11,0,0,0,0-.21c-13.06-.3-32.15-.07-45.22,0a.08.08,0,0,0,0,.15Z" transform="translate(4 0)"/><path class="cls-9" d="M253.48,100.87c13.07.1,32.16.33,45.22,0,.13,0,.13-.21,0-.21-13.06-.3-32.15-.08-45.22,0a.08.08,0,0,0,0,.16Z" transform="translate(4 0)"/><path class="cls-9" d="M253.48,108.81c13.07.11,32.16.33,45.22,0a.11.11,0,0,0,0-.21c-13.06-.3-32.15-.07-45.22,0a.08.08,0,0,0,0,.15Z" transform="translate(4 0)"/><path class="cls-9" d="M303.24,61.43a.37.37,0,0,0,0-.73.37.37,0,0,0,0,.73Z" transform="translate(4 0)"/><path class="cls-9" d="M307.22,61.43a.37.37,0,0,0,0-.73.37.37,0,0,0,0,.73Z" transform="translate(4 0)"/><path class="cls-9" d="M311.19,61.43a.37.37,0,0,0,0-.73.37.37,0,0,0,0,.73Z" transform="translate(4 0)"/><path class="cls-9" d="M315.16,61.43a.37.37,0,0,0,0-.73.37.37,0,0,0,0,.73Z" transform="translate(4 0)"/><path class="cls-9" d="M319.14,61.43a.37.37,0,0,0,0-.73.37.37,0,0,0,0,.73Z" transform="translate(4 0)"/><text class="cls-10" transform="translate(325.82 62.04)">$</text><path class="cls-9" d="M303.24,69.4a.36.36,0,0,0,0-.72.36.36,0,0,0,0,.72Z" transform="translate(4 0)"/><path class="cls-9" d="M307.22,69.4a.36.36,0,0,0,0-.72.36.36,0,0,0,0,.72Z" transform="translate(4 0)"/><path class="cls-9" d="M311.19,69.4a.36.36,0,0,0,0-.72.36.36,0,0,0,0,.72Z" transform="translate(4 0)"/><path class="cls-9" d="M315.16,69.4a.36.36,0,0,0,0-.72.36.36,0,0,0,0,.72Z" transform="translate(4 0)"/><path class="cls-9" d="M319.14,69.4a.36.36,0,0,0,0-.72.36.36,0,0,0,0,.72Z" transform="translate(4 0)"/><text class="cls-10" transform="translate(325.82 70.02)">$</text><path class="cls-9" d="M303.24,77.37a.36.36,0,0,0,0-.72.36.36,0,0,0,0,.72Z" transform="translate(4 0)"/><path class="cls-9" d="M307.22,77.37a.36.36,0,0,0,0-.72.36.36,0,0,0,0,.72Z" transform="translate(4 0)"/><path class="cls-9" d="M311.19,77.37a.36.36,0,0,0,0-.72.36.36,0,0,0,0,.72Z" transform="translate(4 0)"/><path class="cls-9" d="M315.16,77.37a.36.36,0,0,0,0-.72.36.36,0,0,0,0,.72Z" transform="translate(4 0)"/><path class="cls-9" d="M319.14,77.37a.36.36,0,0,0,0-.72.36.36,0,0,0,0,.72Z" transform="translate(4 0)"/><text class="cls-10" transform="translate(325.82 77.99)">$</text><path class="cls-9" d="M303.24,85.35a.37.37,0,0,0,0-.73.37.37,0,0,0,0,.73Z" transform="translate(4 0)"/><path class="cls-9" d="M307.22,85.35a.37.37,0,0,0,0-.73.37.37,0,0,0,0,.73Z" transform="translate(4 0)"/><path class="cls-9" d="M311.19,85.35a.37.37,0,0,0,0-.73.37.37,0,0,0,0,.73Z" transform="translate(4 0)"/><path class="cls-9" d="M315.16,85.35a.37.37,0,0,0,0-.73.37.37,0,0,0,0,.73Z" transform="translate(4 0)"/><path class="cls-9" d="M319.14,85.35a.37.37,0,0,0,0-.73.37.37,0,0,0,0,.73Z" transform="translate(4 0)"/><text class="cls-10" transform="translate(325.82 85.96)">$</text><path class="cls-9" d="M303.24,93.32a.37.37,0,0,0,0-.73.37.37,0,0,0,0,.73Z" transform="translate(4 0)"/><path class="cls-9" d="M307.22,93.32a.37.37,0,0,0,0-.73.37.37,0,0,0,0,.73Z" transform="translate(4 0)"/><path class="cls-9" d="M311.19,93.32a.37.37,0,0,0,0-.73.37.37,0,0,0,0,.73Z" transform="translate(4 0)"/><path class="cls-9" d="M315.16,93.32a.37.37,0,0,0,0-.73.37.37,0,0,0,0,.73Z" transform="translate(4 0)"/><path class="cls-9" d="M319.14,93.32a.37.37,0,0,0,0-.73.37.37,0,0,0,0,.73Z" transform="translate(4 0)"/><text class="cls-10" transform="translate(325.82 93.93)">$</text><path class="cls-9" d="M303.24,101.29a.37.37,0,0,0,0-.73.37.37,0,0,0,0,.73Z" transform="translate(4 0)"/><path class="cls-9" d="M307.22,101.29a.37.37,0,0,0,0-.73.37.37,0,0,0,0,.73Z" transform="translate(4 0)"/><path class="cls-9" d="M311.19,101.29a.37.37,0,0,0,0-.73.37.37,0,0,0,0,.73Z" transform="translate(4 0)"/><path class="cls-9" d="M315.16,101.29a.37.37,0,0,0,0-.73.37.37,0,0,0,0,.73Z" transform="translate(4 0)"/><path class="cls-9" d="M319.14,101.29a.37.37,0,0,0,0-.73.37.37,0,0,0,0,.73Z" transform="translate(4 0)"/><text class="cls-10" transform="translate(325.82 101.9)">$</text><path class="cls-9" d="M303.24,109.26a.37.37,0,0,0,0-.73.37.37,0,0,0,0,.73Z" transform="translate(4 0)"/><path class="cls-9" d="M307.22,109.26a.37.37,0,0,0,0-.73.37.37,0,0,0,0,.73Z" transform="translate(4 0)"/><path class="cls-9" d="M311.19,109.26a.37.37,0,0,0,0-.73.37.37,0,0,0,0,.73Z" transform="translate(4 0)"/><path class="cls-9" d="M315.16,109.26a.37.37,0,0,0,0-.73.37.37,0,0,0,0,.73Z" transform="translate(4 0)"/><path class="cls-9" d="M319.14,109.26a.37.37,0,0,0,0-.73.37.37,0,0,0,0,.73Z" transform="translate(4 0)"/><text class="cls-10" transform="translate(325.82 109.87)">$</text><text class="cls-7" transform="translate(187.03 55.74)">L<tspan class="cls-8" x="1.87" y="0">OREM IPSUM</tspan></text><path class="cls-9" d="M176.45,61.15c13.07.1,32.16.32,45.22,0,.13,0,.13-.2,0-.21-13.06-.3-32.15-.07-45.22,0a.08.08,0,0,0,0,.16Z" transform="translate(4 0)"/><path class="cls-9" d="M176.45,69.09c13.07.1,32.16.33,45.22,0a.11.11,0,0,0,0-.21c-13.06-.3-32.15-.08-45.22,0-.1,0-.1.16,0,.16Z" transform="translate(4 0)"/><path class="cls-9" d="M176.45,77c13.07.1,32.16.32,45.22,0,.13,0,.13-.2,0-.21-13.06-.3-32.15-.07-45.22,0-.1,0-.1.15,0,.16Z" transform="translate(4 0)"/><path class="cls-9" d="M176.45,85c13.07.1,32.16.33,45.22,0,.13,0,.13-.21,0-.21-13.06-.3-32.15-.08-45.22,0a.08.08,0,0,0,0,.16Z" transform="translate(4 0)"/><path class="cls-9" d="M176.45,92.92c13.07.11,32.16.33,45.22,0a.11.11,0,0,0,0-.21c-13.06-.3-32.15-.07-45.22,0a.08.08,0,0,0,0,.15Z" transform="translate(4 0)"/><path class="cls-9" d="M176.45,100.87c13.07.1,32.16.33,45.22,0,.13,0,.13-.21,0-.21-13.06-.3-32.15-.08-45.22,0a.08.08,0,0,0,0,.16Z" transform="translate(4 0)"/><path class="cls-9" d="M176.45,108.81c13.07.11,32.16.33,45.22,0a.11.11,0,0,0,0-.21c-13.06-.3-32.15-.07-45.22,0a.08.08,0,0,0,0,.15Z" transform="translate(4 0)"/><path class="cls-9" d="M226.21,61.43a.37.37,0,0,0,0-.73.37.37,0,0,0,0,.73Z" transform="translate(4 0)"/><path class="cls-9" d="M230.19,61.43a.37.37,0,0,0,0-.73.37.37,0,0,0,0,.73Z" transform="translate(4 0)"/><path class="cls-9" d="M234.16,61.43a.37.37,0,0,0,0-.73.37.37,0,0,0,0,.73Z" transform="translate(4 0)"/><path class="cls-9" d="M238.13,61.43a.37.37,0,0,0,0-.73.37.37,0,0,0,0,.73Z" transform="translate(4 0)"/><path class="cls-9" d="M242.11,61.43a.37.37,0,0,0,0-.73.37.37,0,0,0,0,.73Z" transform="translate(4 0)"/><text class="cls-10" transform="translate(248.79 62.04)">$</text><path class="cls-9" d="M226.21,69.4a.36.36,0,0,0,0-.72.36.36,0,0,0,0,.72Z" transform="translate(4 0)"/><path class="cls-9" d="M230.19,69.4a.36.36,0,0,0,0-.72.36.36,0,0,0,0,.72Z" transform="translate(4 0)"/><path class="cls-9" d="M234.16,69.4a.36.36,0,0,0,0-.72.36.36,0,0,0,0,.72Z" transform="translate(4 0)"/><path class="cls-9" d="M238.13,69.4a.36.36,0,0,0,0-.72.36.36,0,0,0,0,.72Z" transform="translate(4 0)"/><path class="cls-9" d="M242.11,69.4a.36.36,0,0,0,0-.72.36.36,0,0,0,0,.72Z" transform="translate(4 0)"/><text class="cls-10" transform="translate(248.79 70.02)">$</text><path class="cls-9" d="M226.21,77.37a.36.36,0,0,0,0-.72.36.36,0,0,0,0,.72Z" transform="translate(4 0)"/><path class="cls-9" d="M230.19,77.37a.36.36,0,0,0,0-.72.36.36,0,0,0,0,.72Z" transform="translate(4 0)"/><path class="cls-9" d="M234.16,77.37a.36.36,0,0,0,0-.72.36.36,0,0,0,0,.72Z" transform="translate(4 0)"/><path class="cls-9" d="M238.13,77.37a.36.36,0,0,0,0-.72.36.36,0,0,0,0,.72Z" transform="translate(4 0)"/><path class="cls-9" d="M242.11,77.37a.36.36,0,0,0,0-.72.36.36,0,0,0,0,.72Z" transform="translate(4 0)"/><text class="cls-10" transform="translate(248.79 77.99)">$</text><path class="cls-9" d="M226.21,85.35a.37.37,0,0,0,0-.73.37.37,0,0,0,0,.73Z" transform="translate(4 0)"/><path class="cls-9" d="M230.19,85.35a.37.37,0,0,0,0-.73.37.37,0,0,0,0,.73Z" transform="translate(4 0)"/><path class="cls-9" d="M234.16,85.35a.37.37,0,0,0,0-.73.37.37,0,0,0,0,.73Z" transform="translate(4 0)"/><path class="cls-9" d="M238.13,85.35a.37.37,0,0,0,0-.73.37.37,0,0,0,0,.73Z" transform="translate(4 0)"/><path class="cls-9" d="M242.11,85.35a.37.37,0,0,0,0-.73.37.37,0,0,0,0,.73Z" transform="translate(4 0)"/><text class="cls-10" transform="translate(248.79 85.96)">$</text><path class="cls-9" d="M226.21,93.32a.37.37,0,0,0,0-.73.37.37,0,0,0,0,.73Z" transform="translate(4 0)"/><path class="cls-9" d="M230.19,93.32a.37.37,0,0,0,0-.73.37.37,0,0,0,0,.73Z" transform="translate(4 0)"/><path class="cls-9" d="M234.16,93.32a.37.37,0,0,0,0-.73.37.37,0,0,0,0,.73Z" transform="translate(4 0)"/><path class="cls-9" d="M238.13,93.32a.37.37,0,0,0,0-.73.37.37,0,0,0,0,.73Z" transform="translate(4 0)"/><path class="cls-9" d="M242.11,93.32a.37.37,0,0,0,0-.73.37.37,0,0,0,0,.73Z" transform="translate(4 0)"/><text class="cls-10" transform="translate(248.79 93.93)">$</text><path class="cls-9" d="M226.21,101.29a.37.37,0,0,0,0-.73.37.37,0,0,0,0,.73Z" transform="translate(4 0)"/><path class="cls-9" d="M230.19,101.29a.37.37,0,0,0,0-.73.37.37,0,0,0,0,.73Z" transform="translate(4 0)"/><path class="cls-9" d="M234.16,101.29a.37.37,0,0,0,0-.73.37.37,0,0,0,0,.73Z" transform="translate(4 0)"/><path class="cls-9" d="M238.13,101.29a.37.37,0,0,0,0-.73.37.37,0,0,0,0,.73Z" transform="translate(4 0)"/><path class="cls-9" d="M242.11,101.29a.37.37,0,0,0,0-.73.37.37,0,0,0,0,.73Z" transform="translate(4 0)"/><text class="cls-10" transform="translate(248.79 101.9)">$</text><path class="cls-9" d="M226.21,109.26a.37.37,0,0,0,0-.73.37.37,0,0,0,0,.73Z" transform="translate(4 0)"/><path class="cls-9" d="M230.19,109.26a.37.37,0,0,0,0-.73.37.37,0,0,0,0,.73Z" transform="translate(4 0)"/><path class="cls-9" d="M234.16,109.26a.37.37,0,0,0,0-.73.37.37,0,0,0,0,.73Z" transform="translate(4 0)"/><path class="cls-9" d="M238.13,109.26a.37.37,0,0,0,0-.73.37.37,0,0,0,0,.73Z" transform="translate(4 0)"/><path class="cls-9" d="M242.11,109.26a.37.37,0,0,0,0-.73.37.37,0,0,0,0,.73Z" transform="translate(4 0)"/><text class="cls-10" transform="translate(248.79 109.87)">$</text><path class="cls-3" d="M80.76,254.39c-3.14-18-4.29-36.32,2.62-55.35a58.67,58.67,0,0,1,13.1-21.22c6.13-6.17,25.31-15.31,28-3.94,1.68,7.1-9.47,19.48-14.34,25.42-16.37,20-18.43,33.26-19.52,52.59" transform="translate(4 0)"/><path class="cls-11" d="M112.51,176.85c-17.89,17.34-24.45,40.27-23.36,60.74" transform="translate(4 0)"/><path class="cls-3" d="M69.21,243.44c-2.74-18-7-35.51-17.21-50.91-4-5.94-9.11-11.61-15.31-15.31s-22.45-5.52-21.24,6.06c.75,7.23,12.2,14.94,17.35,18.81,17.33,13,22.48,24.72,28.62,42.43" transform="translate(4 0)"/><path class="cls-12" d="M79.16,238.62a292.64,292.64,0,0,1-5.9-46.46c-.69-17.81.68-39.6,11.88-54.28,3.09-4,8.45-8,13.51-6.11,2.91,1.11,4.56,3.85,5.54,6.53,4.33,11.92-.63,24.71-4.63,36.69a285.11,285.11,0,0,0-12.51,60.52" transform="translate(4 0)"/><path class="cls-11" d="M94.25,147.58C83.79,170.72,79.76,209.43,80.05,237" transform="translate(4 0)"/><path class="cls-3" d="M74.68,237.59c3.79-18.26,3-47.08-1.24-65-3.61-15.23-9-36.15-23.15-44.58-8.92-5.32-22.78-3-26.58,7-2,5.3-.79,11.32,1.5,16.44,6,13.29,16.53,22.57,24.85,34.56,9.68,13.95,15.48,29.07,15.48,48" transform="translate(4 0)"/><path class="cls-11" d="M25.29,181.88c18.44,10,32.27,27.34,37.37,46.85" transform="translate(4 0)"/><path class="cls-11" d="M43.81,144.66C52.31,154.74,73.4,190,70,236.18" transform="translate(4 0)"/><path class="cls-13" d="M50.73,225.48v12.44c0,49.34,11.89,63.37,11.89,63.37H88.81s11.9-14,11.9-63.37V225.48Z" transform="translate(4 0)"/><g class="cls-14"><polygon class="cls-15" points="130.42 251.09 0 251.09 50.04 57.12 81.23 57.12 130.42 251.09"/><rect class="cls-16" x="64.34" width="1.5" height="45.74"/><path class="cls-16" d="M73.74,48.2a5.92,5.92,0,0,0-5.11-2.92l-.68-3H54.23l-.68,3a5.92,5.92,0,0,0-5.11,2.92L45,57.12H77.23Z" transform="translate(4 0)"/><polygon class="cls-17" points="466.26 251.09 335.84 251.09 385.88 57.12 417.07 57.12 466.26 251.09"/><rect class="cls-16" x="400.18" width="1.5" height="45.74"/><path class="cls-16" d="M409.58,48.2a5.93,5.93,0,0,0-5.11-2.92l-.68-3H390.07l-.69,3a5.92,5.92,0,0,0-5.1,2.92l-3.5,8.92h32.29Z" transform="translate(4 0)"/><polygon class="cls-18" points="536 251.09 405.57 251.09 455.62 57.12 486.81 57.12 536 251.09"/><rect class="cls-16" x="469.91" width="1.5" height="45.74"/><path class="cls-16" d="M479.31,48.2a5.91,5.91,0,0,0-5.1-2.92l-.69-3H459.81l-.69,3A5.91,5.91,0,0,0,454,48.2l-3.5,8.92h32.29Z" transform="translate(4 0)"/></g><path class="cls-9" d="M135.32,111.39V177H101.55V140.48c0-9.41,3.39-16.77,10.08-21.88,5.87-4.49,14.05-7,23.69-7.21m1-1c-19.78.15-35.77,9.62-35.77,30.1V178h35.77V110.38Z" transform="translate(4 0)"/><path class="cls-19" d="M195.21,178H100.55V140.48c0-20.57,16.14-30.11,36-30.11h58.62Z" transform="translate(4 0)"/><rect class="cls-16" x="105.11" y="158.17" width="94.1" height="2.45"/><rect class="cls-16" x="105.11" y="137.12" width="94.1" height="2.45"/><path class="cls-20" d="M113.67,177.41a3.82,3.82,0,0,1,1.41-3.22,6.3,6.3,0,0,1,5.9-1.51,6.13,6.13,0,0,1,4.1,4.73" transform="translate(4 0)"/><path class="cls-21" d="M122.41,177.41a3.88,3.88,0,0,1,1.41-3.22,6.31,6.31,0,0,1,5.9-1.51,6.13,6.13,0,0,1,4.1,4.73" transform="translate(4 0)"/><path class="cls-20" d="M132.46,177.41a3.82,3.82,0,0,1,1.41-3.22,6.3,6.3,0,0,1,5.9-1.51,6.15,6.15,0,0,1,4.1,4.73" transform="translate(4 0)"/><path class="cls-22" d="M159.46,158.17a3.84,3.84,0,0,1,1.41-3.22,6.32,6.32,0,0,1,5.9-1.5,6.15,6.15,0,0,1,4.1,4.72" transform="translate(4 0)"/><path class="cls-23" d="M168.2,158.17a3.89,3.89,0,0,1,1.41-3.22,6.33,6.33,0,0,1,5.9-1.5,6.13,6.13,0,0,1,4.1,4.72" transform="translate(4 0)"/><path class="cls-22" d="M178.25,158.17a3.84,3.84,0,0,1,1.41-3.22,6.32,6.32,0,0,1,5.9-1.5,6.17,6.17,0,0,1,4.1,4.72" transform="translate(4 0)"/><path class="cls-20" d="M155,169.48c-1.3,0-.75,7.93-.75,7.93h17.3v-7.93Z" transform="translate(4 0)"/><path class="cls-21" d="M164.57,169.48c-.55,0-.31,7.93-.31,7.93h7.3v-7.93Z" transform="translate(4 0)"/><path class="cls-20" d="M169.47,169.48c-1.3,0-.74,7.93-.74,7.93H186v-7.93Z" transform="translate(4 0)"/><path class="cls-21" d="M179,169.48c-.55,0-.32,7.93-.32,7.93H186v-7.93Z" transform="translate(4 0)"/><path class="cls-24" d="M109.39,150.25c-1.31,0-.75,7.92-.75,7.92h17.3v-7.92Z" transform="translate(4 0)"/><path class="cls-25" d="M119,150.25c-.55,0-.32,7.92-.32,7.92h7.31v-7.92Z" transform="translate(4 0)"/><path class="cls-24" d="M123.13,150.25c-1.31,0-.75,7.92-.75,7.92h17.3v-7.92Z" transform="translate(4 0)"/><path class="cls-25" d="M132.69,150.25c-.55,0-.31,7.92-.31,7.92h7.3v-7.92Z" transform="translate(4 0)"/><path class="cls-24" d="M139.78,150.25c-1.3,0-.74,7.92-.74,7.92h17.3v-7.92Z" transform="translate(4 0)"/><path class="cls-25" d="M149.35,150.25c-.55,0-.32,7.92-.32,7.92h7.31v-7.92Z" transform="translate(4 0)"/><path class="cls-26" d="M117.25,129.19c-1.3,0-.74,7.93-.74,7.93h17.3v-7.93Z" transform="translate(4 0)"/><path class="cls-23" d="M126.82,129.19c-.55,0-.32,7.93-.32,7.93h7.31v-7.93Z" transform="translate(4 0)"/><path class="cls-20" d="M131,129.19c-1.3,0-.74,7.93-.74,7.93h17.3v-7.93Z" transform="translate(4 0)"/><path class="cls-21" d="M140.56,129.19c-.55,0-.32,7.93-.32,7.93h7.31v-7.93Z" transform="translate(4 0)"/><path class="cls-20" d="M155,129.19c-1.3,0-.75,7.93-.75,7.93h17.3v-7.93Z" transform="translate(4 0)"/><path class="cls-21" d="M164.57,129.19c-.55,0-.31,7.93-.31,7.93h7.3v-7.93Z" transform="translate(4 0)"/><path class="cls-9" d="M194.21,111.37V177H101.55V140.48c0-9.46,3.42-16.85,10.16-22,6.15-4.67,14.75-7.14,24.88-7.14h57.62m1-1H136.59c-19.9,0-36,9.54-36,30.11V178h94.66V110.37Z" transform="translate(4 0)"/><g class="cls-27"><g class="cls-28"><polygon class="cls-9" points="160.07 168.11 153.61 160.88 201.61 115.06 208.07 122.28 160.07 168.11"/></g><g class="cls-28"><polygon class="cls-9" points="156.84 185.64 153.61 182.03 201.61 136.2 204.84 139.82 156.84 185.64"/></g></g><path class="cls-9" d="M194.21,111.39V177H160.43V140.48c0-9.41,3.39-16.77,10.08-21.88,5.88-4.49,14.05-7,23.7-7.21m1-1c-19.79.15-35.78,9.62-35.78,30.1V178h35.78V110.38Z" transform="translate(4 0)"/><rect class="cls-29" x="215.3" y="126.25" width="139.63" height="3.74"/><path class="cls-30" d="M220.16,127.52l-8.79,7.31c1,1.37,2.95,3.12,4.57,3.45,3,.6,5.56-1.67,6.67-4.31a4.33,4.33,0,0,0-.44-4A14.93,14.93,0,0,0,220.16,127.52Z" transform="translate(4 0)"/><path class="cls-30" d="M224.31,127.65a2.29,2.29,0,0,0-2.63-.59,2.59,2.59,0,0,0-1.41,2.59.35.35,0,0,0,.34.33.41.41,0,0,0,.41-.32h0c.13-.74.77-1.77,1.53-1.73a1.67,1.67,0,0,1,1.42,1.61c0,1.33-1.24,2.5-2.22,3.44l-.46.44a.47.47,0,0,0-.06.61.44.44,0,0,0,.38.21.43.43,0,0,0,.19,0,6.06,6.06,0,0,0,3.2-4A2.7,2.7,0,0,0,224.31,127.65Z" transform="translate(4 0)"/><path class="cls-30" d="M219.83,127.32a4.43,4.43,0,0,0-2.91.62,11.75,11.75,0,0,0-3.5,2.73,7.33,7.33,0,0,0-2.12,3.76c-.08.67.62.86,1.12.76a5,5,0,0,0,1.28-.54,16.63,16.63,0,0,0,2.84-2.09,22.11,22.11,0,0,0,2.14-2.08c.35-.37.72-.72,1-1.12s.77-.89.73-1.42A.67.67,0,0,0,219.83,127.32Z" transform="translate(4 0)"/><path class="cls-30" d="M237.66,127.52l-8.8,7.31c1,1.37,3,3.12,4.57,3.45,3,.6,5.57-1.67,6.67-4.31a4.33,4.33,0,0,0-.44-4A15.4,15.4,0,0,0,237.66,127.52Z" transform="translate(4 0)"/><path class="cls-30" d="M241.81,127.65a2.29,2.29,0,0,0-2.63-.59,2.58,2.58,0,0,0-1.41,2.59.34.34,0,0,0,.33.33.43.43,0,0,0,.42-.32h0c.13-.74.77-1.77,1.52-1.73a1.67,1.67,0,0,1,1.42,1.61c0,1.33-1.24,2.5-2.22,3.44l-.46.44a.49.49,0,0,0-.06.61.44.44,0,0,0,.38.21.48.48,0,0,0,.2,0,6.08,6.08,0,0,0,3.2-4A2.75,2.75,0,0,0,241.81,127.65Z" transform="translate(4 0)"/><path class="cls-30" d="M237.33,127.32a4.43,4.43,0,0,0-2.91.62,11.63,11.63,0,0,0-3.5,2.73,7.26,7.26,0,0,0-2.12,3.76c-.08.67.62.86,1.11.76a4.69,4.69,0,0,0,1.28-.54,16.63,16.63,0,0,0,2.84-2.09,21.12,21.12,0,0,0,2.15-2.08c.34-.37.72-.72,1-1.12s.77-.89.72-1.42A.66.66,0,0,0,237.33,127.32Z" transform="translate(4 0)"/><path class="cls-30" d="M255.15,127.52l-8.79,7.31c1,1.37,2.95,3.12,4.57,3.45,3,.6,5.56-1.67,6.67-4.31a4.33,4.33,0,0,0-.44-4A14.93,14.93,0,0,0,255.15,127.52Z" transform="translate(4 0)"/><path class="cls-30" d="M259.3,127.65a2.29,2.29,0,0,0-2.63-.59,2.58,2.58,0,0,0-1.41,2.59.34.34,0,0,0,.34.33.41.41,0,0,0,.41-.32h0c.13-.74.77-1.77,1.53-1.73a1.67,1.67,0,0,1,1.42,1.61c0,1.33-1.24,2.5-2.23,3.44-.15.16-.31.3-.45.44a.49.49,0,0,0-.07.61.46.46,0,0,0,.39.21.43.43,0,0,0,.19,0,6.06,6.06,0,0,0,3.2-4A2.7,2.7,0,0,0,259.3,127.65Z" transform="translate(4 0)"/><path class="cls-30" d="M254.82,127.32a4.43,4.43,0,0,0-2.91.62,11.75,11.75,0,0,0-3.5,2.73,7.26,7.26,0,0,0-2.12,3.76c-.08.67.62.86,1.12.76a5,5,0,0,0,1.28-.54,17,17,0,0,0,2.84-2.09,22.11,22.11,0,0,0,2.14-2.08c.35-.37.72-.72,1-1.12s.77-.89.73-1.42A.67.67,0,0,0,254.82,127.32Z" transform="translate(4 0)"/><path class="cls-30" d="M272.64,127.52l-8.79,7.31c1,1.37,2.95,3.12,4.57,3.45,3,.6,5.57-1.67,6.67-4.31a4.33,4.33,0,0,0-.44-4A14.93,14.93,0,0,0,272.64,127.52Z" transform="translate(4 0)"/><path class="cls-30" d="M276.8,127.65a2.29,2.29,0,0,0-2.63-.59,2.56,2.56,0,0,0-1.41,2.59.34.34,0,0,0,.33.33.43.43,0,0,0,.42-.32h0c.12-.74.77-1.77,1.52-1.73a1.67,1.67,0,0,1,1.42,1.61c0,1.33-1.24,2.5-2.22,3.44l-.46.44a.49.49,0,0,0-.06.61.44.44,0,0,0,.38.21.48.48,0,0,0,.2,0,6,6,0,0,0,3.19-4A2.72,2.72,0,0,0,276.8,127.65Z" transform="translate(4 0)"/><path class="cls-30" d="M272.32,127.32a4.43,4.43,0,0,0-2.91.62,11.51,11.51,0,0,0-3.5,2.73,7.26,7.26,0,0,0-2.12,3.76c-.09.67.62.86,1.11.76a4.69,4.69,0,0,0,1.28-.54,16.63,16.63,0,0,0,2.84-2.09,21.12,21.12,0,0,0,2.15-2.08c.34-.37.71-.72,1-1.12s.77-.89.72-1.42A.66.66,0,0,0,272.32,127.32Z" transform="translate(4 0)"/><path class="cls-30" d="M289.91,127.52l-8.8,7.31c1.05,1.37,3,3.12,4.57,3.45,3,.6,5.57-1.67,6.67-4.31a4.33,4.33,0,0,0-.44-4A14.87,14.87,0,0,0,289.91,127.52Z" transform="translate(4 0)"/><path class="cls-30" d="M294.06,127.65a2.29,2.29,0,0,0-2.63-.59,2.58,2.58,0,0,0-1.41,2.59.34.34,0,0,0,.34.33.42.42,0,0,0,.41-.32h0c.13-.74.77-1.77,1.52-1.73a1.67,1.67,0,0,1,1.42,1.61c0,1.33-1.24,2.5-2.22,3.44l-.45.44a.47.47,0,0,0-.07.61.45.45,0,0,0,.39.21.46.46,0,0,0,.19,0,6.08,6.08,0,0,0,3.2-4A2.75,2.75,0,0,0,294.06,127.65Z" transform="translate(4 0)"/><path class="cls-30" d="M289.58,127.32a4.43,4.43,0,0,0-2.91.62,11.63,11.63,0,0,0-3.5,2.73,7.26,7.26,0,0,0-2.12,3.76c-.08.67.62.86,1.12.76a4.77,4.77,0,0,0,1.27-.54,16.63,16.63,0,0,0,2.84-2.09,21.12,21.12,0,0,0,2.15-2.08c.35-.37.72-.72,1-1.12s.77-.89.72-1.42A.66.66,0,0,0,289.58,127.32Z" transform="translate(4 0)"/><path class="cls-30" d="M307.17,127.52l-8.79,7.31c1.05,1.37,2.95,3.12,4.56,3.45,3,.6,5.57-1.67,6.68-4.31a4.33,4.33,0,0,0-.44-4A15.47,15.47,0,0,0,307.17,127.52Z" transform="translate(4 0)"/><path class="cls-30" d="M311.32,127.65a2.29,2.29,0,0,0-2.63-.59,2.58,2.58,0,0,0-1.41,2.59.34.34,0,0,0,.34.33.42.42,0,0,0,.41-.32h0c.13-.74.77-1.77,1.52-1.73a1.66,1.66,0,0,1,1.42,1.61c0,1.33-1.24,2.5-2.22,3.44l-.45.44a.47.47,0,0,0-.07.61.46.46,0,0,0,.39.21.43.43,0,0,0,.19,0,6.06,6.06,0,0,0,3.2-4A2.73,2.73,0,0,0,311.32,127.65Z" transform="translate(4 0)"/><path class="cls-30" d="M306.84,127.32a4.43,4.43,0,0,0-2.91.62,11.75,11.75,0,0,0-3.5,2.73,7.26,7.26,0,0,0-2.12,3.76c-.08.67.62.86,1.12.76a4.77,4.77,0,0,0,1.27-.54,17.1,17.1,0,0,0,2.85-2.09,22.11,22.11,0,0,0,2.14-2.08c.35-.37.72-.72,1-1.12s.77-.89.72-1.42A.66.66,0,0,0,306.84,127.32Z" transform="translate(4 0)"/><path class="cls-30" d="M324.43,127.52l-8.79,7.31c1.05,1.37,2.95,3.12,4.57,3.45,3,.6,5.56-1.67,6.67-4.31a4.33,4.33,0,0,0-.44-4A14.93,14.93,0,0,0,324.43,127.52Z" transform="translate(4 0)"/><path class="cls-30" d="M328.58,127.65a2.29,2.29,0,0,0-2.63-.59,2.58,2.58,0,0,0-1.41,2.59.34.34,0,0,0,.34.33.41.41,0,0,0,.41-.32h0c.13-.74.77-1.77,1.53-1.73a1.67,1.67,0,0,1,1.42,1.61c0,1.33-1.24,2.5-2.23,3.44-.15.16-.31.3-.45.44a.47.47,0,0,0-.06.61.46.46,0,0,0,.57.17,6.06,6.06,0,0,0,3.2-4A2.7,2.7,0,0,0,328.58,127.65Z" transform="translate(4 0)"/><path class="cls-30" d="M324.1,127.32a4.43,4.43,0,0,0-2.91.62,11.75,11.75,0,0,0-3.5,2.73,7.33,7.33,0,0,0-2.12,3.76c-.08.67.62.86,1.12.76a5,5,0,0,0,1.28-.54,16.63,16.63,0,0,0,2.84-2.09,22.11,22.11,0,0,0,2.14-2.08c.35-.37.72-.72,1-1.12s.77-.89.73-1.42A.67.67,0,0,0,324.1,127.32Z" transform="translate(4 0)"/><path class="cls-30" d="M341.69,127.52l-8.79,7.31c1.05,1.37,3,3.12,4.57,3.45,3,.6,5.56-1.67,6.67-4.31a4.33,4.33,0,0,0-.44-4A14.93,14.93,0,0,0,341.69,127.52Z" transform="translate(4 0)"/><path class="cls-30" d="M345.84,127.65a2.28,2.28,0,0,0-2.62-.59,2.58,2.58,0,0,0-1.42,2.59.36.36,0,0,0,.34.33.41.41,0,0,0,.41-.32h0c.13-.74.77-1.77,1.53-1.73a1.67,1.67,0,0,1,1.42,1.61c0,1.33-1.24,2.5-2.22,3.44l-.46.44a.47.47,0,0,0-.06.61.44.44,0,0,0,.38.21.43.43,0,0,0,.19,0,6.06,6.06,0,0,0,3.2-4A2.7,2.7,0,0,0,345.84,127.65Z" transform="translate(4 0)"/><path class="cls-30" d="M341.36,127.32a4.43,4.43,0,0,0-2.91.62,11.75,11.75,0,0,0-3.5,2.73,7.33,7.33,0,0,0-2.12,3.76c-.08.67.62.86,1.12.76a5,5,0,0,0,1.28-.54,16.63,16.63,0,0,0,2.84-2.09,23.42,23.42,0,0,0,2.15-2.08c.34-.37.71-.72,1-1.12s.77-.89.72-1.42A.66.66,0,0,0,341.36,127.32Z" transform="translate(4 0)"/><path class="cls-31" d="M268.45,290c1.36,2,.87,5.3.4,5.3s-12.65.83-12.65-.33c0-1.72,8.85-4.56,8.85-4.56" transform="translate(4 0)"/><path class="cls-31" d="M302,290.41s-9,2.48-9,4.2c0,1.15,9.67.69,12.78.69,1.17,0,.66-3.3-.7-5.3" transform="translate(4 0)"/><path class="cls-16" d="M306.26,168.85s4.27,13.5,4.44,19.93c.52,20.56-.93,22.45-2.63,44.88,3.36,16.4.69,37.84-2.38,57.25h-9.18s-4.44-44-6.37-56.72c-1.36-8.94-7.05-29.94-7.05-29.94s-1.63,9.86-4.78,30.07c3.85,17.58-5.6,39.72-9.26,56.59l-8.49-.19s1.33-31.55.37-58.26c-1-26.22,0-54.47,2.23-60" transform="translate(4 0)"/><path class="cls-32" d="M227.55,159.06l-12.2,8.21s-9.32-1.09-10.56.15,2.14,1.73,2.14,1.73-6.34,0-6.34,1.09,5.92,3.37,8.48,3.37,8.08-.63,9-1.51,20.3-9.23,20.3-9.23" transform="translate(4 0)"/><path class="cls-9" d="M264.26,113.69s-7.67,1.69-13,6.82c-7.91,7.53-15,26.05-17.11,29.32-2.73,4.23-8.65,9.35-8.65,9.35l5.89,7.36s1.83.55,11.8-4.55c15.8-8.09,25.23-31.24,25.23-31.24" transform="translate(4 0)"/><path class="cls-33" d="M228.51,155.9c.91,2.09,6.23,10,6.1,10.07a2,2,0,0,1-1.82,1,1.58,1.58,0,0,0-.81,0,1.69,1.69,0,0,0-.38.28,4.23,4.23,0,0,1-1.38.8c-1.57-2-6-8.46-5.76-9.7.44-.64,1-.24,1.7-.58.87-.44.58-1.51,2.35-1.89" transform="translate(4 0)"/><path class="cls-9" d="M215.3,169.35c-.34-.93-2.48-1.42-3.9-1.69a21.86,21.86,0,0,0-6.61-.24,19.6,19.6,0,0,0-3.89.71c-.91.28-2.87.84-2.27,2a2.1,2.1,0,0,0,.89.8,13.44,13.44,0,0,0,6.33,1.2,36.25,36.25,0,0,0,5.61-.41C212.31,171.55,215.81,170.76,215.3,169.35Z" transform="translate(4 0)"/><path class="cls-34" d="M212,163.06l-11.44-.17c-.09,1.72.21,4.29,1.23,5.59,1.89,2.41,5.31,2.36,7.87,1.07a4.3,4.3,0,0,0,2.28-3.34A15.07,15.07,0,0,0,212,163.06Z" transform="translate(4 0)"/><path class="cls-34" d="M211.14,165.05c.61-.5,1.94-1,2.61-.3a1.9,1.9,0,0,1,.05,2.48c-1.1,1.25-3.24,1.19-4.73,1.3a.23.23,0,0,0-.06.44c2,.65,6-.44,5.84-3.09-.16-2.22-2.65-2.69-3.91-1-.1.12.1.24.2.15Z" transform="translate(4 0)"/><path class="cls-9" d="M211.92,162.69a4.46,4.46,0,0,0-2.61-1.42,11.86,11.86,0,0,0-4.44-.2,7.31,7.31,0,0,0-4.06,1.47c-.49.46-.09,1.06.36,1.31a4.73,4.73,0,0,0,1.32.42,16.56,16.56,0,0,0,3.51.26,23,23,0,0,0,3-.18c.5-.06,1-.09,1.52-.18s1.16-.17,1.47-.61A.66.66,0,0,0,211.92,162.69Z" transform="translate(4 0)"/><path class="cls-35" d="M205.11,163a6.12,6.12,0,0,0-3.17,1.15l.55.13a16.56,16.56,0,0,0,3.51.26,23,23,0,0,0,3-.18c.5-.06,1-.09,1.52-.18l.15,0a4.1,4.1,0,0,0-1.92-1A9.65,9.65,0,0,0,205.11,163Z" transform="translate(4 0)"/><path class="cls-9" d="M299.79,124.06c4.54,7.5,10.87,29.27,10.49,56.85-.09,6.37-52.6,7.07-53.22,2.52,3.85-12.6-6.23-66,1.54-67.2a65.5,65.5,0,0,0,6.08-2.75s14.17-.23,17.59-.69C288.6,112.35,295.25,116.57,299.79,124.06Z" transform="translate(4 0)"/><path class="cls-36" d="M257.06,150.94s-.54-12.84-3.14-20.19" transform="translate(4 0)"/><path class="cls-31" d="M257.26,209.31S258,180,258,173.93s-2.48-35.24-2.48-35.24.73-8.49,3.86-9.78c1.11-1.11,13.38-.69,20-.69,11.92,24.84,26.17,35.93,26.17,35.93s3.81,63.38,0,67.19-47.63,4.11-47.63,0S257.26,222.79,257.26,209.31Z" transform="translate(4 0)"/><path class="cls-37" d="M259.12,130.75c0-.78.2-16.45,5.56-17.27s15.9-3.18,17.53-1c1,1.28-2.89,6.79-2.89,16.42" transform="translate(4 0)"/><path class="cls-37" d="M309.78,165.25s-1.87-1.1-6-1.1" transform="translate(4 0)"/><path class="cls-31" d="M309.26,165.27c.38.68.81,1.32,1.13,2a6.9,6.9,0,0,0,1,1.81c.55.64,1.82,1.37,2.42.42,1.3-2-1.8-5-3.85-4.51-.29.07-.23.43,0,.53a7.85,7.85,0,0,1,2.28.94,3.67,3.67,0,0,1,.94,1.1c.3.54.5,2-.64,1.63-.89-.3-1.27-1.46-1.64-2.21a6.49,6.49,0,0,0-1.41-1.92.14.14,0,0,0-.21.17Z" transform="translate(4 0)"/><path class="cls-31" d="M309.4,165.39c3.63,1.52,3.69,6.55,4.12,9.85a.25.25,0,0,0,.49,0c.27-3.2-.71-9.33-4.52-10.14a.15.15,0,0,0-.09.29Z" transform="translate(4 0)"/><path class="cls-38" d="M249.48,151.46a48.77,48.77,0,0,0,4.73-3.11,14.75,14.75,0,0,0,2.4-2.13,8.69,8.69,0,0,0,.88-1.21.81.81,0,0,0,.16-.55c-.07-.38-.59-.45-1-.41a15.67,15.67,0,0,0-5.81,2.18,30,30,0,0,0-3.65,2.37,19.3,19.3,0,0,0-1.9,1.71c-.3.31-.6.63-.88,1a5.6,5.6,0,0,0-.78,1,5.29,5.29,0,0,0-.25.54,5,5,0,0,1-.38.63,2.08,2.08,0,0,0-.39.77,37.57,37.57,0,0,0,4.91-1,18.5,18.5,0,0,0,2.35-1" transform="translate(4 0)"/><path class="cls-39" d="M257.62,144.37c0,1.11-2.44,2.72-3.7,3.63a52.16,52.16,0,0,1-6.78,3.78c-1.5.8-3.22,1.24-4.5,2.41a2.22,2.22,0,0,0,1.17.44,7.14,7.14,0,0,1,3.95,2c.73.89,1.52,1.71,2.33,2.54,1.8,1.84,3.62,3.66,5.49,5.42,1.11,1.06,2.23,2.1,3.43,3.06.5.4,1.33,1.24,2,1.24,2,0,6.21-4.46,6.21-5.54S257.62,144.37,257.62,144.37Z" transform="translate(4 0)"/><path class="cls-32" d="M268.42,156.14a17.61,17.61,0,0,0-3.33.86,20.72,20.72,0,0,1-4,.93,19.44,19.44,0,0,1-2,.19,13,13,0,0,1-2,0c-.15,0-.34-.09-.38-.24s.17-.33.35-.4c.86-.33,1.78-.43,2.66-.71a1.76,1.76,0,0,0,.69-.36,17.89,17.89,0,0,1-4.38.42,6.78,6.78,0,0,1-1-.1.38.38,0,0,1-.25-.11.34.34,0,0,1,.07-.46,1,1,0,0,1,.5-.16c1.1-.14,2.2-.32,3.3-.52a5.32,5.32,0,0,0,1.62-.48,27.39,27.39,0,0,1-5.94-.17.29.29,0,0,1-.19-.11c-.06-.11.05-.23.16-.29a1.76,1.76,0,0,1,.72-.16,20.36,20.36,0,0,0,4.24-.81,1.25,1.25,0,0,0,.42-.2,1.61,1.61,0,0,0-.58-.1c-1.34-.05-2.68-.16-4-.32a.47.47,0,0,1-.29-.11.32.32,0,0,1,.05-.44,1,1,0,0,1,.46-.18c.75-.14,1.51-.27,2.27-.37s1.41-.33,2.1-.49a1.33,1.33,0,0,0,.8-.4c.43-.63-.17-1.1-.42-2.07a11.55,11.55,0,0,1,4.15.88c1.6.7,3.84,1.95,3.84,1.95l15.45-.71.6,7.6-7.36-1.33-5.28-.95A9.6,9.6,0,0,0,268.42,156.14Z" transform="translate(4 0)"/><path class="cls-9" d="M284.65,112.79s9.87,0,15.72,12.42c5.26,11.18,8.47,33-.58,35.16-8.23,2-17.58-.75-17.58-.75l-2.89-8.79,12.38-3.4" transform="translate(4 0)"/><polyline class="cls-36" points="284.45 150.21 295.24 147.9 288.65 130.75"/><path class="cls-36" d="M282.91,159.92a49.84,49.84,0,0,0,15.91.66c7.72-1.06,7.09-12.38,5.86-18.53" transform="translate(4 0)"/><path class="cls-33" d="M281.28,149c.26,2.27,3,11.41,2.87,11.42a1.93,1.93,0,0,1-2,.41,1.56,1.56,0,0,0-.78-.2,1.49,1.49,0,0,0-.45.15,4.38,4.38,0,0,1-1.55.36c-.91-2.4-3.29-9.86-2.65-11,.6-.48,1,.08,1.79-.05,1-.17,1-1.28,2.8-1.12" transform="translate(4 0)"/><path class="cls-40" d="M281.22,96.26a29,29,0,0,1-3.05,7.54,6,6,0,0,1-1.88,2.11,6.06,6.06,0,0,1-2.47.7,25.3,25.3,0,0,1-5.77,0,6.61,6.61,0,0,1-2.19-.56c-1.76-.88-2.55-3-2.9-4.91s-.48-4-1.52-5.69a13.45,13.45,0,0,1-1.65-2.56,5.46,5.46,0,0,1-.12-2.48,10.47,10.47,0,0,1,1.1-3.71,5.32,5.32,0,0,1,2.83-2.54c1.52-.53,3.24-.17,4.76-.68,1.13-.37,2.1-1.21,3.28-1.36,2.29-.29,4.11,2.06,6.4,2.39a3.71,3.71,0,0,1,1,.2,2.18,2.18,0,0,1,.64.5,9,9,0,0,1,2.4,5.18,8.78,8.78,0,0,1-.14,2.89C281.72,94.27,281.48,95.26,281.22,96.26Z" transform="translate(4 0)"/><line class="cls-41" x1="266.2" y1="97.64" x2="268.86" y2="99.35"/><path class="cls-32" d="M278.27,100.24,280,112l.38,1s-5.58,4.08-8.86,3.6a11.75,11.75,0,0,1-5.83-3l.92-.81,1-9.11" transform="translate(4 0)"/><path class="cls-32" d="M275.8,90.62c1.51,2.13,2.57,8.19.55,11.94-1.65,3-4,4.53-6.12,4.59-3,.09-4.57-1.6-5.83-4.32a22,22,0,0,1-2-10.4C262.88,88.8,271.38,84.38,275.8,90.62Z" transform="translate(4 0)"/><path class="cls-42" d="M274.27,93.38c-.94-.42-2.44-.85-3.4-.3-.2.11-.09.36.1.39.5.06,1-.08,1.51-.07a6.68,6.68,0,0,1,1.67.25c.16,0,.28-.2.12-.27Z" transform="translate(4 0)"/><path class="cls-42" d="M263.51,94.73a10.68,10.68,0,0,1,1.47-.52c.5-.11,1-.09,1.53-.23a.18.18,0,0,0,0-.34,3.53,3.53,0,0,0-3.17.81.17.17,0,0,0,.17.28Z" transform="translate(4 0)"/><path class="cls-42" d="M264.75,97.07l.06.05c.28.29.61,1.31.35,1.66s-1,.19-1-.34C264.22,98.15,264,96.5,264.75,97.07Z" transform="translate(4 0)"/><path class="cls-42" d="M272,96.31l.06,0c.28.29.61,1.32.35,1.66s-1,.19-1-.34C271.48,97.39,271.22,95.74,272,96.31Z" transform="translate(4 0)"/><path class="cls-43" d="M268.34,97.6s-1,3.14-.18,3.58a2.26,2.26,0,0,0,1.72.08" transform="translate(4 0)"/><path class="cls-40" d="M270.72,85.13a9.15,9.15,0,0,1,5.47,2.35,10.74,10.74,0,0,1,3.3,5.32,11.52,11.52,0,0,1,.12,2.49,8.79,8.79,0,0,1-1,4.74,5.36,5.36,0,0,0-.53.86,2.36,2.36,0,0,0-.12,1.09,8.68,8.68,0,0,1,.17,2.53,6.91,6.91,0,0,1-.57,1.42,7.83,7.83,0,0,1-1,2.07,4.21,4.21,0,0,1-2.15,1.14,19.5,19.5,0,0,1-4.16.66,10.63,10.63,0,0,1-4.69-.55,1.64,1.64,0,0,1-.74-.49,1.8,1.8,0,0,1-.3-.71,9.65,9.65,0,0,1-.35-1.68c0-.37.08-.72.06-1.08-.06-1.17-.7-2.23-.69-3.44a3.14,3.14,0,0,0,1.79.47,30.76,30.76,0,0,0,8.76-.8,2.58,2.58,0,0,0,.93-.4,2.7,2.7,0,0,0,.71-1.91c.11-1.14.21-2.29.32-3.43a10.64,10.64,0,0,0,.06-2.11,2.51,2.51,0,0,0-.94-1.89,2.68,2.68,0,0,0-1.21-.34,26.09,26.09,0,0,1-4.25-.27c-1-.26-2.06-.82-3-.39-.56.25-.95.82-1.52,1.06s-1,.17-1.4.48a2,2,0,0,0-.51.76,3.79,3.79,0,0,1-.77,1.2c-.26.24-.9.65-1.27.39s-.2-1-.17-1.33a7.2,7.2,0,0,1,.9-2.94,12.84,12.84,0,0,1,1.29-2A9,9,0,0,1,270.72,85.13Z" transform="translate(4 0)"/><path class="cls-9" d="M272,103l-4.33.45s.51,2,2,2C271.89,105.43,272,103,272,103Z" transform="translate(4 0)"/><path class="cls-41" d="M269.92,97.35a2.68,2.68,0,1,0,2.39-2.94A2.68,2.68,0,0,0,269.92,97.35Z" transform="translate(4 0)"/><path class="cls-41" d="M262.25,98.14a2.68,2.68,0,1,0,2.4-2.94A2.69,2.69,0,0,0,262.25,98.14Z" transform="translate(4 0)"/><path class="cls-41" d="M269.9,97.11a2.76,2.76,0,0,0-2.35.24" transform="translate(4 0)"/><line class="cls-41" x1="279.26" y1="96.8" x2="281.92" y2="98.51"/><path class="cls-32" d="M277.76,97.26a.89.89,0,0,1,.58,0c1.1.47.9,2,.47,2.91a3,3,0,0,1-.91,1.26.88.88,0,0,1-.91.06.94.94,0,0,1-.38-.79c0-.3.05-.6.05-.9s-.09-.76-.07-1.14A1.53,1.53,0,0,1,277.76,97.26Z" transform="translate(4 0)"/><path class="cls-33" d="M279.89,110.6s-7.2,5.42-8.41,6c1.2,1.68,3.2,4.88,3.2,4.88l7-8.69Z" transform="translate(4 0)"/><polygon class="cls-33" points="270.67 111.78 275.48 116.58 272.37 121.14 268.57 114 270.67 111.78"/><path class="cls-3" d="M429,270.65c1-19.63,3.84-38.95,14.11-56.88a57,57,0,0,1,16.31-18.54c6.84-4.78,26.07-9.11,26.09,3.44,0,7.84-12.67,17.71-18.32,22.59-19,16.37-23.68,29.63-28.76,49.44" transform="translate(4 0)"/><path class="cls-12" d="M425.43,263.51a304.42,304.42,0,0,1-8.1-51.5c-1.23-19.77-.1-44,12.91-60.55,3.59-4.56,9.89-9.12,16-7.07,3.48,1.17,5.52,4.19,6.74,7.14,5.44,13.16-.18,27.47-4.67,40.87a297.92,297.92,0,0,0-13.53,67.5" transform="translate(4 0)"/><path class="cls-11" d="M441.12,160.67c-8.43,31.39-16.44,71-10.91,102.84" transform="translate(4 0)"/><path class="cls-3" d="M424.44,260.4c1.41-17-2.48-34-9.49-49.77C409,197.27,400.31,179,384.27,173c-10.15-3.78-24.41,0-27,9.43-1.37,5,.77,10.34,3.91,14.7,8.16,11.33,20.82,19.92,31.28,29.8,12.17,11.49,17.62,23.46,19.85,39" transform="translate(4 0)"/><path class="cls-11" d="M474.05,198.54c-19.82,13.21-33.44,33.66-36.8,55.26" transform="translate(4 0)"/><path class="cls-11" d="M379.81,188.84c10.37,8.13,34.5,38.82,39.22,68" transform="translate(4 0)"/><path class="cls-13" d="M401.8,250v8.42c0,33.38,12.42,42.87,12.42,42.87h27.36S454,291.8,454,258.42V250Z" transform="translate(4 0)"/><rect class="cls-44" x="357.96" y="147.73" width="21.44" height="30.21"/><rect class="cls-22" x="357.96" y="147.73" width="21.44" height="2.62"/><rect class="cls-22" x="357.96" y="175.33" width="21.44" height="2.62"/><rect class="cls-45" x="363.22" y="155.15" width="10.92" height="15.39"/><path class="cls-22" d="M365.78,166.65a1.11,1.11,0,1,1-1.11-1.1A1.11,1.11,0,0,1,365.78,166.65Z" transform="translate(4 0)"/><path class="cls-22" d="M365.56,162.12a.89.89,0,1,1-.89-.89A.88.88,0,0,1,365.56,162.12Z" transform="translate(4 0)"/><path class="cls-46" d="M370.09,147.73v-3.61l2.85-1.29a7.3,7.3,0,0,0,4.26-6L379.86,109H349.49l2.66,27.92a7.28,7.28,0,0,0,4.26,6l2.85,1.29v3.61" transform="translate(4 0)"/><polygon class="cls-47" points="353.81 112.29 383.54 112.29 383.86 108.96 353.49 108.96 353.81 112.29"/><path class="cls-48" d="M353.16,123.09l1.36,14.21a5.92,5.92,0,0,0,3.45,4.83l2.31,1v2.93h8.79v-2.93l2.31-1a5.92,5.92,0,0,0,3.45-4.83l1.36-14.21Z" transform="translate(4 0)"/><g class="cls-49"><g class="cls-28"><rect class="cls-9" x="326.99" y="118.68" width="62.55" height="9.11" transform="translate(93.24 390) rotate(-63.74)"/></g><g class="cls-28"><polygon class="cls-9" points="360.89 157.99 357.96 154.79 385.63 98.7 388.57 101.9 360.89 157.99"/></g></g><rect class="cls-29" x="95.55" y="177.75" width="319.04" height="123.54"/><rect class="cls-16" x="95.55" y="177.75" width="319.04" height="8.52"/><line class="cls-50" x1="95.55" y1="202.28" x2="414.58" y2="202.28"/><line class="cls-50" x1="95.55" y1="227.94" x2="414.58" y2="227.94"/><line class="cls-50" x1="95.55" y1="253.6" x2="414.58" y2="253.6"/><line class="cls-50" x1="95.55" y1="279.26" x2="414.58" y2="279.26"/><path class="cls-51" d="M149,318.39h-.07c-.55-.06-1-.78-.92-1.61l-1.5-73.23,3.78.22L150,317C149.91,317.79,149.47,318.39,149,318.39Z" transform="translate(4 0)"/><path class="cls-51" d="M139.18,323.36h-.07c-.55-.06-1-.78-.92-1.61l-2.82-72.23,3.78.22,1,72.23C140.13,322.76,139.7,323.36,139.18,323.36Z" transform="translate(4 0)"/><path class="cls-51" d="M173.15,318.39h-.07c-.54-.06-1-.78-.92-1.61l-1.5-73.23,3.78.22-.3,73.23C174.1,317.79,173.67,318.39,173.15,318.39Z" transform="translate(4 0)"/><path class="cls-51" d="M163.38,323.36h-.08c-.54-.06-1-.78-.91-1.61l-2.83-72.23,3.78.22,1,72.23C164.33,322.76,163.89,323.36,163.38,323.36Z" transform="translate(4 0)"/><path class="cls-16" d="M166.58,253.9c-8.3,1.65-27.39.9-32.68-.77-.62-.2-.85-3.18-.15-4.16,2.06-2.85,7.89-2.83,10-2.83,3.92,0,26.35-3,32.2-3,1,.92.88,2.43.82,3.34C176.63,249,171.33,253,166.58,253.9Z" transform="translate(4 0)"/><path class="cls-52" d="M167.13,250.1c-8.17,2.51-28.42,1.2-32.91.06-3.93-1,8.77-8.28,12.25-8.77,5.51-.78,11.54-.77,22.32-.28,3.28.15,8.16,1.4,7.39,3C175,246.5,170.23,249.14,167.13,250.1Z" transform="translate(4 0)"/><line class="cls-51" x1="141.58" y1="252.63" x2="139.01" y2="217.55"/><line class="cls-51" x1="166.07" y1="252.63" x2="167.64" y2="217.55"/><path class="cls-16" d="M172.19,205.3c-2.31-3.8-8.48-.79-11.67-.07-6.29,1.42-13.64.91-20,.27-2.33-.23-4.67-1.18-7.07-1.11-4.93.13-3.2,8.82-2.89,11.56a20.4,20.4,0,0,0,1.87,5.8c3.32,5,10.36,3.1,28.63,3.1,5.78,0,9-2.72,10.77-5.78a6.72,6.72,0,0,0,.69-2.66c.36-3.25,1.36-7.44,0-10.61A3.38,3.38,0,0,0,172.19,205.3Z" transform="translate(4 0)"/><path class="cls-51" d="M351.05,318.39h.07c.55-.06,1-.78.92-1.61l1.5-73.23-3.78.22.3,73.23C350.1,317.79,350.54,318.39,351.05,318.39Z" transform="translate(4 0)"/><path class="cls-51" d="M360.83,323.36h.07c.55-.06,1-.78.92-1.61l2.82-72.23-3.78.22-1,72.23C359.88,322.76,360.31,323.36,360.83,323.36Z" transform="translate(4 0)"/><path class="cls-51" d="M326.86,318.39h.07c.55-.06,1-.78.92-1.61l1.5-73.23-3.78.22.3,73.23C325.91,317.79,326.34,318.39,326.86,318.39Z" transform="translate(4 0)"/><path class="cls-51" d="M336.64,323.36h.07c.54-.06,1-.78.92-1.61l2.82-72.23-3.78.22-1,72.23C335.69,322.76,336.12,323.36,336.64,323.36Z" transform="translate(4 0)"/><path class="cls-16" d="M333.43,253.9c8.3,1.65,27.39.9,32.68-.77.62-.2.86-3.18.15-4.16-2.06-2.85-7.89-2.83-10-2.83-3.92,0-26.35-3-32.2-3-1,.92-.87,2.43-.82,3.34C323.39,249,328.68,253,333.43,253.9Z" transform="translate(4 0)"/><path class="cls-52" d="M332.88,250.1c8.17,2.51,28.42,1.2,32.91.06,3.93-1-8.77-8.28-12.25-8.77-5.51-.78-11.53-.77-22.32-.28-3.28.15-8.16,1.4-7.38,3C325,246.5,329.78,249.14,332.88,250.1Z" transform="translate(4 0)"/><line class="cls-51" x1="366.43" y1="252.63" x2="369.01" y2="217.55"/><line class="cls-51" x1="341.95" y1="252.63" x2="340.37" y2="217.55"/><path class="cls-16" d="M327.82,205.3c2.31-3.8,8.49-.79,11.68-.07,6.28,1.42,13.63.91,20,.27,2.33-.23,4.68-1.18,7.07-1.11,4.93.13,3.2,8.82,2.89,11.56a20.4,20.4,0,0,1-1.87,5.8c-3.32,5-10.36,3.1-28.63,3.1-5.78,0-9-2.72-10.77-5.78a6.72,6.72,0,0,1-.69-2.66c-.36-3.25-1.36-7.44.06-10.61A4.66,4.66,0,0,1,327.82,205.3Z" transform="translate(4 0)"/><path class="cls-51" d="M277.69,318.39h.08c.54-.06,1-.78.91-1.61l1.5-73.23-3.78.22.31,73.23C276.74,317.79,277.18,318.39,277.69,318.39Z" transform="translate(4 0)"/><path class="cls-51" d="M287.47,323.36h.07c.55-.06,1-.78.92-1.61l2.82-72.23-3.78.22-1,72.23C286.52,322.76,287,323.36,287.47,323.36Z" transform="translate(4 0)"/><path class="cls-51" d="M253.5,318.39h.07c.55-.06,1-.78.92-1.61l1.5-73.23-3.78.22.3,73.23C252.55,317.79,253,318.39,253.5,318.39Z" transform="translate(4 0)"/><path class="cls-51" d="M263.28,323.36h.07c.55-.06,1-.78.92-1.61l2.82-72.23-3.78.22-1,72.23C262.33,322.76,262.76,323.36,263.28,323.36Z" transform="translate(4 0)"/><path class="cls-16" d="M260.07,253.9c8.3,1.65,27.39.9,32.68-.77.62-.2.86-3.18.15-4.16-2.06-2.85-7.89-2.83-10-2.83-3.92,0-26.34-3-32.2-3-.95.92-.87,2.43-.82,3.34C250,249,255.32,253,260.07,253.9Z" transform="translate(4 0)"/><path class="cls-52" d="M259.52,250.1c8.17,2.51,28.42,1.2,32.91.06,3.93-1-8.77-8.28-12.25-8.77-5.51-.78-11.53-.77-22.32-.28-3.27.15-8.16,1.4-7.38,3C251.63,246.5,256.42,249.14,259.52,250.1Z" transform="translate(4 0)"/><line class="cls-51" x1="293.07" y1="252.63" x2="295.65" y2="217.55"/><line class="cls-51" x1="268.59" y1="252.63" x2="267.01" y2="217.55"/><path class="cls-16" d="M254.46,205.3c2.31-3.8,8.49-.79,11.68-.07,6.28,1.42,13.64.91,20,.27,2.33-.23,4.68-1.18,7.08-1.11,4.92.13,3.19,8.82,2.88,11.56a20.7,20.7,0,0,1-1.86,5.8c-3.33,5-10.37,3.1-28.64,3.1-5.78,0-9-2.72-10.77-5.78a6.72,6.72,0,0,1-.69-2.66c-.35-3.25-1.36-7.44.06-10.61A4.66,4.66,0,0,1,254.46,205.3Z" transform="translate(4 0)"/><path class="cls-53" d="M151,453c0,1.35-5.58,2.44-12.48,2.44s-12.48-1.09-12.48-2.44,5.59-2.44,12.48-2.44S151,451.69,151,453Z" transform="translate(4 0)"/><line class="cls-54" x1="142.55" y1="360.8" x2="142.55" y2="452.26"/><line class="cls-51" x1="224.74" y1="389.88" x2="229.56" y2="448.38"/><line class="cls-51" x1="242.37" y1="399.49" x2="249.23" y2="457.59"/><line class="cls-51" x1="186.05" y1="389.88" x2="177.23" y2="448.38"/><line class="cls-51" x1="202.69" y1="399.49" x2="196.9" y2="457.59"/><line class="cls-51" x1="242.37" y1="393.38" x2="249.23" y2="342.44"/><line class="cls-51" x1="225.02" y1="387.79" x2="225.02" y2="328.02"/><path class="cls-16" d="M193.9,403.59c12.43,2.27,40.32.09,48.24-2.22.93-.27,2.22-4.63,1.15-6-3.07-3.92-11.8-3.89-15-3.89-5.86,0-37.56-3.46-46.32-3.46-2.42.57-3.44,4.1-3.36,5.35C178.86,396.9,186.79,402.29,193.9,403.59Z" transform="translate(4 0)"/><path class="cls-9" d="M193.07,399c12.24,3.46,42.88-.21,49.53-2,2.78-.74-.26-5.22-6.45-8.1a53.53,53.53,0,0,0-16.41-4.76c-8.25-1.08-16.73-.29-29.15,1.85-4.79.83-12.3,1.46-10.72,5.6C181.16,395,188.44,397.69,193.07,399Z" transform="translate(4 0)"/><path class="cls-16" d="M215.78,324.45c7.09-2.08,38,9.21,36.86,19-.37,3.26-1.72,13.89-3.13,19.74-.23.93-2.1,1.83-3,1.82-8.85-7.45-17.9-15-29.24-17.31a1.49,1.49,0,0,1-1.17-1.31l-2.72-19.71C213.27,325.93,215.1,324.66,215.78,324.45Z" transform="translate(4 0)"/><path class="cls-9" d="M214.13,325.78c7.08-2.08,37.64,8.88,36.53,18.62-.38,3.27-1.72,13.9-3.14,19.75-.22.92-1.53,1.07-2.26.46-8.85-7.45-18.67-13.6-30-16a1.48,1.48,0,0,1-1.17-1.31l-1-20A1.48,1.48,0,0,1,214.13,325.78Z" transform="translate(4 0)"/><path class="cls-32" d="M156.11,419.26l.43,22.62c-.8.71-3.62,2.81-3.62,2.81s-4,3.5-4.32,3.28c.37.26,7.07-1.26,10.34-2.93a5.43,5.43,0,0,0,2-2.62l3.82-24.48" transform="translate(4 0)"/><path class="cls-55" d="M160.93,442.42a12,12,0,0,1,1.39,2.78,11.3,11.3,0,0,1,0,2.25l-2,.3-.26-.81a21.35,21.35,0,0,1-5.28,1.61l-2,.3c-2.69.39-5.07-.44-4.06-1.47a20.74,20.74,0,0,1,4.28-2.69s.34.75,2.07.5C159.32,444.56,160.93,442.42,160.93,442.42Z" transform="translate(4 0)"/><path class="cls-56" d="M204,366.13s-37.7,2.55-45.62,13.65c-6.2,8.68-8.54,51.74-8.54,51.74s8.54,2.23,14.23,2.23,7.43-2.23,7.43-2.23,0-36.57,2.72-39.31,35-.44,44.67-7.12,7.48-19.42,4.3-26.85" transform="translate(4 0)"/><path class="cls-32" d="M166.3,420.47l-1.18,22.59c-.85.66-3.81,2.55-3.81,2.55s-4.25,3.21-4.54,3c.35.28,7.14-.76,10.52-2.19a5.45,5.45,0,0,0,2.17-2.47L175,419.77" transform="translate(4 0)"/><path class="cls-57" d="M169.46,443.92a5.63,5.63,0,0,1,1,5.11l-2,.15-.2-.82a22,22,0,0,1-5.38,1.23l-2,.15c-2.71.2-5-.8-3.94-1.75a20.38,20.38,0,0,1,4.46-2.38s.29.77,2,.65C167.7,445.94,169.46,443.92,169.46,443.92Z" transform="translate(4 0)"/><path class="cls-58" d="M207.12,368.9s-29.21,2.55-37.13,13.65c-6.2,8.69-8.54,51.74-8.54,51.74s8.54,2.23,14.23,2.23,7.43-2.23,7.43-2.23,2.27-25.81,3.4-36.08c.43-3.86,34.32,1.29,44-5.39s7.47-19.43,4.3-26.85" transform="translate(4 0)"/><path class="cls-56" d="M181.71,405.43c-1.67,9.06-4.15,17.92-6,26.94a.11.11,0,0,0,.22.06c2.92-8.63,4.48-18,6-26.93,0-.16-.22-.23-.25-.07Z" transform="translate(4 0)"/><path class="cls-56" d="M173.58,428.14a21.32,21.32,0,0,0-1.18,3.95.12.12,0,0,0,.22.06,21.15,21.15,0,0,0,1.21-3.94.13.13,0,0,0-.25-.07Z" transform="translate(4 0)"/><path class="cls-56" d="M191.94,390.78c9.56-.79,19.3,2.42,28.77.21,4.13-1,7.68-2.74,9.91-6.49,1.9-3.18,2.65-7.41,1.2-10.9a.29.29,0,0,0-.56.16c.94,4.36.39,8.68-2.58,12.19s-7.92,4.7-12.35,5.07c-8.13.67-16.26-1.17-24.39-.33-.05,0-.06.1,0,.09Z" transform="translate(4 0)"/><path class="cls-56" d="M232.07,378a15.32,15.32,0,0,1-3.75-.62,5.57,5.57,0,0,1-2.55-2.46.17.17,0,0,0-.31.08c-.12,3,4.54,3.56,6.61,3.42a.21.21,0,0,0,0-.42Z" transform="translate(4 0)"/><path class="cls-59" d="M195.36,286.16c-1.89-.33-2.49-2.54-4-1.34a9.66,9.66,0,0,0-4,7.71c-.07,1.58.4,3.26-.27,4.7a14.33,14.33,0,0,0-.71,1.34,3.58,3.58,0,0,0-.06,1.95c.54,2.73,2.6,5,2.9,7.78.37,3.54-1.86,8.59,3.41,9.49a5,5,0,0,0,5.24-2.8c1.18-2.63-.14-5.67,0-8.55,0-1.12.31-2.23.36-3.34a17.85,17.85,0,0,0-1-5.59" transform="translate(4 0)"/><path class="cls-32" d="M197.74,326.46c-1.73,3.44-13.92,21.2-21.55,18.41-4.09-2.67,4.22-23.73,8.58-29.14,4-4.93,6.54-5.05,10-6" transform="translate(4 0)"/><path class="cls-20" d="M207.45,309s3.5,0,9.21,5.36c6.69,6.27,11.7,22.18,14.71,33.73,2,7.64,4.73,18.05,5,22.6-.88,2.28-5.44,4.11-22.45,4.33-10.65.14-19.89-5.29-19.53-8s5.33-6.6,4.46-14.47c-.32-2.82-2.07-9.13-3.14-10.19s-5.72-1.89-7.22-6.8,1.14-8.85,1-13.16.77-9.67,3.1-12.19C196.94,309.28,207.45,309,207.45,309Z" transform="translate(4 0)"/><path class="cls-32" d="M195.86,302.65l.36,6.31L194,310.22s-2.07,11.93,2.89,11.93S208.07,309,208.07,309l-4.82-1.32-3.81-10" transform="translate(4 0)"/><path class="cls-32" d="M192.41,287.39c-1.36,3.65-5,15.76-2,16.89,6.08,2.28,11.38-3.54,12.65-6.83S193.77,283.73,192.41,287.39Z" transform="translate(4 0)"/><path class="cls-59" d="M202.11,297.83a4.74,4.74,0,0,0-1.57-3.69,40.18,40.18,0,0,0-3.25-2.56,14.4,14.4,0,0,1-2.28-2.27c-.75-.93-1.77-.46-2.62.39-2.23,2.25-2.28,6.06-2.94,9-.89-.64-1.69-5.24-1.26-7.82a9.79,9.79,0,0,1,3.18-6.09,11.09,11.09,0,0,1,11.31-1.47c4,1.66,5.95,6,6.87,10a6.18,6.18,0,0,0,.56,1.75c.72,1.27,2.33,1.79,3.15,3,1.53,2.21-.28,5.45.92,7.86.82,1.66,2.78,2.36,4.22,3.52a5.94,5.94,0,0,1,2.21,3.59,4.28,4.28,0,0,1-1.33,3.91,4.65,4.65,0,0,1-2.78,1,6.33,6.33,0,0,1-3.74-1c-1.8-1.14-3-3.2-5.06-3.86-1.34-.45-2.83-.2-4.19-.59-2.18-.64-3.6-2.85-4-5.09a14.65,14.65,0,0,1,.2-4.94,10.55,10.55,0,0,1,1.58-3.42" transform="translate(4 0)"/><path class="cls-32" d="M200.92,298.08a1.33,1.33,0,0,1,2.08-.28,1.55,1.55,0,0,1,.43,1.14,3.68,3.68,0,0,1-1.19,2.81,2.13,2.13,0,0,1-1,.55,1.49,1.49,0,0,1-1.76-1.81" transform="translate(4 0)"/><path class="cls-60" d="M200.86,301.24l0,0a.31.31,0,0,1,.43,0l0,0a.35.35,0,1,1-.49,0Z" transform="translate(4 0)"/><path class="cls-61" d="M193.41,295.19s-2.24,3.33-1.79,4,1.34.31,1.34.31" transform="translate(4 0)"/><path class="cls-59" d="M197.23,295.61l.06.15a2.28,2.28,0,0,1,0,1.07c-.08.6-1.06.39-.92-.21a3.84,3.84,0,0,1,.39-1.09C196.94,295.21,197.12,295.38,197.23,295.61Z" transform="translate(4 0)"/><path class="cls-59" d="M191.6,294l.06.15a2.28,2.28,0,0,1,0,1.07c-.07.6-1.06.39-.92-.21a4.17,4.17,0,0,1,.39-1.09C191.31,293.63,191.49,293.8,191.6,294Z" transform="translate(4 0)"/><path class="cls-59" d="M199.48,295.4a1.94,1.94,0,0,0-.11-.72,2.68,2.68,0,0,0-1-1.25,2.33,2.33,0,0,0-1.57-.4,1.28,1.28,0,0,0-.52.2.83.83,0,0,0-.15.13l.19,0a2,2,0,0,1,.45.12,5.13,5.13,0,0,1,1.14.61,9.62,9.62,0,0,1,1,.83c.13.13.27.23.35.33Z" transform="translate(4 0)"/><path class="cls-59" d="M193.35,292.84a.77.77,0,0,0,0-.15,1,1,0,0,0-.2-.37,1.5,1.5,0,0,0-1.13-.49,1.65,1.65,0,0,0-1.12.42,1.16,1.16,0,0,0-.3.47h.15a3.05,3.05,0,0,1,.36,0,8.71,8.71,0,0,1,.91,0,4.65,4.65,0,0,1,.87.07A2.64,2.64,0,0,1,193.35,292.84Z" transform="translate(4 0)"/><path class="cls-9" d="M194.14,301.19c-.61,1.91-3.13,2-3.31-.15Z" transform="translate(4 0)"/><path class="cls-32" d="M184.17,308.05s-13.84,32.07-9,36.18,11.23-7.81,11.23-7.81l.15-26.53" transform="translate(4 0)"/><path class="cls-61" d="M186.36,336.42c.84-7.86.15-26.53.15-26.53" transform="translate(4 0)"/><path class="cls-32" d="M183.61,310.05c.4-4.05,4.87-9.7,5.36-9.28s-1.08,2.57-1.25,3.43c.7-1.13,2.41-2.77,2.85-2.73.78.06-1.58,2-1.7,3.23.7-.82,2.4-2,2.7-1.77s-1.18,1.41-1.87,2.33a5.45,5.45,0,0,1,1.83-.77.53.53,0,0,1,.33,0c.16.11-.11.46-.6.67a5.78,5.78,0,0,0-2.12,1.46c-.55.62-.7,1.84-1.22,2.49a3.42,3.42,0,0,1-2.25,1.27" transform="translate(4 0)"/><line class="cls-51" x1="66.96" y1="389.88" x2="62.14" y2="448.38"/><line class="cls-51" x1="49.32" y1="399.49" x2="42.47" y2="457.59"/><line class="cls-51" x1="105.65" y1="389.88" x2="114.47" y2="448.38"/><line class="cls-51" x1="89.01" y1="399.49" x2="94.79" y2="457.59"/><line class="cls-51" x1="49.32" y1="393.38" x2="42.47" y2="342.44"/><line class="cls-51" x1="66.68" y1="387.79" x2="66.68" y2="328.02"/><path class="cls-16" d="M89.8,403.59c-12.43,2.27-40.33.09-48.25-2.22-.93-.27-2.21-4.63-1.15-6,3.08-3.92,11.81-3.89,15-3.89,5.87,0,37.57-3.46,46.33-3.46,2.41.57,3.44,4.1,3.35,5.35C104.83,396.9,96.91,402.29,89.8,403.59Z" transform="translate(4 0)"/><path class="cls-9" d="M90.62,399c-12.23,3.46-42.88-.21-49.52-2-2.78-.74.25-5.22,6.45-8.1A53.45,53.45,0,0,1,64,384.16c8.25-1.08,16.73-.29,29.14,1.85,4.8.83,12.31,1.46,10.73,5.6C102.54,395,95.26,397.69,90.62,399Z" transform="translate(4 0)"/><path class="cls-16" d="M67.92,324.45c-7.09-2.08-38,9.21-36.86,19,.37,3.26,1.71,13.89,3.13,19.74.23.93,2.1,1.83,3,1.82,8.86-7.45,17.9-15,29.25-17.31a1.5,1.5,0,0,0,1.17-1.31l2.72-19.71C70.43,325.93,68.6,324.66,67.92,324.45Z" transform="translate(4 0)"/><path class="cls-9" d="M69.57,325.78C62.48,323.7,31.93,334.66,33,344.4c.37,3.27,1.72,13.9,3.14,19.75.22.92,1.53,1.07,2.25.46,8.86-7.45,18.68-13.6,30-16a1.47,1.47,0,0,0,1.17-1.31l1-20A1.49,1.49,0,0,0,69.57,325.78Z" transform="translate(4 0)"/><path class="cls-58" d="M132,441.59c-.89,2.33.15,5.22.61,5.4,1.4.52,12.08-2.29,12-2.95-.13-1.79-9.34-2.86-9.34-2.86" transform="translate(4 0)"/><line class="cls-62" x1="141.63" y1="441.51" x2="140.98" y2="443.45"/><line class="cls-62" x1="143.11" y1="441.79" x2="142.74" y2="443.57"/><line class="cls-62" x1="144.43" y1="442.06" x2="144.32" y2="443.66"/><path class="cls-63" d="M134.21,428.8l2.3,12.54a5.58,5.58,0,0,1-2.34,1.14,3.11,3.11,0,0,1-2.41-.18l-5.17-13.39" transform="translate(4 0)"/><path class="cls-64" d="M59.83,371.23s-2.65,18.59,7.86,22.1,41.33.55,44.58,3.37c1.41,15.2,12.81,38.35,12.81,38.35l10.2-3.28s-4.75-43.18-11.11-49.2c-10.29-9.76-36-12.88-36-12.88" transform="translate(4 0)"/><path class="cls-65" d="M65.53,372.62c-.37,5.59-.22,12,4.77,15.63S82.19,391.5,88,391.71l12.32.41c3.45.12,8.3-.83,11.29,1.16s3.77,6.7,4.7,10,1.77,6.42,2.7,9.61c2,6.86,4.12,13.85,7.6,20.12.2.36.74,0,.54-.32-3.13-5.66-5.12-11.92-7-18.09-1.77-5.92-2.82-12.49-5.36-18.14-1-2.13-2.39-3.95-4.7-4.61-2.82-.8-6-.27-8.85-.36-7.5-.24-15.26,0-22.71-1-4-.54-8.17-1.89-10.52-5.4s-2.27-8.33-2.23-12.53a.14.14,0,0,0-.27,0Z" transform="translate(4 0)"/><polygon class="cls-65" points="127.85 432.45 129.08 435.96 139.95 433.46 139 429.37 127.85 432.45"/><path class="cls-58" d="M122.78,447.68c-1.06,2.26-.24,5.26.23,5.43,1.35.49,12.21-.41,12.21-2.09s-9.11-3.51-9.11-3.51" transform="translate(4 0)"/><line class="cls-62" x1="132.4" y1="448" x2="131.61" y2="449.89"/><line class="cls-62" x1="133.85" y1="448.38" x2="133.36" y2="450.13"/><line class="cls-62" x1="135.15" y1="448.75" x2="134.93" y2="450.34"/><path class="cls-63" d="M125.89,435.08l1.41,12.67a5.75,5.75,0,0,1-2.42,1,3.12,3.12,0,0,1-2.39-.36l-4.21-13.71" transform="translate(4 0)"/><path class="cls-60" d="M55.78,372.38s-4,18.35,6.27,22.6,41.2,3.48,44.23,6.52c.33,15.27,10.06,39.17,10.06,39.17l10.41-2.55s-1.68-43.4-7.59-49.87c-9.57-10.46-35-15.4-35-15.4" transform="translate(4 0)"/><path class="cls-65" d="M61.38,374.14c-.78,5.68-1.07,12.23,3.89,16.16s11.8,3.94,17.64,4.56l12.26,1.28c3.22.34,7.48-.2,10.3,1.58,3.26,2.06,3.66,7.24,4.37,10.7.63,3.14,1.26,6.27,1.93,9.4,1.52,7.1,3.16,14.36,6.24,21,.17.37.71.05.54-.32-2.72-5.86-4.26-12.25-5.66-18.54-.72-3.2-1.37-6.42-2-9.64-.62-3-1-6.27-2.18-9.16-2.18-5.51-7-5-12.1-5.48C89,395,81,394.55,73.46,393.06c-3.82-.76-7.83-2.21-10.09-5.58-2.6-3.9-2.08-8.88-1.73-13.3,0-.15-.24-.19-.26,0Z" transform="translate(4 0)"/><polygon class="cls-65" points="119.3 437.99 120.28 441.57 131.3 439.86 130.64 435.71 119.3 437.99"/><path class="cls-58" d="M76.69,304.43s-13.06,4-18.32,16.44S54.8,358,53.87,366.24c-.47,4.17-1,6.26-.24,7s10.24,6.77,30.6,3.3,17.53-5.14,16.49-6.13-1.45-1.49-1.45-4,2.91-32.53,2.91-37.74-.58-12-3.32-14.64c-1.53-1.45-.86-6.22-5.75-8.61C86.38,306.06,79.34,305.46,76.69,304.43Z" transform="translate(4 0)"/><path class="cls-63" d="M99.58,285.6s-1,15-5.3,15c-12.65-.12-11.88-14-11.29-16.29S98.75,280.27,99.58,285.6Z" transform="translate(4 0)"/><path class="cls-63" d="M82.88,292.64l-3.81,11.65-2.38.14a11.63,11.63,0,0,0,10.49,5.26c7.11-.5,5.93-4.23,5.93-4.23l-1.64-.71L93,296.48" transform="translate(4 0)"/><path class="cls-66" d="M89,288l4.1-.59A2.87,2.87,0,0,0,89,288Z" transform="translate(4 0)"/><path class="cls-66" d="M96.24,287.47l2.59.71A1.88,1.88,0,0,0,96.24,287.47Z" transform="translate(4 0)"/><path class="cls-67" d="M95.27,289.53c.45,1.89.87,4.9.16,5.13a3.83,3.83,0,0,1-2.6-.7" transform="translate(4 0)"/><path class="cls-67" d="M84.94,295.05s.84,4.28,7.28,5.51" transform="translate(4 0)"/><path class="cls-66" d="M92,289.29a.52.52,0,0,0-.42-.13h-.07l0,0a.25.25,0,0,0-.34,0c-.42.51-.32,1.78.46,1.92S92.38,289.64,92,289.29Z" transform="translate(4 0)"/><path class="cls-66" d="M97.94,289.47a.52.52,0,0,0-.42-.13h-.07l0,0a.24.24,0,0,0-.34,0c-.42.51-.32,1.78.46,1.92S98.3,289.81,97.94,289.47Z" transform="translate(4 0)"/><path class="cls-9" d="M92.6,296.06s.68,1.51,1.9,1.38c.92-.1,1.07-1.51,1.07-1.51Z" transform="translate(4 0)"/><path class="cls-68" d="M79.92,284.44c-1.27,4.85-1.47,12.69,5.15,13.25a.76.76,0,0,0,.54-.08.81.81,0,0,0,.23-.66c0-.68,0-1.37,0-2.06a.65.65,0,0,0,0-.34c-.11-.21-.37-.27-.6-.34-1.54-.47-2.19-2.36-2-4a2.58,2.58,0,0,1,.67-1.71,1.17,1.17,0,0,1,1.66,0c.26.35.22.85.38,1.26s.78.72,1,.34a.84.84,0,0,0,.06-.5,17.89,17.89,0,0,1,.3-5.65c.32-1.49,3.19-1.09,4.28-.94a24.58,24.58,0,0,1,5.32,1.35c1.69.63,3.74,1.4,5.14.27a3.12,3.12,0,0,0,1-2.85,4.52,4.52,0,0,0-4.12-3.79,6.26,6.26,0,0,1-1.68-.14,5.17,5.17,0,0,1-1.08-.65,5.27,5.27,0,0,0-6.26.56c-1.5-1.11-3.65-.67-5.29.21C81.75,279.55,80.73,281.36,79.92,284.44Z" transform="translate(4 0)"/><path class="cls-69" d="M201.28,364.86c0,3-28.09,5.49-62.73,5.49s-62.73-2.46-62.73-5.49v-5H201.28Z" transform="translate(4 0)"/><ellipse class="cls-53" cx="142.55" cy="359.83" rx="62.73" ry="5.49"/><path class="cls-63" d="M54.63,322.15s-8.23,16-2.19,29.34c5.74,12.69,37.61,12,37.61,12l1-3.68s-22.31-8.59-23.55-12.18c-1.65-4.79,4.79-24.43,4.79-24.43" transform="translate(4 0)"/><path class="cls-58" d="M76.69,304.43s-11.56,1-17.49,6.92-8.7,18.14-8.7,18.14,4,6.12,13.1,6.61a16.48,16.48,0,0,0,7.71-1.16l3.78-12.79" transform="translate(4 0)"/><line class="cls-70" x1="75.31" y1="334.94" x2="77.84" y2="324.29"/><path class="cls-63" d="M88,358.8a6.63,6.63,0,0,0,1.47.12,7.83,7.83,0,0,0,2.24-.5,9.64,9.64,0,0,1,4.64-.5c.17,0,.37.1.39.27s-.18.31-.36.38-.61.25-.91.39a.25.25,0,0,0-.16.14.18.18,0,0,0,.07.15,52.3,52.3,0,0,0,5.15,1.29c.17,0,.51.21.53.43.07.58-3.39,0-5.09-.11,1.5.22,5.59,1.17,5.42,1.81s-4.16-.14-5.64-.19c1.72.25,5.14.74,5,1.27s-3.45.14-5.17-.07a20,20,0,0,1,3.89.84c.23.07.5.2.52.44a1,1,0,0,1-.52.1,35.89,35.89,0,0,1-5-.35,26.2,26.2,0,0,1-2.77-.58c-.9-.23-1.76-.58-2.67-.76a7.26,7.26,0,0,0-1.92-.09" transform="translate(4 0)"/><path class="cls-63" d="M122.29,341.21c-2.35-2.35-7-11.29-9.4-16.34-3.47-3.47-7.91-2.9-11-2.17a56.88,56.88,0,0,1,.3,6c0,1.78-.33,6.42-.78,11.88a37.23,37.23,0,0,0,9.22,9.18c10.31,7,37.91,6,37.91,6l1-3.59S126.34,345.26,122.29,341.21Z" transform="translate(4 0)"/><path class="cls-63" d="M145,350.74a12.48,12.48,0,0,0,2.29.62,8.12,8.12,0,0,0,2.23-.51,9.66,9.66,0,0,1,4.64-.49c.17,0,.38.09.4.26s-.19.32-.36.39l-.92.38c-.06,0-.14.07-.15.14a.19.19,0,0,0,.06.16,53.08,53.08,0,0,0,5.15,1.29c.18,0,.52.21.54.42.06.58-3.4,0-5.09-.1,1.49.22,5.58,1.16,5.41,1.81s-4.16-.15-5.64-.2c1.72.25,5.15.75,5.05,1.27s-3.45.15-5.18-.07a20.09,20.09,0,0,1,3.9.84c.23.07.49.2.51.44a.9.9,0,0,1-.51.1,36,36,0,0,1-5-.35,26,26,0,0,1-2.76-.58,22.44,22.44,0,0,0-4.59-.85" transform="translate(4 0)"/><path class="cls-71" d="M148.26,354a8,8,0,0,0,4.13-1.8c.09-.08,0-.21-.12-.16a15.53,15.53,0,0,1-4.05,1.82.07.07,0,0,0,0,.14Z" transform="translate(4 0)"/><path class="cls-58" d="M114.14,326.56h0c-2.91-6-6-12.05-8.52-14.56-5.44-5.45-11.24-6-12.51-6.54,0,0,5.71,3.82-.71,20.9a76.39,76.39,0,0,0,4.45,7.73A40.24,40.24,0,0,0,114.14,326.56Z" transform="translate(4 0)"/><path class="cls-70" d="M102,332.83s.19-8.22,1.28-10.42" transform="translate(4 0)"/><path class="cls-32" d="M204.28,332.91s4.23,12.17,10.16,9.53,5.28-18-.27-23.65S201,324.87,204.28,332.91Z" transform="translate(4 0)"/><path class="cls-32" d="M216.16,332.16s-3.93,12.24-18.49,18.39c-7.41,3.14-35.6,5.81-35.6,5.81L161.7,353s23.63-8,31-12c5.5-3,8.67-21,14.59-24.08,3.88-2,7,1.27,8.41,4.32C217.62,325.33,216.68,330.21,216.16,332.16Z" transform="translate(4 0)"/><path class="cls-32" d="M165,352.05a8.17,8.17,0,0,1-1.46.35,9.1,9.1,0,0,1-2.33-.07,11.28,11.28,0,0,0-4.73.34c-.17.05-.36.14-.35.29s.24.24.43.28.65.11,1,.18a.24.24,0,0,1,.18.1s0,.1,0,.14-3.49,1.49-4.94,2c-.17.05-.48.27-.47.45,0,.52,3.41-.56,5.09-.92-1.46.43-5.4,1.92-5.12,2.45s4.15-.81,5.62-1.09c-1.68.5-5,1.49-4.84,1.93s3.49-.45,5.18-.92a23.55,23.55,0,0,0-3.77,1.37c-.21.1-.46.25-.43.47a1.19,1.19,0,0,0,.53,0,39.51,39.51,0,0,0,4.93-1.12c.91-.27,1.79-.6,2.67-1s1.67-.79,2.55-1.1a8.66,8.66,0,0,1,1.9-.39" transform="translate(4 0)"/><path class="cls-61" d="M210.06,341.87s5.19-6.19,5.6-6.59" transform="translate(4 0)"/><path class="cls-9" d="M114,360.54c-.22-.71-1.67-1.08-2.63-1.29a13.18,13.18,0,0,0-4.47-.18,12.5,12.5,0,0,0-2.64.54c-.61.22-1.94.65-1.53,1.51a1.53,1.53,0,0,0,.6.61,8.3,8.3,0,0,0,4.28.91,21.86,21.86,0,0,0,3.79-.31C112,362.22,114.37,361.62,114,360.54Z" transform="translate(4 0)"/><path class="cls-34" d="M111.82,356.89l-7.74-.1a5.3,5.3,0,0,0,.83,3.39c1.28,1.46,3.59,1.43,5.32.65a2.63,2.63,0,0,0,1.55-2A8.13,8.13,0,0,0,111.82,356.89Z" transform="translate(4 0)"/><path class="cls-34" d="M111.21,358.16a2,2,0,0,1,1.46-.29.92.92,0,0,1,.27,1.47c-.79.8-2.19.6-3.19.79a.22.22,0,0,0,0,.41c1.28.54,4.2-.13,4.12-1.89A1.49,1.49,0,0,0,111,358c-.08.11.07.24.17.18Z" transform="translate(4 0)"/><path class="cls-9" d="M111.74,356.67a3.16,3.16,0,0,0-1.77-.87,8.89,8.89,0,0,0-3-.12,5.23,5.23,0,0,0-2.74.9c-.34.27-.07.64.23.79a3.43,3.43,0,0,0,.9.25,11.81,11.81,0,0,0,2.38.16,15,15,0,0,0,2-.11c.35,0,.69-.05,1-.11s.79-.1,1-.37A.38.38,0,0,0,111.74,356.67Z" transform="translate(4 0)"/><path class="cls-35" d="M107.13,356.85a4.48,4.48,0,0,0-2.15.69l.38.08a11.81,11.81,0,0,0,2.38.16,15,15,0,0,0,2-.11c.35,0,.69-.05,1-.11h.1a2.83,2.83,0,0,0-1.3-.6A7,7,0,0,0,107.13,356.85Z" transform="translate(4 0)"/><path class="cls-9" d="M177.09,360.59c-.23-.71-1.68-1.08-2.64-1.29a13.16,13.16,0,0,0-4.47-.18,12.29,12.29,0,0,0-2.63.54c-.62.22-1.95.64-1.54,1.51a1.57,1.57,0,0,0,.6.6,8.12,8.12,0,0,0,4.28.91,21,21,0,0,0,3.8-.3C175.07,362.27,177.43,361.67,177.09,360.59Z" transform="translate(4 0)"/><path class="cls-34" d="M175.12,352.33l-7.74-.1c-.06,1,.27,6.78,2.29,7.55.11.45-.45.8-.1,1.15a5.69,5.69,0,0,0,3.73-.05c.86-.39.09-.54-.09-1.23C175.23,358.36,175.16,353,175.12,352.33Z" transform="translate(4 0)"/><path class="cls-9" d="M175,352.11a3.18,3.18,0,0,0-1.77-.86,8.89,8.89,0,0,0-3-.13,5.32,5.32,0,0,0-2.74.9c-.34.28-.06.64.24.79a3.49,3.49,0,0,0,.89.26,12.59,12.59,0,0,0,2.38.16,19.19,19.19,0,0,0,2-.11c.35,0,.69-.06,1-.11a1.65,1.65,0,0,0,1-.37A.37.37,0,0,0,175,352.11Z" transform="translate(4 0)"/><path class="cls-35" d="M170.43,352.29a4.45,4.45,0,0,0-2.14.7l.37.08a12.59,12.59,0,0,0,2.38.16,19.19,19.19,0,0,0,2-.11c.35,0,.69-.06,1-.11l.09,0a2.72,2.72,0,0,0-1.29-.59A7.27,7.27,0,0,0,170.43,352.29Z" transform="translate(4 0)"/><path class="cls-72" d="M170.18,359.91a5.19,5.19,0,0,0,1.43.09,6,6,0,0,0,1.41-.28,1.93,1.93,0,0,1-.39.26,3,3,0,0,1-1,.27,2.69,2.69,0,0,1-1-.13A1.87,1.87,0,0,1,170.18,359.91Z" transform="translate(4 0)"/><path class="cls-34" d="M174.39,354.8c.48-.44,2.39-1.81,2.52-.45a2,2,0,0,1-.51,1.37c-.9,1.06-2.29,1.44-3.11,2.64-.29.43.4.82.69.4,1.07-1.54,3.78-2.22,3.53-4.5a1,1,0,0,0-.93-1.05,2.8,2.8,0,0,0-2.34,1.47c-.07.1.07.2.15.12Z" transform="translate(4 0)"/><path class="cls-73" d="M135.76,337.5c-3.72,3.24-5.8,8.79-4.39,13.64.06.23.45.2.43-.06-.4-5.09.69-9.48,4.26-13.28a.21.21,0,0,0-.3-.3Z" transform="translate(4 0)"/><path class="cls-73" d="M123.63,334.86c4.76,4.83,4.31,11,5.12,17.2a.21.21,0,0,0,.42,0c.49-6-.75-13.11-5.43-17.31-.07-.07-.19,0-.11.11Z" transform="translate(4 0)"/><path class="cls-73" d="M128.31,344.35a6.09,6.09,0,0,0-4.66-2.76,2.09,2.09,0,0,0-1.49.36,1.84,1.84,0,0,0-.55,1.35,2.21,2.21,0,0,0,.19,1.08,2.07,2.07,0,0,0,1.19,1,4.43,4.43,0,0,0,1.58.2,9.53,9.53,0,0,0,3.45-.74" transform="translate(4 0)"/><path class="cls-73" d="M127.18,339.94a4.4,4.4,0,0,0-3.35-2,1.53,1.53,0,0,0-1.07.26,1.36,1.36,0,0,0-.4,1,1.62,1.62,0,0,0,.14.78,1.48,1.48,0,0,0,.86.71,3.09,3.09,0,0,0,1.13.15,6.82,6.82,0,0,0,2.48-.54" transform="translate(4 0)"/><path class="cls-73" d="M132.93,341.62a3.76,3.76,0,0,0-1.25-3.1,1.27,1.27,0,0,0-.86-.39,1.19,1.19,0,0,0-.78.45,1.44,1.44,0,0,0-.32.61,1.37,1.37,0,0,0,.21.94,3.06,3.06,0,0,0,.7.69,5.85,5.85,0,0,0,2,.93" transform="translate(4 0)"/><path class="cls-73" d="M134.45,339.39a2.82,2.82,0,0,0-.4-2.47,1,1,0,0,0-.57-.42.85.85,0,0,0-.64.2,1,1,0,0,0-.33.39,1,1,0,0,0,0,.72,1.9,1.9,0,0,0,.4.61,4.34,4.34,0,0,0,1.28,1" transform="translate(4 0)"/><path class="cls-73" d="M127,339.23a3.46,3.46,0,0,0,2.53-1.79,1.2,1.2,0,0,0,.17-.86,1.07,1.07,0,0,0-.58-.6,1.32,1.32,0,0,0-.61-.16,1.18,1.18,0,0,0-.8.39,2.61,2.61,0,0,0-.48.78,5.62,5.62,0,0,0-.42,2" transform="translate(4 0)"/><path class="cls-73" d="M128.79,346.51a4.79,4.79,0,0,0,3.5-2.47,1.66,1.66,0,0,0,.23-1.18,1.47,1.47,0,0,0-.8-.84,1.77,1.77,0,0,0-.84-.21,1.62,1.62,0,0,0-1.11.54,3.34,3.34,0,0,0-.65,1.07,7.5,7.5,0,0,0-.58,2.73" transform="translate(4 0)"/><path class="cls-73" d="M132,345.15a4.78,4.78,0,0,0,4.19.86,1.6,1.6,0,0,0,1-.64,1.48,1.48,0,0,0,.07-1.15,1.68,1.68,0,0,0-.42-.76,1.62,1.62,0,0,0-1.15-.44,3.3,3.3,0,0,0-1.23.25,7.78,7.78,0,0,0-2.39,1.44" transform="translate(4 0)"/><path class="cls-73" d="M133.3,341.12a3.09,3.09,0,0,0,2.69.55,1,1,0,0,0,.66-.41,1,1,0,0,0,0-.74,1.18,1.18,0,0,0-.27-.49,1.05,1.05,0,0,0-.74-.28,2.31,2.31,0,0,0-.78.16,4.84,4.84,0,0,0-1.54.93" transform="translate(4 0)"/><path class="cls-73" d="M135.4,338.13a2.71,2.71,0,0,0,2.36-.49,1,1,0,0,0,.38-.57.83.83,0,0,0-.22-.61,1,1,0,0,0-.39-.3.94.94,0,0,0-.7,0,2.12,2.12,0,0,0-.57.41,4.35,4.35,0,0,0-.92,1.29" transform="translate(4 0)"/><path class="cls-73" d="M125.88,337.28a3.64,3.64,0,0,0-1.49-2.7,1.26,1.26,0,0,0-.82-.33.92.92,0,0,0-.66.41,1,1,0,0,0-.22.53,1.18,1.18,0,0,0,.3.82,2.76,2.76,0,0,0,.71.6,6.53,6.53,0,0,0,1.89.79" transform="translate(4 0)"/><path class="cls-74" d="M124.38,348.69l1.22,8.92a2.29,2.29,0,0,0,2.33,1.35h3.78a2.26,2.26,0,0,0,2.33-1.37l1.1-8.9Z" transform="translate(4 0)"/><path class="cls-32" d="M289.61,384c0,10.36-4.39,39.54-4.39,39.54A19.55,19.55,0,0,0,288,425s4.54,3.15,4.82,2.87c-.33.33-7.29-.26-10.82-1.54-1.37-.5-2.39-2.52-2.39-2.52s-3.54-27.32-.87-38" transform="translate(4 0)"/><path class="cls-75" d="M279.58,423.81a13.65,13.65,0,0,0-1,3.21,13.45,13.45,0,0,0,.37,2.43H281l.15-.91a20.78,20.78,0,0,0,5.54.91h2.08c2.76,0,5-1.27,3.86-2.22A20.27,20.27,0,0,0,288,425s-.24.87-2,.87C281.51,425.87,279.58,423.81,279.58,423.81Z" transform="translate(4 0)"/><path class="cls-32" d="M317.22,382.87c0,10.36-3.4,39.54-3.4,39.54a18.89,18.89,0,0,0,2.75,1.44s4.53,3.14,4.82,2.86c-.34.33-7.29-.25-10.83-1.54-1.37-.49-2.38-2.51-2.38-2.51s-4.54-27.33-1.86-38" transform="translate(4 0)"/><path class="cls-75" d="M308.18,422.66a13.39,13.39,0,0,0-1,3.21,13.13,13.13,0,0,0,.38,2.43h2.06l.14-.91a20.9,20.9,0,0,0,5.55.91h2.08c2.76,0,5-1.27,3.86-2.23a20.09,20.09,0,0,0-4.69-2.22s-.24.86-2,.86C310.11,424.71,308.18,422.66,308.18,422.66Z" transform="translate(4 0)"/><path class="cls-31" d="M281.14,313.63s-8.64,8.69-10.22,20C269,347.32,274.23,364.73,275,373c.82,9.06-1.47,15.8,0,17.7,1.31,1.69,12.57,3.54,24.31,3.55,11.08,0,22.4-3.83,22.5-6.41s.77-19.4.77-25.68-1.64-37.1-6.36-50.79" transform="translate(4 0)"/><path class="cls-9" d="M283,317.55c-2.61,11.48-4.14,43.86,0,48S301,369,310.23,369s11.21-1.8,12.32-5.6c1.76-6-.41-41.26-4.6-48.65" transform="translate(4 0)"/><path class="cls-9" d="M297.91,322.28s-13.31,1.52-20.69-4.53a15.7,15.7,0,0,0,1.7-2.58l24.55,2.06" transform="translate(4 0)"/><path class="cls-9" d="M279.15,318c-2.71,0-5.25,1.95-7.27,3.55a9.52,9.52,0,0,0-3.27,4.59l-.63-3.41a3.31,3.31,0,0,1-.06-1.13,2.3,2.3,0,0,1,.73-1.15,11.26,11.26,0,0,1,3.27-2c2.83-1.28,5.88-2.53,8.91-2" transform="translate(4 0)"/><path class="cls-32" d="M333.54,324a5.09,5.09,0,0,0,.74,1,6.21,6.21,0,0,0,1.59,1.15,7.71,7.71,0,0,1,2.92,2.72c.08.13.14.3,0,.42s-.32.06-.46,0-.51-.25-.77-.36a.21.21,0,0,0-.19,0,.23.23,0,0,0-.07.14,42.87,42.87,0,0,0,2,4.12c.07.13.14.46,0,.6-.36.4-1.9-2.21-2.77-3.37.68,1.11,2.32,4.33,1.78,4.61s-2.22-2.79-3-3.78c.79,1.27,2.36,3.79,1.95,4s-2-2.16-2.84-3.4a16.52,16.52,0,0,1,1.6,3,.54.54,0,0,1,0,.6.83.83,0,0,1-.35-.27,28.55,28.55,0,0,1-2.53-3.45,20.92,20.92,0,0,1-1.15-2.14c-.35-.72-.59-1.49-1-2.2a6.38,6.38,0,0,0-1-1.3" transform="translate(4 0)"/><path class="cls-76" d="M333.36,328.08c.93.69,2.51,1.39,3.65.87a.2.2,0,0,0,0-.37c-.56-.1-1.13,0-1.69-.11a4.71,4.71,0,0,1-1.73-.72c-.21-.14-.38.18-.19.33Z" transform="translate(4 0)"/><path class="cls-75" d="M302.64,259s9.68.68,15.87,11.33c4.54,7.79,4.59,23.91,5.23,28.73.77,5.84,10.39,25.24,10.39,25.24l-3.2,3.6s-11.54-10.56-18-23c-2.86-5.51-7.19-30-7.19-30" transform="translate(4 0)"/><path class="cls-75" d="M295.67,258.49s-11.3.55-18.45,8.79c-8,9.18-9.19,13.29-12,15.62-4.13-5.62-13.93-14.64-13.93-14.64l-4.08,3.68s7.87,27.41,19.42,27.41c8.34,0,20.88-22.53,20.88-22.53" transform="translate(4 0)"/><path class="cls-75" d="M276.65,276.93s2.86,29,2.86,32.3-1.85,3.56-1.43,6.42,10.11,5.15,23.46,4.31c11.44-.71,16.29-2.43,16.84-3.62,1.44-3.1-2.18-8.68-2.18-11.25V289.76c0-1.79,4.69-5.42,2.69-11.6a22.35,22.35,0,0,0-6.57-9.78s-7.62-10.4-12.24-9.87S275,259.55,276.65,276.93Z" transform="translate(4 0)"/><circle class="cls-9" cx="305.14" cy="271.23" r="0.85"/><path class="cls-9" d="M302.85,282.23a.86.86,0,0,1-.86.85.85.85,0,1,1,0-1.7A.86.86,0,0,1,302.85,282.23Z" transform="translate(4 0)"/><path class="cls-9" d="M302.85,293.38a.86.86,0,0,1-.86.85.85.85,0,0,1,0-1.7A.86.86,0,0,1,302.85,293.38Z" transform="translate(4 0)"/><path class="cls-9" d="M302.4,304.09a.86.86,0,1,1-.86-.85A.85.85,0,0,1,302.4,304.09Z" transform="translate(4 0)"/><circle class="cls-9" cx="305.14" cy="314.76" r="0.85"/><path class="cls-77" d="M278.09,290.78s6-8.41,8.71-12" transform="translate(4 0)"/><path class="cls-77" d="M313.56,269.53s5.61,6.2,5.82,11.65c.13,3.06-2.14,6.31-3.18,8.58s-.18,13.48.27,17.84a7.53,7.53,0,0,0,1.64,3.77" transform="translate(4 0)"/><path class="cls-68" d="M309.4,240.51a40,40,0,0,1,3.75,8.43c.84,2.68,2.84,5.64,1,8.13s-5.84,1.57-8.35,1.67c-1.5.06-3.22,0-4.19-1.13a4.35,4.35,0,0,1-.82-2.13,12.8,12.8,0,0,1-.08-5.3,14.83,14.83,0,0,0,.72-3.83" transform="translate(4 0)"/><path class="cls-32" d="M309.77,241.83s3.11,14-2.29,15.11c-3.86.76-9.9-2-10.67-5C294.59,243.36,304.21,236.28,309.77,241.83Z" transform="translate(4 0)"/><path class="cls-78" d="M305.74,246a2.41,2.41,0,0,0-3.1.88" transform="translate(4 0)"/><path class="cls-78" d="M310.91,244.75a1.78,1.78,0,0,0-2.35.91" transform="translate(4 0)"/><path class="cls-32" d="M305,251.17l-2.26,9.57s.36,2.11-2.68,2.11c-4.35,0-4.94-3.13-4.94-3.13l4.15-9.65" transform="translate(4 0)"/><path class="cls-9" d="M294.37,256.46s1.3,5.31,6.12,6.39a10.77,10.77,0,0,1-2.41,3.1c-4.17,0-6.39-6.91-6.39-6.91Z" transform="translate(4 0)"/><path class="cls-9" d="M303.28,258.52s-.64,3.69-2.79,4.33a10.78,10.78,0,0,0,2.07,3.1c2.16-1.65,1.63-5.23,1.63-5.23Z" transform="translate(4 0)"/><path class="cls-68" d="M292,242.28c2.71-5.47,10.31-8.82,16-5.21,2,1.26,3.25,3.83,2.46,6.05-.21.6-.88,1.23-1.4.86-.33-.24-.32-.73-.28-1.13.06.45.07,1-.33,1.23s-.84-.06-1.1-.39-.22-.9-.66-.89-.09.83-.39,1.06a.61.61,0,0,1-.4.09c-2.07,0-4.77-.23-4.73,2.58a15.62,15.62,0,0,0,.22,1.93c.12,1-2.21,1.28-2.61,2.67-.46,1.66.67,4.23,1,5.86a2.26,2.26,0,0,1-.22,2.07,2,2,0,0,1-1.32.49,13.76,13.76,0,0,1-10.37-3.29,1.59,1.59,0,0,1-.61-.89c-.1-.64.52-1.13,1-1.61a7.36,7.36,0,0,0,1.46-3.41l1.2-5A14.33,14.33,0,0,1,292,242.28Z" transform="translate(4 0)"/><path class="cls-68" d="M305.28,247.5a1.16,1.16,0,0,1-.13,1.33.38.38,0,0,1-.63-.17,1.25,1.25,0,0,1,.22-1.16c.13-.17.43-.24.54,0Z" transform="translate(4 0)"/><path class="cls-68" d="M309.67,247a1.14,1.14,0,0,1,.34,1.29c-.09.29-.49.27-.65.06a1.24,1.24,0,0,1-.19-1.16c.06-.21.32-.37.5-.19Z" transform="translate(4 0)"/><path class="cls-79" d="M306.06,246.89a.69.69,0,0,1,.5.24.66.66,0,0,1,0,.46,2.66,2.66,0,0,1-.51,1.38,1.75,1.75,0,0,1-1.49.49,3.92,3.92,0,0,1-1.5-.57,5.35,5.35,0,0,1-1.34-1.17.85.85,0,0,1,.75-1.39C303.69,246.51,304.88,246.69,306.06,246.89Z" transform="translate(4 0)"/><path class="cls-79" d="M308.47,246.69a.43.43,0,0,0-.31.29.79.79,0,0,0,0,.45,3.33,3.33,0,0,0,.57,1.31,1.06,1.06,0,0,0,1.12.33,2.43,2.43,0,0,0,1-.74,4.42,4.42,0,0,0,.79-1.36.84.84,0,0,0-1.07-1.11C309.88,246.13,309.18,246.4,308.47,246.69Z" transform="translate(4 0)"/><path class="cls-79" d="M308.26,247.63a3.85,3.85,0,0,0-1.55.08" transform="translate(4 0)"/><path class="cls-61" d="M307.48,248.15s1.85,2.95,1.28,3.53a1.63,1.63,0,0,1-1.56.22" transform="translate(4 0)"/><path class="cls-9" d="M308.64,253.21l-4.61-.57A3.9,3.9,0,0,0,307.2,255C308.18,255,308.64,253.21,308.64,253.21Z" transform="translate(4 0)"/><line class="cls-79" x1="305.75" y1="247.72" x2="302.99" y2="250.2"/><path class="cls-32" d="M300.78,250.36a1.71,1.71,0,0,0-.66-1.12,1.43,1.43,0,0,0-1.26-.24,1.63,1.63,0,0,0-1,1.26,3.1,3.1,0,0,0,.23,1.67,3,3,0,0,0,1.16,1.51.91.91,0,0,0,1.33-.16" transform="translate(4 0)"/><path class="cls-58" d="M279.79,267.86c-1.15-1.86-8.47-2.83-13.31-3.38a128.63,128.63,0,0,0-22.56-.48,117.3,117.3,0,0,0-13.31,1.42c-3.09.57-9.81,1.69-7.74,3.95a7.32,7.32,0,0,0,3,1.59c6.33,2.05,14.33,2.34,21.61,2.38,5.77,0,13.48-.25,19.15-.8C269.59,272.25,281.53,270.67,279.79,267.86Z" transform="translate(4 0)"/><path class="cls-9" d="M272.79,266.07c-.33-1-2.45-1.58-3.86-1.88a19.42,19.42,0,0,0-6.54-.27,18.12,18.12,0,0,0-3.86.79c-.9.32-2.84,1-2.25,2.21a2.35,2.35,0,0,0,.88.89,12,12,0,0,0,6.27,1.33,31.44,31.44,0,0,0,5.56-.45C269.84,268.53,273.3,267.65,272.79,266.07Z" transform="translate(4 0)"/><path class="cls-34" d="M269.56,260.73l-11.32-.15c-.09,1.53.21,3.82,1.21,5,1.87,2.14,5.26,2.09,7.79.95a3.87,3.87,0,0,0,2.27-3A11.93,11.93,0,0,0,269.56,260.73Z" transform="translate(4 0)"/><path class="cls-34" d="M268.65,262.53a2.84,2.84,0,0,1,2.2-.51,1.44,1.44,0,0,1,.64,2.11c-.88,1.45-3.42,1.3-4.87,1.44a.22.22,0,0,0-.06.43c1.8.58,5.91-.21,5.79-2.69-.09-2.15-2.64-2.47-3.86-1-.08.1,0,.29.16.2Z" transform="translate(4 0)"/><path class="cls-9" d="M269.44,260.4a4.57,4.57,0,0,0-2.58-1.26,13,13,0,0,0-4.39-.18,7.72,7.72,0,0,0-4,1.31c-.5.41-.09.94.35,1.16a5,5,0,0,0,1.3.37,17.72,17.72,0,0,0,3.49.24,24.3,24.3,0,0,0,3-.16c.5-.06,1-.08,1.51-.16s1.15-.15,1.46-.55A.54.54,0,0,0,269.44,260.4Z" transform="translate(4 0)"/><path class="cls-35" d="M262.7,260.67a6.52,6.52,0,0,0-3.14,1l.54.11a17.72,17.72,0,0,0,3.49.24,24.3,24.3,0,0,0,3-.16c.5-.06,1-.08,1.51-.16l.14,0a4.08,4.08,0,0,0-1.9-.87A10.55,10.55,0,0,0,262.7,260.67Z" transform="translate(4 0)"/><path class="cls-9" d="M252.36,265.8c-.46-1.45-3.44-2.21-5.41-2.64a27.16,27.16,0,0,0-9.17-.38,25.61,25.61,0,0,0-5.41,1.11c-1.25.45-4,1.33-3.14,3.09a3.08,3.08,0,0,0,1.23,1.25c2.57,1.61,5.83,1.84,8.78,1.87a45.15,45.15,0,0,0,7.79-.63C248.22,269.24,253.07,268,252.36,265.8Z" transform="translate(4 0)"/><path class="cls-80" d="M234,261.76v4.34a.61.61,0,0,0,.48.6c2,.47,10,2.23,10.79,1.5s.68-3.09.69-3.36c.12-3.25-1.06-4.5-1.06-4.5Z" transform="translate(4 0)"/><path class="cls-81" d="M244.85,260.34a1.31,1.31,0,0,0-.27-.3c-.64-.52-1.76-.13-2.62,0-2.33.29-4.66.64-7,1.07-.43.08-1,.24-1,.68L244.12,263a1.14,1.14,0,0,0,.66-.06c.32-.17.39-.59.42-.95A2.82,2.82,0,0,0,244.85,260.34Z" transform="translate(4 0)"/><path class="cls-82" d="M233.87,264.2a59,59,0,0,0,9.33,1.63c1.63.16,2.31-.33,2.77-1.92a.06.06,0,0,0-.11-.05c-1.36,1.94-3.76,1.29-5.77,1s-4.09-.67-6.15-1c-.16,0-.24.21-.07.26Z" transform="translate(4 0)"/><path class="cls-83" d="M243.19,258.56a2.83,2.83,0,0,0-.54,1.26.38.38,0,0,0,0,.28.51.51,0,0,0,.25.18,2.45,2.45,0,0,0,.83.23.79.79,0,0,0,.72-.38.78.78,0,0,0,.05-.5,1.3,1.3,0,0,0-1-1" transform="translate(4 0)"/><path class="cls-83" d="M243.19,260.77a2.75,2.75,0,0,0-.55,1.26.42.42,0,0,0,0,.27.44.44,0,0,0,.25.19,2.23,2.23,0,0,0,.83.22.77.77,0,0,0,.72-.38.85.85,0,0,0,.05-.5,1.32,1.32,0,0,0-1-1" transform="translate(4 0)"/><line class="cls-51" x1="439.6" y1="389.88" x2="444.42" y2="448.38"/><line class="cls-51" x1="457.24" y1="399.49" x2="464.09" y2="457.59"/><line class="cls-51" x1="400.91" y1="389.88" x2="392.09" y2="448.38"/><line class="cls-51" x1="417.55" y1="399.49" x2="411.77" y2="457.59"/><line class="cls-51" x1="457.24" y1="393.38" x2="464.09" y2="342.44"/><line class="cls-51" x1="439.88" y1="387.79" x2="439.88" y2="328.02"/><path class="cls-16" d="M408.76,403.59c12.43,2.27,40.32.09,48.25-2.22.93-.27,2.21-4.63,1.15-6-3.08-3.92-11.81-3.89-15-3.89-5.86,0-37.56-3.46-46.32-3.46-2.41.57-3.44,4.1-3.36,5.35C393.73,396.9,401.65,402.29,408.76,403.59Z" transform="translate(4 0)"/><path class="cls-9" d="M407.94,399c12.23,3.46,42.88-.21,49.52-2,2.78-.74-.25-5.22-6.45-8.1a53.45,53.45,0,0,0-16.41-4.76c-8.25-1.08-16.73-.29-29.14,1.85-4.8.83-12.31,1.46-10.73,5.6C396,395,403.3,397.69,407.94,399Z" transform="translate(4 0)"/><path class="cls-16" d="M430.64,324.45c7.09-2.08,38,9.21,36.86,19-.37,3.26-1.72,13.89-3.13,19.74-.23.93-2.1,1.83-3,1.82-8.85-7.45-17.89-15-29.24-17.31a1.5,1.5,0,0,1-1.17-1.31l-2.72-19.71C428.13,325.93,430,324.66,430.64,324.45Z" transform="translate(4 0)"/><path class="cls-9" d="M429,325.78c7.09-2.08,37.64,8.88,36.53,18.62-.38,3.27-1.72,13.9-3.14,19.75-.22.92-1.53,1.07-2.26.46-8.85-7.45-18.67-13.6-30-16a1.47,1.47,0,0,1-1.16-1.31l-1-20A1.49,1.49,0,0,1,429,325.78Z" transform="translate(4 0)"/><path class="cls-59" d="M388.44,442.87s-8.86,7.44-7.94,9.47c.62,1.37,11.35-4,14.89-5.59,1.33-.59-1-4.24-3.64-5.93" transform="translate(4 0)"/><path class="cls-32" d="M385.43,431.34,388,443.15s.62,1.23,2.31.49a3.89,3.89,0,0,0,2.09-2.41l-1.2-12.62" transform="translate(4 0)"/><path class="cls-84" d="M409.49,368.42s-.65.24-1.79.69c-7.86,3.1-25.8,8.62-30,22.33-3,9.82,5.71,46.13,5.71,46.13l15.36-6.91-6.45-27.91,39.46-24.28-.9-10.05" transform="translate(4 0)"/><path class="cls-59" d="M357.8,443.38s-11.46-1.61-12.35.44c-.61,1.37,10.59,5.74,14.12,7.32,1.32.59,2.46-3.59,2-6.67" transform="translate(4 0)"/><path class="cls-32" d="M364.36,433.43l-7.06,9.81s-.5,1.29,1.18,2a3.85,3.85,0,0,0,3.19,0l8.58-9.34" transform="translate(4 0)"/><path class="cls-84" d="M427.51,367.41c-2.5,1.66-18.65,15.85-35.9,31.61-7.34,6.7-22.46,25.8-30.07,38a34.62,34.62,0,0,0,13.56,6.55C385.35,433.1,404.76,412,411,408.19c2.76-1.68,20-8.21,28.88-13.51,7.52-4.52,9.82-9.39,8.24-23.08" transform="translate(4 0)"/><path class="cls-85" d="M427.51,367.41c-2.5,1.66-21.53,13.23-37.43,30.8-3.68,4.08-5.11,6.05-11.34,15.17" transform="translate(4 0)"/><line class="cls-85" x1="387.43" y1="434.4" x2="400.74" y2="421.8"/><path class="cls-86" d="M384.33,419.76c-1.42,4.82-3.07,9.67-4.05,14.6a.16.16,0,0,0,.3.08c1.65-4.74,2.69-9.77,3.9-14.64a.08.08,0,0,0-.15,0Z" transform="translate(4 0)"/><path class="cls-86" d="M383.53,417.9c-2.73,6-5.41,12-8.12,18,0,.09.1.17.14.08,2.71-6,5.46-12,8.14-18,.05-.11-.11-.2-.16-.09Z" transform="translate(4 0)"/><path class="cls-87" d="M412.45,321.9c0,13-2.71,39.62-2.84,43.07s-4,4.32-2.69,6c2.17,2.71,12.2,6.08,21.63,7.27s18.25-2.2,20.08-3.57c1.16-.88,1-2.46.87-6.91-.06-2.07,10.34-34.73,7.38-41.65s-16.37-15.67-16.37-15.67l-11.27-2S412.45,311.79,412.45,321.9Z" transform="translate(4 0)"/><path class="cls-87" d="M429.41,307.83s-12.34-.33-19.92,6.12c-9.24,7.88-14.18,23.55-16,25.41s-19.93-13.76-19.93-13.76l-2.72,3.23s16.93,25.84,25.82,25.84,25.36-24,25.36-24" transform="translate(4 0)"/><path class="cls-88" d="M383.43,318.11s-3.07-8.39-16-9.66L380.37,347a25,25,0,0,1,12,12.08Z" transform="translate(4 0)"/><g class="cls-89"><path class="cls-90" d="M370.8,318.41s6.23.82,14,5.88" transform="translate(4 0)"/><path class="cls-90" d="M374.72,327.32s4-.64,11.78,4.41" transform="translate(4 0)"/><path class="cls-90" d="M376.45,334.76s4-.63,11.78,4.42" transform="translate(4 0)"/><path class="cls-90" d="M378.18,342.21s4-.64,11.78,4.42" transform="translate(4 0)"/></g><path class="cls-32" d="M371.42,328.09a46.86,46.86,0,0,1-2.91-6.14c-.8-3-.43-7.72,1.74-10.05a.66.66,0,0,1,.45-.26.44.44,0,0,1,.35.38,1.24,1.24,0,0,1-.1.54c-.41,1.26-.83,2.52-1.24,3.77.37-1.12,2.54-3.79,2.76-3.32a1.08,1.08,0,0,1-.11,1.09,14.51,14.51,0,0,0-1.35,3.66,11.86,11.86,0,0,1,2.09-2.95c.2-.18.56-.34.72-.12a.51.51,0,0,1-.05.53c-.7,1.39-1.69,2.76-1.68,4.31a7.3,7.3,0,0,1,2.23-3.41.22.22,0,0,1,.4.16,4.32,4.32,0,0,1-.54,1.89,18.11,18.11,0,0,0-.78,3.86,8.1,8.1,0,0,1-.78,2.23l.67,1.61" transform="translate(4 0)"/><path class="cls-91" d="M414.76,324.2s-1.49,10.61-3.29,17.77" transform="translate(4 0)"/><path class="cls-88" d="M383.43,318.11l8.91,41c14.85-1.79,21.81,2.53,21.81,2.53l-2.83-43.51S400.92,315.63,383.43,318.11Z" transform="translate(4 0)"/><g class="cls-92"><path class="cls-90" d="M385.68,323.83a146.38,146.38,0,0,1,22.47.41" transform="translate(4 0)"/><path class="cls-90" d="M387.56,330.65a145.69,145.69,0,0,1,22.47.4" transform="translate(4 0)"/><path class="cls-90" d="M389.44,337.46a146.39,146.39,0,0,1,22.47.41" transform="translate(4 0)"/><path class="cls-90" d="M391.33,344.28s11.76-1.28,22.47,1" transform="translate(4 0)"/><path class="cls-90" d="M393.21,351.09a74.65,74.65,0,0,1,21.55,2.52" transform="translate(4 0)"/></g><path class="cls-32" d="M422,343.92a43.49,43.49,0,0,1-5.43-2.18c-1.63-1-1.86-2.39-2.41-4.06a11.62,11.62,0,0,0-1.91-3.74,15.58,15.58,0,0,0-4.84-3.92,6.42,6.42,0,0,0-1.08-.47c-.51-.16-.81.2-.36.61l4,3.56a16.51,16.51,0,0,0-3.63-2.18,11.5,11.5,0,0,0-1.95-.74c-.33-.09-1.34-.51-1.48.07s1,1,1.27,1.16a29,29,0,0,1,5,3.38,17.61,17.61,0,0,0-5-1.63c-.36,0-.84,0-.93.37s.22.63.52.77a25.62,25.62,0,0,1,5.23,2.9s-1.58-.83-2.26-1.1c-.51-.2-3.21-1.05-1.72.35,1.11,1,2.54,1.7,3.66,2.73,1.55,1.41,2.51,3.09,4.39,4.13a11.26,11.26,0,0,1,1.4,1.07c1,.74,2,1.47,2.95,2.22q2.25,1.74,4.46,3.52l.1.08" transform="translate(4 0)"/><path class="cls-87" d="M440.58,309.42a23.17,23.17,0,0,1,14.51,10.36c7.24,11.78-1.72,41.85-11.5,41.85s-28.83-13.53-28.83-13.53l2.56-5.7s19.2,6.54,21.42,5.31,2.42-21.16,2.42-21.16" transform="translate(4 0)"/><path class="cls-91" d="M417.32,342.4s19.2,6.54,21.42,5.31,2.42-21.16,2.42-21.16" transform="translate(4 0)"/><path class="cls-91" d="M453.68,350.8c-2.62,6.27-6.27,10.83-10.09,10.83-9.78,0-28.83-13.53-28.83-13.53" transform="translate(4 0)"/><line class="cls-93" x1="387.43" y1="318.11" x2="396.34" y2="359.09"/><line class="cls-94" x1="428.73" y1="291.32" x2="432.38" y2="291.76"/><path class="cls-32" d="M426.47,287.26s-2.75,14.79,1.4,15.81c12.27,3.05,15-10.59,15-12.95S428.61,282.31,426.47,287.26Z" transform="translate(4 0)"/><path class="cls-32" d="M441.36,298.65l-.85,11.77s-.76,5.07-7.94,3.07c-4.88-1.36-3.16-5.66-3.16-5.66l1.59-8.26" transform="translate(4 0)"/><path class="cls-66" d="M433.31,294a5.39,5.39,0,0,1,.2-1c.12-.3.56-.66.77-.24a1.76,1.76,0,0,1-.14,1.53A.46.46,0,0,1,433.31,294Z" transform="translate(4 0)"/><path class="cls-66" d="M427.23,292.53a4.22,4.22,0,0,1,.08-1c.08-.28.46-.72.72-.32a1.72,1.72,0,0,1,.06,1.53A.46.46,0,0,1,427.23,292.53Z" transform="translate(4 0)"/><path class="cls-66" d="M436.12,291.32l-3.83-1.6A2.89,2.89,0,0,1,436.12,291.32Z" transform="translate(4 0)"/><path class="cls-66" d="M429.24,289l-2.68,0A1.86,1.86,0,0,1,429.24,289Z" transform="translate(4 0)"/><path class="cls-95" d="M433.05,299.2a4.66,4.66,0,0,1-5.31.89" transform="translate(4 0)"/><path class="cls-95" d="M438.76,300.18s-1.67,3.79-8.22,3.36" transform="translate(4 0)"/><path class="cls-94" d="M429.24,292.22a2.32,2.32,0,1,1-2.32-2.31A2.31,2.31,0,0,1,429.24,292.22Z" transform="translate(4 0)"/><path class="cls-94" d="M436.17,293.64a2.32,2.32,0,1,1-2.32-2.32A2.32,2.32,0,0,1,436.17,293.64Z" transform="translate(4 0)"/><path class="cls-95" d="M430,293c-1.4,2-2.37,3.69-1.74,4.09a3.78,3.78,0,0,0,2.69,0" transform="translate(4 0)"/><path class="cls-94" d="M429.24,292.22a2.26,2.26,0,0,1,2.3.76" transform="translate(4 0)"/><line class="cls-94" x1="440.12" y1="294.1" x2="444.38" y2="295.15"/><path class="cls-96" d="M439,294.25a7.8,7.8,0,0,0,.27-2.16,2.51,2.51,0,0,0-.62-2.17,10.39,10.39,0,0,0-1.43-.57,4.25,4.25,0,0,1-1.36-1.65c-.89-1.36-3.75-1-5.14-1.09-1.05-.1-2.46-.46-3.37.26-.27.21-.35.72-.8.64-1-1.19-.5-3.38-.43-3.78a5.5,5.5,0,0,1,2.68-3.72,12.08,12.08,0,0,1,6-1.43c2.87-.07,6.3.67,8.45,2.7,1.51,1.42,2,3.58,2.3,5.56a15.92,15.92,0,0,1-1.31,9.71,4.9,4.9,0,0,1-1.73,2,1.29,1.29,0,0,1-1.22.16c-.41-.22-.54-.73-.72-1.16a2.47,2.47,0,0,0-1.42-1.43C438.44,295.72,438.79,294.94,439,294.25Z" transform="translate(4 0)"/><path class="cls-32" d="M438.55,295.76a2,2,0,0,1,1.94-1.26c2.2-.15,1.64,5.63-1.42,5.23a1.57,1.57,0,0,1-1.39-1.3" transform="translate(4 0)"/><path class="cls-53" d="M377.06,453c0,1.35-5.59,2.44-12.49,2.44s-12.48-1.09-12.48-2.44,5.59-2.44,12.48-2.44S377.06,451.69,377.06,453Z" transform="translate(4 0)"/><line class="cls-54" x1="368.57" y1="360.8" x2="368.57" y2="452.26"/><path class="cls-69" d="M427.3,364.86c0,3-28.08,5.49-62.73,5.49s-62.72-2.46-62.72-5.49v-5H427.3Z" transform="translate(4 0)"/><ellipse class="cls-53" cx="368.57" cy="359.83" rx="62.73" ry="5.49"/><path class="cls-73" d="M363.76,338.54c-3.23,3.74-4.5,9.52-2.42,14.13.1.22.48.13.42-.12-1.12-5-.65-9.49,2.34-13.76a.21.21,0,0,0-.34-.25Z" transform="translate(4 0)"/><path class="cls-73" d="M351.72,334.86c4.76,4.83,4.31,11,5.12,17.2a.21.21,0,0,0,.42,0c.49-6-.76-13.11-5.43-17.31-.07-.07-.19,0-.11.11Z" transform="translate(4 0)"/><path class="cls-73" d="M356.4,344.35a6.09,6.09,0,0,0-4.66-2.76,2.09,2.09,0,0,0-1.49.36,1.84,1.84,0,0,0-.55,1.35,2.21,2.21,0,0,0,.19,1.08,2.07,2.07,0,0,0,1.19,1,4.4,4.4,0,0,0,1.58.2,9.53,9.53,0,0,0,3.45-.74" transform="translate(4 0)"/><path class="cls-73" d="M355.27,339.94a4.4,4.4,0,0,0-3.35-2,1.53,1.53,0,0,0-1.07.26,1.36,1.36,0,0,0-.4,1,1.62,1.62,0,0,0,.14.78,1.48,1.48,0,0,0,.86.71,3.09,3.09,0,0,0,1.13.15,6.82,6.82,0,0,0,2.48-.54" transform="translate(4 0)"/><path class="cls-73" d="M361.54,343a3.73,3.73,0,0,0-1.68-2.9,1.26,1.26,0,0,0-.91-.25,1.1,1.1,0,0,0-.7.55,1.41,1.41,0,0,0-.23.65,1.33,1.33,0,0,0,.34.9,2.83,2.83,0,0,0,.79.58,6.13,6.13,0,0,0,2.09.65" transform="translate(4 0)"/><path class="cls-73" d="M362.73,340.59a2.82,2.82,0,0,0-.75-2.38,1,1,0,0,0-.62-.34.84.84,0,0,0-.6.29.9.9,0,0,0-.27.43.93.93,0,0,0,.1.71,2,2,0,0,0,.47.56,4.55,4.55,0,0,0,1.42.81" transform="translate(4 0)"/><path class="cls-73" d="M355.13,339.23a3.46,3.46,0,0,0,2.53-1.79,1.2,1.2,0,0,0,.17-.86,1.07,1.07,0,0,0-.58-.6,1.32,1.32,0,0,0-.61-.16,1.18,1.18,0,0,0-.8.39,2.61,2.61,0,0,0-.48.78,5.62,5.62,0,0,0-.42,2" transform="translate(4 0)"/><path class="cls-73" d="M356.78,347.93a4.79,4.79,0,0,0,3.5-2.47,1.65,1.65,0,0,0,.22-1.18,1.48,1.48,0,0,0-.79-.84,1.78,1.78,0,0,0-.85-.21,1.59,1.59,0,0,0-1.1.54,3.34,3.34,0,0,0-.65,1.07,7.31,7.31,0,0,0-.59,2.73" transform="translate(4 0)"/><path class="cls-73" d="M361.1,346.65a4.79,4.79,0,0,0,4.27.26,1.62,1.62,0,0,0,.92-.78,1.49,1.49,0,0,0-.09-1.15,1.74,1.74,0,0,0-.53-.7,1.67,1.67,0,0,0-1.2-.27,3.65,3.65,0,0,0-1.18.43,7.33,7.33,0,0,0-2.16,1.76" transform="translate(4 0)"/><path class="cls-73" d="M361.84,342.47a3.08,3.08,0,0,0,2.74.17,1.12,1.12,0,0,0,.59-.5,1,1,0,0,0-.06-.74,1.25,1.25,0,0,0-.34-.45,1.09,1.09,0,0,0-.77-.17,2.1,2.1,0,0,0-.76.27,4.86,4.86,0,0,0-1.38,1.13" transform="translate(4 0)"/><path class="cls-73" d="M363.49,339.22a2.72,2.72,0,0,0,2.27-.83.88.88,0,0,0,.29-.61.83.83,0,0,0-.3-.57,1,1,0,0,0-.43-.24.87.87,0,0,0-.68.13,2,2,0,0,0-.52.48,4.43,4.43,0,0,0-.72,1.4" transform="translate(4 0)"/><path class="cls-73" d="M354,337.28a3.64,3.64,0,0,0-1.49-2.7,1.26,1.26,0,0,0-.82-.33.92.92,0,0,0-.66.41,1,1,0,0,0-.22.53,1.18,1.18,0,0,0,.3.82,2.76,2.76,0,0,0,.71.6,6.53,6.53,0,0,0,1.89.79" transform="translate(4 0)"/><path class="cls-73" d="M367.62,335.21c2,6.48-1.29,11.73-3.45,17.61a.21.21,0,0,0,.37.19c3.23-5.11,5.42-12,3.23-17.85a.08.08,0,1,0-.15,0Z" transform="translate(4 0)"/><path class="cls-73" d="M368.4,341.35a4.34,4.34,0,0,0-2-3.3,1.5,1.5,0,0,0-1.07-.27,1.32,1.32,0,0,0-.8.67,1.58,1.58,0,0,0-.24.75,1.5,1.5,0,0,0,.43,1,3.18,3.18,0,0,0,.93.65,7,7,0,0,0,2.45.68" transform="translate(4 0)"/><path class="cls-73" d="M368.61,340.66a3.45,3.45,0,0,0,3.07-.41,1.17,1.17,0,0,0,.55-.69,1,1,0,0,0-.23-.8,1.27,1.27,0,0,0-.47-.42,1.24,1.24,0,0,0-.89,0,2.58,2.58,0,0,0-.78.47,5.55,5.55,0,0,0-1.29,1.56" transform="translate(4 0)"/><path class="cls-73" d="M366.79,347.92a4.8,4.8,0,0,0,4.24-.56,1.67,1.67,0,0,0,.75-.95,1.45,1.45,0,0,0-.31-1.11,1.81,1.81,0,0,0-.65-.58,1.63,1.63,0,0,0-1.23,0,3.39,3.39,0,0,0-1.08.64,7.52,7.52,0,0,0-1.78,2.15" transform="translate(4 0)"/><path class="cls-73" d="M368.49,338.39a3.69,3.69,0,0,0-.06-3.08,1.37,1.37,0,0,0-.58-.67.93.93,0,0,0-.78.05,1.21,1.21,0,0,0-.44.37,1.23,1.23,0,0,0-.12.87,2.76,2.76,0,0,0,.36.85,6.07,6.07,0,0,0,1.31,1.58" transform="translate(4 0)"/><path class="cls-74" d="M352.3,348.69l2.12,9.07c.33.8,2,1.38,4,1.38H365c2,0,3.71-.59,4-1.39l1.9-9.06Z" transform="translate(4 0)"/></g></g></svg>